<svg width="370" height="371" viewBox="0 0 370 371" fill="none" xmlns="http://www.w3.org/2000/svg">
    <g style="mix-blend-mode:plus-lighter">
        <mask id="path-1-outside-1_135_4303" maskUnits="userSpaceOnUse" x="-45" y="-34" width="442"
            height="422" fill="black">
            <rect fill="white" x="-45" y="-34" width="442" height="422" />
            <path
                d="M225.081 231.207L176.118 91.5501L127.154 231.207H225.081ZM254.014 314.111H98.2211L73.183 387H-43.1052L116.582 -32.5277H235.653L395.34 387H279.052L254.014 314.111Z" />
        </mask>
        <path
            d="M225.081 231.207L176.118 91.5501L127.154 231.207H225.081ZM254.014 314.111H98.2211L73.183 387H-43.1052L116.582 -32.5277H235.653L395.34 387H279.052L254.014 314.111Z"
            fill="#8899B6" fill-opacity="0.11" />
        <path
            d="M225.081 231.207V232.207H226.491L226.025 230.876L225.081 231.207ZM176.118 91.5501L177.061 91.2193L176.118 88.5276L175.174 91.2193L176.118 91.5501ZM127.154 231.207L126.21 230.876L125.744 232.207H127.154V231.207ZM254.014 314.111L254.96 313.786L254.728 313.111H254.014V314.111ZM98.2211 314.111V313.111H97.5073L97.2754 313.786L98.2211 314.111ZM73.183 387V388H73.8968L74.1288 387.325L73.183 387ZM-43.1052 387L-44.0398 386.644L-44.5558 388H-43.1052V387ZM116.582 -32.5277V-33.5277H115.893L115.648 -32.8834L116.582 -32.5277ZM235.653 -32.5277L236.587 -32.8834L236.342 -33.5277H235.653V-32.5277ZM395.34 387V388H396.791L396.275 386.644L395.34 387ZM279.052 387L278.106 387.325L278.338 388H279.052V387ZM226.025 230.876L177.061 91.2193L175.174 91.881L224.137 231.538L226.025 230.876ZM175.174 91.2193L126.21 230.876L128.098 231.538L177.061 91.881L175.174 91.2193ZM127.154 232.207H225.081V230.207H127.154V232.207ZM254.014 313.111H98.2211V315.111H254.014V313.111ZM97.2754 313.786L72.2372 386.675L74.1288 387.325L99.1669 314.436L97.2754 313.786ZM73.183 386H-43.1052V388H73.183V386ZM-42.1706 387.356L117.517 -32.172L115.648 -32.8834L-44.0398 386.644L-42.1706 387.356ZM116.582 -31.5277H235.653V-33.5277H116.582V-31.5277ZM234.718 -32.172L394.406 387.356L396.275 386.644L236.587 -32.8834L234.718 -32.172ZM395.34 386H279.052V388H395.34V386ZM279.998 386.675L254.96 313.786L253.068 314.436L278.106 387.325L279.998 386.675Z"
            fill="url(#paint0_linear_135_4303)" mask="url(#path-1-outside-1_135_4303)" />
    </g>
    <defs>
        <linearGradient id="paint0_linear_135_4303" x1="176.5" y1="-108" x2="176.5" y2="449"
            gradientUnits="userSpaceOnUse">
            <stop stop-color="#363D42" />
            <stop offset="1" stop-color="#1C1D26" />
        </linearGradient>
    </defs>
</svg>
    