<svg width="32" height="32" viewBox="0 0 32 32" fill="none" xmlns="http://www.w3.org/2000/svg">
<g clip-path="url(#clip0_1690_383)">
<path d="M0 3C0 1.34314 1.34315 0 3 0H29.0708C30.7277 0 32.0708 1.34315 32.0708 3V29.0709C32.0708 30.7277 30.7277 32.0709 29.0708 32.0709H3C1.34315 32.0709 0 30.7277 0 29.0709V3Z" fill="url(#paint0_linear_1690_383)"/>
<path d="M12.4174 13.0229L15.4563 8.37859C15.5452 8.24219 15.6542 8.14496 15.7831 8.08689C15.912 8.02896 16.048 8 16.1913 8C16.3345 8 16.4706 8.02896 16.5994 8.08689C16.7284 8.14496 16.8373 8.24219 16.9262 8.37859L19.9652 13.0229C20.0541 13.1565 20.0985 13.2968 20.0985 13.4436C20.0985 13.5907 20.062 13.725 19.989 13.8466C19.9157 13.9682 19.8152 14.0654 19.6873 14.1381C19.5593 14.2108 19.4099 14.2471 19.2393 14.2471H13.1433C12.972 14.2471 12.8221 14.2104 12.6936 14.137C12.565 14.0635 12.4651 13.9668 12.3936 13.8466C12.3205 13.7268 12.284 13.5936 12.284 13.4472C12.284 13.3008 12.3285 13.1593 12.4174 13.0229ZM21.4206 24C20.3296 24 19.4047 23.6462 18.646 22.9387C17.8872 22.2312 17.5079 21.3687 17.5079 20.3513C17.5079 19.3339 17.8872 18.4715 18.646 17.7639C19.4047 17.0564 20.3296 16.7026 21.4206 16.7026C22.5116 16.7026 23.4365 17.0564 24.1952 17.7639C24.954 18.4715 25.3333 19.3339 25.3333 20.3513C25.3333 21.3687 24.954 22.2312 24.1952 22.9387C23.4365 23.6462 22.5116 24 21.4206 24ZM8 22.7552V17.9453C8 17.7181 8.08232 17.5281 8.24697 17.3752C8.41177 17.2224 8.61595 17.146 8.85951 17.146H14.0175C14.2611 17.146 14.4649 17.2227 14.6289 17.3763C14.7927 17.5299 14.8747 17.7203 14.8747 17.9475V22.7574C14.8747 22.9845 14.7923 23.1746 14.6277 23.3275C14.4629 23.4803 14.2587 23.5567 14.0152 23.5567H8.85714C8.61357 23.5567 8.40979 23.4799 8.24578 23.3264C8.08193 23.1727 8 22.9823 8 22.7552Z" fill="#E8EAF6"/>
</g>
<defs>
<linearGradient id="paint0_linear_1690_383" x1="16.0354" y1="3.38814e-07" x2="4.66667" y2="32" gradientUnits="userSpaceOnUse">
<stop offset="0.045" stop-color="#00DDF4"/>
<stop offset="1" stop-color="#0C0D5D"/>
</linearGradient>
<clipPath id="clip0_1690_383">
<rect width="32" height="32" fill="white"/>
</clipPath>
</defs>
</svg>
