<svg width="153" height="48" viewBox="0 0 153 48" fill="none" xmlns="http://www.w3.org/2000/svg">
<path d="M41.5311 31.4286V17.4885H46.5643C47.9489 17.4885 49.1307 17.7622 50.1097 18.3096C51.0886 18.857 51.8357 19.646 52.3509 20.6764C52.8726 21.7069 53.1334 22.9531 53.1334 24.4151V24.4344C53.1334 25.9092 52.8726 27.1683 52.3509 28.2116C51.8357 29.255 51.0886 30.0536 50.1097 30.6074C49.1372 31.1549 47.9554 31.4286 46.5643 31.4286H41.5311ZM43.7047 29.5544H46.3227C47.2952 29.5544 48.1228 29.3548 48.8055 28.9555C49.4946 28.5562 50.0195 27.9766 50.3802 27.2166C50.7408 26.4566 50.9212 25.5389 50.9212 24.4634V24.444C50.9212 23.3749 50.7376 22.4604 50.3705 21.7004C50.0098 20.9405 49.485 20.3609 48.7958 19.9616C48.1132 19.5623 47.2888 19.3626 46.3227 19.3626H43.7047V29.5544Z" fill="#9A9DA3"/>
<path d="M59.6114 31.6315C58.5938 31.6315 57.7147 31.4125 56.9741 30.9745C56.2399 30.5302 55.6731 29.9022 55.2738 29.0907C54.8809 28.2793 54.6845 27.3196 54.6845 26.2119V26.2022C54.6845 25.1074 54.8809 24.151 55.2738 23.3331C55.6731 22.5151 56.2334 21.8776 56.9547 21.4203C57.6825 20.963 58.5326 20.7344 59.5051 20.7344C60.484 20.7344 61.3245 20.9566 62.0265 21.401C62.7349 21.8389 63.2792 22.454 63.6591 23.2461C64.0391 24.0319 64.2291 24.9496 64.2291 25.9994V26.7336H55.7568V25.2362H63.1858L62.1811 26.6273V25.7965C62.1811 25.043 62.0651 24.4215 61.8333 23.932C61.6079 23.4361 61.2955 23.069 60.8962 22.8307C60.4969 22.586 60.0364 22.4636 59.5148 22.4636C58.9931 22.4636 58.5294 22.5924 58.1237 22.85C57.7179 23.1012 57.3959 23.4748 57.1576 23.9707C56.9193 24.4666 56.8002 25.0752 56.8002 25.7965V26.6273C56.8002 27.3164 56.9161 27.9057 57.1479 28.3952C57.3798 28.8847 57.7083 29.2582 58.1333 29.5158C58.5648 29.7734 59.0736 29.9022 59.6597 29.9022C60.1105 29.9022 60.4969 29.841 60.8189 29.7187C61.1474 29.5899 61.4147 29.4321 61.6208 29.2453C61.8333 29.0585 61.9782 28.875 62.0555 28.6947L62.0941 28.6174H64.1228L64.1035 28.7043C64.0134 29.0521 63.8556 29.3999 63.6301 29.7477C63.4047 30.089 63.1053 30.4014 62.7317 30.6847C62.3646 30.9681 61.9202 31.1967 61.3986 31.3706C60.8833 31.5445 60.2876 31.6315 59.6114 31.6315Z" fill="#9A9DA3"/>
<path d="M68.7846 31.4286L64.988 20.9373H67.2196L69.8376 29.3033H69.9922L72.6005 20.9373H74.8128L71.0259 31.4286H68.7846Z" fill="#9A9DA3"/>
<path d="M80.315 31.6315C79.2975 31.6315 78.4183 31.4125 77.6777 30.9745C76.9435 30.5302 76.3768 29.9022 75.9775 29.0907C75.5846 28.2793 75.3882 27.3196 75.3882 26.2119V26.2022C75.3882 25.1074 75.5846 24.151 75.9775 23.3331C76.3768 22.5151 76.9371 21.8776 77.6584 21.4203C78.3861 20.963 79.2363 20.7344 80.2088 20.7344C81.1877 20.7344 82.0282 20.9566 82.7302 21.401C83.4386 21.8389 83.9828 22.454 84.3628 23.2461C84.7428 24.0319 84.9328 24.9496 84.9328 25.9994V26.7336H76.4605V25.2362H83.8894L82.8847 26.6273V25.7965C82.8847 25.043 82.7688 24.4215 82.5369 23.932C82.3115 23.4361 81.9992 23.069 81.5999 22.8307C81.2006 22.586 80.7401 22.4636 80.2184 22.4636C79.6968 22.4636 79.233 22.5924 78.8273 22.85C78.4216 23.1012 78.0996 23.4748 77.8613 23.9707C77.623 24.4666 77.5038 25.0752 77.5038 25.7965V26.6273C77.5038 27.3164 77.6197 27.9057 77.8516 28.3952C78.0835 28.8847 78.4119 29.2582 78.837 29.5158C79.2685 29.7734 79.7773 29.9022 80.3633 29.9022C80.8142 29.9022 81.2006 29.841 81.5226 29.7187C81.8511 29.5899 82.1183 29.4321 82.3244 29.2453C82.5369 29.0585 82.6819 28.875 82.7591 28.6947L82.7978 28.6174H84.8265L84.8072 28.7043C84.717 29.0521 84.5592 29.3999 84.3338 29.7477C84.1084 30.089 83.8089 30.4014 83.4354 30.6847C83.0683 30.9681 82.6239 31.1967 82.1022 31.3706C81.587 31.5445 80.9913 31.6315 80.315 31.6315Z" fill="#9A9DA3"/>
<path d="M86.9282 31.4286V16.8315H89.0342V31.4286H86.9282Z" fill="#9A9DA3"/>
<path d="M95.9759 31.6315C94.9519 31.6315 94.0696 31.4125 93.3289 30.9745C92.5883 30.5366 92.0151 29.9119 91.6093 29.1004C91.21 28.2825 91.0104 27.3132 91.0104 26.1926V26.1733C91.0104 25.0462 91.21 24.0769 91.6093 23.2655C92.0151 22.454 92.5883 21.8293 93.3289 21.3913C94.076 20.9534 94.9583 20.7344 95.9759 20.7344C96.9999 20.7344 97.8822 20.9534 98.6229 21.3913C99.3635 21.8293 99.9335 22.454 100.333 23.2655C100.739 24.0769 100.941 25.0462 100.941 26.1733V26.1926C100.941 27.3132 100.739 28.2825 100.333 29.1004C99.9335 29.9119 99.3635 30.5366 98.6229 30.9745C97.8887 31.4125 97.0063 31.6315 95.9759 31.6315ZM95.9759 29.8732C96.5748 29.8732 97.0836 29.7283 97.5023 29.4385C97.9209 29.1423 98.2397 28.7204 98.4586 28.173C98.6776 27.6256 98.7871 26.9654 98.7871 26.1926V26.1733C98.7871 25.394 98.6776 24.7306 98.4586 24.1832C98.2397 23.6358 97.9209 23.2171 97.5023 22.9273C97.0836 22.6375 96.5748 22.4926 95.9759 22.4926C95.3769 22.4926 94.8682 22.6375 94.4495 22.9273C94.0309 23.2171 93.7121 23.6358 93.4931 24.1832C93.2742 24.7306 93.1647 25.394 93.1647 26.1733V26.1926C93.1647 26.9654 93.2742 27.6288 93.4931 28.1827C93.7121 28.7301 94.0309 29.1487 94.4495 29.4385C94.8682 29.7283 95.3769 29.8732 95.9759 29.8732Z" fill="#9A9DA3"/>
<path d="M102.821 34.9257V20.9373H104.927V22.5989H105.082C105.288 22.2125 105.548 21.884 105.864 21.6135C106.18 21.3366 106.543 21.1273 106.956 20.9856C107.368 20.8374 107.819 20.7634 108.308 20.7634C109.19 20.7634 109.957 20.9856 110.607 21.43C111.258 21.8743 111.76 22.5023 112.114 23.3138C112.475 24.1188 112.655 25.072 112.655 26.1733V26.1926C112.655 27.3003 112.478 28.2599 112.124 29.0714C111.77 29.8765 111.267 30.5012 110.617 30.9456C109.967 31.3835 109.197 31.6025 108.308 31.6025C107.825 31.6025 107.374 31.5284 106.956 31.3803C106.537 31.2257 106.167 31.0132 105.845 30.7427C105.529 30.4658 105.275 30.1405 105.082 29.767H104.927V34.9257H102.821ZM107.709 29.8056C108.295 29.8056 108.798 29.6607 109.216 29.3709C109.635 29.0811 109.954 28.6657 110.173 28.1247C110.398 27.5837 110.511 26.9397 110.511 26.1926V26.1733C110.511 25.4197 110.398 24.7757 110.173 24.2412C109.954 23.7002 109.635 23.2848 109.216 22.995C108.798 22.7051 108.295 22.5602 107.709 22.5602C107.13 22.5602 106.627 22.7051 106.202 22.995C105.784 23.2848 105.458 23.7002 105.226 24.2412C105.001 24.7822 104.888 25.4262 104.888 26.1733V26.1926C104.888 26.9332 105.001 27.574 105.226 28.115C105.458 28.656 105.784 29.0746 106.202 29.3709C106.627 29.6607 107.13 29.8056 107.709 29.8056Z" fill="#9A9DA3"/>
<path d="M118.959 31.6315C117.942 31.6315 117.063 31.4125 116.322 30.9745C115.588 30.5302 115.021 29.9022 114.622 29.0907C114.229 28.2793 114.033 27.3196 114.033 26.2119V26.2022C114.033 25.1074 114.229 24.151 114.622 23.3331C115.021 22.5151 115.581 21.8776 116.303 21.4203C117.031 20.963 117.881 20.7344 118.853 20.7344C119.832 20.7344 120.673 20.9566 121.375 21.401C122.083 21.8389 122.627 22.454 123.007 23.2461C123.387 24.0319 123.577 24.9496 123.577 25.9994V26.7336H115.105V25.2362H122.534L121.529 26.6273V25.7965C121.529 25.043 121.413 24.4215 121.181 23.932C120.956 23.4361 120.644 23.069 120.244 22.8307C119.845 22.586 119.384 22.4636 118.863 22.4636C118.341 22.4636 117.877 22.5924 117.472 22.85C117.066 23.1012 116.744 23.4748 116.506 23.9707C116.267 24.4666 116.148 25.0752 116.148 25.7965V26.6273C116.148 27.3164 116.264 27.9057 116.496 28.3952C116.728 28.8847 117.056 29.2582 117.481 29.5158C117.913 29.7734 118.422 29.9022 119.008 29.9022C119.459 29.9022 119.845 29.841 120.167 29.7187C120.495 29.5899 120.763 29.4321 120.969 29.2453C121.181 29.0585 121.326 28.875 121.404 28.6947L121.442 28.6174H123.471L123.452 28.7043C123.361 29.0521 123.204 29.3999 122.978 29.7477C122.753 30.089 122.453 30.4014 122.08 30.6847C121.713 30.9681 121.268 31.1967 120.747 31.3706C120.231 31.5445 119.636 31.6315 118.959 31.6315Z" fill="#9A9DA3"/>
<path d="M125.476 31.4286V20.9373H127.582V22.5216H127.737C127.93 21.9677 128.261 21.5362 128.732 21.2271C129.202 20.9179 129.785 20.7634 130.48 20.7634C130.654 20.7634 130.825 20.773 130.992 20.7924C131.16 20.8052 131.295 20.8246 131.398 20.8503V22.7824C131.211 22.7438 131.024 22.7148 130.838 22.6955C130.657 22.6762 130.467 22.6665 130.268 22.6665C129.733 22.6665 129.263 22.7695 128.857 22.9756C128.458 23.1817 128.146 23.4715 127.92 23.8451C127.695 24.2186 127.582 24.6566 127.582 25.1589V31.4286H125.476Z" fill="#9A9DA3"/>
<path d="M35.8536 19.7653C35.2112 20.1541 34.679 20.6977 34.3069 21.3452C33.9348 21.9927 33.735 22.7229 33.7262 23.4674C33.7288 24.3055 33.9799 25.1244 34.4487 25.8227C34.9174 26.521 35.583 27.068 36.3632 27.3961C36.0556 28.3771 35.6004 29.3067 35.0128 30.1537C34.1721 31.35 33.293 32.5462 31.9555 32.5462C30.618 32.5462 30.274 31.7781 28.7326 31.7781C27.2294 31.7781 26.6943 32.5714 25.4714 32.5714C24.2485 32.5714 23.395 31.4633 22.4141 30.1033C21.1183 28.1983 20.4062 25.9641 20.3632 23.6689C20.3632 19.8913 22.8473 17.8892 25.293 17.8892C26.5925 17.8892 27.6753 18.7328 28.4906 18.7328C29.2676 18.7328 30.4779 17.8387 31.9555 17.8387C32.7153 17.8193 33.4682 17.9849 34.1479 18.3209C34.8277 18.6569 35.4135 19.1529 35.8536 19.7653ZM31.2549 16.2396C31.9063 15.4822 32.275 14.5268 32.2995 13.533C32.3006 13.402 32.2878 13.2712 32.2613 13.1428C31.1424 13.2509 30.1077 13.778 29.3695 14.6161C28.7119 15.3434 28.3292 16.2732 28.2867 17.2478C28.2872 17.3663 28.3 17.4844 28.3249 17.6004C28.4131 17.6169 28.5027 17.6253 28.5925 17.6256C29.1081 17.585 29.6101 17.4413 30.0677 17.203C30.5255 16.9647 30.9294 16.637 31.2549 16.2396Z" fill="#9A9DA3"/>
</svg>
