<svg width="168" height="48" viewBox="0 0 168 48" fill="none" xmlns="http://www.w3.org/2000/svg">
<path d="M29.5738 21.9748C29.5738 22.3855 29.619 22.7185 29.698 22.9627C29.7884 23.2069 29.9014 23.4733 30.0595 23.7618C30.116 23.8506 30.1386 23.9394 30.1386 24.0171C30.1386 24.1281 30.0708 24.2391 29.924 24.3501L29.2123 24.8163C29.1106 24.8829 29.0089 24.9162 28.9186 24.9162C28.8056 24.9162 28.6926 24.8607 28.5797 24.7608C28.4215 24.5943 28.286 24.4167 28.173 24.2391C28.06 24.0504 27.947 23.8395 27.8228 23.5842C26.9416 24.6054 25.8346 25.116 24.5016 25.116C23.5526 25.116 22.7957 24.8496 22.2422 24.3168C21.6887 23.784 21.4062 23.0737 21.4062 22.1857C21.4062 21.2422 21.7452 20.4764 22.4343 19.8992C23.1234 19.322 24.0384 19.0334 25.2019 19.0334C25.586 19.0334 25.9814 19.0667 26.3994 19.1222C26.8174 19.1777 27.2467 19.2665 27.6985 19.3664V18.5562C27.6985 17.7126 27.5178 17.1243 27.1676 16.7802C26.8061 16.4361 26.1961 16.2696 25.3262 16.2696C24.9308 16.2696 24.5241 16.314 24.1062 16.4139C23.6882 16.5138 23.2815 16.6359 22.8861 16.7913C22.7054 16.869 22.5698 16.9134 22.4907 16.9356C22.4117 16.9578 22.3552 16.9689 22.31 16.9689C22.1518 16.9689 22.0728 16.8579 22.0728 16.6248V16.081C22.0728 15.9034 22.0953 15.7702 22.1518 15.6925C22.2083 15.6148 22.31 15.5371 22.4681 15.4594C22.8635 15.2596 23.338 15.0931 23.8915 14.9599C24.4451 14.8156 25.0325 14.749 25.6538 14.749C26.9981 14.749 27.9809 15.0487 28.6136 15.6481C29.2349 16.2474 29.5512 17.1576 29.5512 18.3786V21.9748H29.5738ZM24.9873 23.6619C25.3601 23.6619 25.7442 23.5953 26.1509 23.4622C26.5576 23.329 26.919 23.0848 27.2241 22.7518C27.4048 22.5409 27.5404 22.3078 27.6081 22.0414C27.6759 21.775 27.7211 21.4531 27.7211 21.0758V20.6096C27.3935 20.5319 27.0433 20.4653 26.6818 20.4209C26.3203 20.3765 25.9701 20.3543 25.6199 20.3543C24.863 20.3543 24.3095 20.4986 23.9367 20.7983C23.5639 21.0979 23.3832 21.5197 23.3832 22.0747C23.3832 22.5964 23.5187 22.9849 23.8012 23.2513C24.0723 23.5288 24.4677 23.6619 24.9873 23.6619ZM34.0586 24.8607C33.8552 24.8607 33.7197 24.8274 33.6293 24.7497C33.5389 24.6831 33.4598 24.5277 33.3921 24.3168L30.7373 15.7369C30.6696 15.5149 30.6357 15.3706 30.6357 15.2929C30.6357 15.1153 30.726 15.0154 30.9068 15.0154H32.0139C32.2285 15.0154 32.3754 15.0487 32.4544 15.1264C32.5448 15.193 32.6126 15.3484 32.6804 15.5593L34.5782 22.9072L36.3405 15.5593C36.397 15.3373 36.4648 15.193 36.5551 15.1264C36.6455 15.0598 36.8037 15.0154 37.007 15.0154H37.9108C38.1254 15.0154 38.2722 15.0487 38.3626 15.1264C38.453 15.193 38.5321 15.3484 38.5773 15.5593L40.3621 22.996L42.3165 15.5593C42.3843 15.3373 42.4633 15.193 42.5424 15.1264C42.6328 15.0598 42.7796 15.0154 42.983 15.0154H44.0336C44.2143 15.0154 44.316 15.1042 44.316 15.2929C44.316 15.3484 44.3047 15.4039 44.2934 15.4705C44.2821 15.5371 44.2595 15.6259 44.2143 15.748L41.4918 24.3279C41.424 24.5499 41.345 24.6942 41.2546 24.7608C41.1642 24.8274 41.0173 24.8718 40.8253 24.8718H39.8538C39.6392 24.8718 39.4923 24.8385 39.4019 24.7608C39.3115 24.6831 39.2325 24.5388 39.1873 24.3168L37.4363 17.1576L35.6966 24.3057C35.6401 24.5277 35.5723 24.672 35.482 24.7497C35.3916 24.8274 35.2334 24.8607 35.0301 24.8607H34.0586ZM48.5749 25.1604C47.9874 25.1604 47.4 25.0938 46.8352 24.9606C46.2703 24.8274 45.8298 24.6831 45.536 24.5166C45.3553 24.4167 45.231 24.3057 45.1858 24.2058C45.1407 24.1059 45.1181 23.9949 45.1181 23.895V23.329C45.1181 23.0959 45.2084 22.9849 45.3779 22.9849C45.4457 22.9849 45.5134 22.996 45.5812 23.0182C45.649 23.0404 45.7507 23.0848 45.8636 23.1292C46.2477 23.2957 46.6657 23.4289 47.1063 23.5177C47.5581 23.6064 47.9987 23.6508 48.4506 23.6508C49.1623 23.6508 49.7158 23.5288 50.0999 23.2846C50.484 23.0404 50.6873 22.6852 50.6873 22.2301C50.6873 21.9193 50.5857 21.664 50.3823 21.4531C50.179 21.2422 49.7949 21.0536 49.2414 20.876L47.6033 20.3765C46.7787 20.1212 46.1687 19.7438 45.7959 19.2443C45.4231 18.7559 45.231 18.2121 45.231 17.6349C45.231 17.1687 45.3327 16.758 45.536 16.4028C45.7394 16.0477 46.0105 15.7369 46.3494 15.4927C46.6883 15.2374 47.0724 15.0487 47.5243 14.9155C47.9761 14.7823 48.4506 14.7268 48.9476 14.7268C49.1962 14.7268 49.456 14.7379 49.7045 14.7712C49.9644 14.8045 50.2016 14.8489 50.4388 14.8933C50.6647 14.9488 50.8794 15.0043 51.0827 15.0709C51.2861 15.1375 51.4442 15.2041 51.5572 15.2707C51.7153 15.3595 51.8283 15.4483 51.8961 15.5482C51.9639 15.637 51.9978 15.7591 51.9978 15.9145V16.4361C51.9978 16.6692 51.9074 16.7913 51.7379 16.7913C51.6476 16.7913 51.5007 16.7469 51.3087 16.6581C50.6647 16.3695 49.9418 16.2252 49.1397 16.2252C48.4958 16.2252 47.9874 16.3251 47.6372 16.536C47.287 16.7469 47.1063 17.0688 47.1063 17.5239C47.1063 17.8347 47.2192 18.1011 47.4452 18.312C47.6711 18.5229 48.0891 18.7337 48.6878 18.9224L50.292 19.4219C51.1053 19.6772 51.6927 20.0324 52.0429 20.4875C52.3931 20.9426 52.5626 21.4642 52.5626 22.0414C52.5626 22.5187 52.4609 22.9516 52.2689 23.329C52.0655 23.7063 51.7944 24.0393 51.4442 24.3057C51.094 24.5832 50.676 24.783 50.1903 24.9273C49.6819 25.0827 49.151 25.1604 48.5749 25.1604Z" fill="#9A9DA3"/>
<path fill-rule="evenodd" clip-rule="evenodd" d="M50.7081 30.5548C46.9915 33.252 41.5916 34.6839 36.9487 34.6839C30.4418 34.6839 24.5788 32.3197 20.1505 28.3904C19.8003 28.0796 20.1166 27.6578 20.5346 27.902C25.3244 30.6325 31.2326 32.2864 37.3441 32.2864C41.4674 32.2864 45.9974 31.4428 50.1659 29.7113C50.7872 29.4338 51.3181 30.1108 50.7081 30.5548Z" fill="#9A9DA3"/>
<path fill-rule="evenodd" clip-rule="evenodd" d="M52.2573 28.8233C51.7829 28.2239 49.1168 28.5347 47.9081 28.679C47.5466 28.7234 47.4901 28.4126 47.8177 28.1795C49.9415 26.7144 53.4322 27.1361 53.8389 27.6245C54.2455 28.124 53.7259 31.5538 51.7377 33.1965C51.4327 33.4518 51.1389 33.3186 51.2745 32.9856C51.7264 31.8868 52.7318 29.4115 52.2573 28.8233Z" fill="#9A9DA3"/>
<path d="M70.3928 31.439L70.268 29.992C68.8377 31.1396 67.3407 31.7134 65.7773 31.7134C64.6297 31.7134 63.7149 31.3891 63.033 30.7404C62.3677 30.0751 62.035 29.1936 62.035 28.0959C62.035 26.8817 62.4508 25.9254 63.2825 25.2268C64.1141 24.5283 65.2451 24.179 66.6754 24.179C67.7898 24.179 68.979 24.3702 70.2431 24.7528V22.6571C70.2431 21.6425 70.0019 20.919 69.5196 20.4866C69.0372 20.0375 68.2389 19.813 67.1245 19.813C65.7939 19.813 64.3719 20.0791 62.8583 20.6113V19.4388C63.4904 19.156 64.2056 18.9315 65.0039 18.7652C65.8023 18.5988 66.584 18.5157 67.3491 18.5157C68.8127 18.5157 69.8938 18.8234 70.5924 19.4388C71.3075 20.0542 71.6651 20.9856 71.6651 22.233V31.439H70.3928ZM65.9769 30.4161C66.6089 30.4161 67.2908 30.2914 68.0227 30.0419C68.7545 29.7757 69.4946 29.4098 70.2431 28.9441V25.8256C69.1287 25.5262 68.0476 25.3765 66.9998 25.3765C64.6713 25.3765 63.507 26.2746 63.507 28.0709C63.507 28.836 63.7149 29.4182 64.1307 29.8173C64.5465 30.2165 65.1619 30.4161 65.9769 30.4161Z" fill="#9A9DA3"/>
<path d="M84.8582 31.0149C83.827 31.4806 82.7875 31.7134 81.7396 31.7134C79.8103 31.7134 78.3467 31.1645 77.3487 30.0668C76.3508 28.9524 75.8518 27.3225 75.8518 25.1769C75.8518 23.048 76.3591 21.4263 77.3737 20.312C78.3882 19.181 79.8602 18.6155 81.7895 18.6155C82.8207 18.6155 83.7937 18.8151 84.7085 19.2142V20.3868C83.7937 20.0874 82.8457 19.9377 81.8644 19.9377C80.2843 19.9377 79.1367 20.3452 78.4215 21.1602C77.7229 21.9586 77.3737 23.2476 77.3737 25.0272V25.3266C77.3737 27.0564 77.7313 28.3371 78.4464 29.1687C79.1616 29.9837 80.2843 30.3911 81.8145 30.3911C82.7293 30.3911 83.7438 30.2082 84.8582 29.8423V31.0149Z" fill="#9A9DA3"/>
<path d="M95.1413 31.1645C94.4427 31.4473 93.6028 31.5887 92.6215 31.5887C91.6402 31.5887 90.8917 31.3309 90.3761 30.8153C89.8605 30.283 89.6027 29.5179 89.6027 28.52V20.1373H87.2575V19.1394L89.6526 18.9148L89.8522 15.2474H91.0248V18.8899H95.0165V20.1373H91.0248V28.4452C91.0248 29.1271 91.1661 29.6094 91.4489 29.8922C91.7483 30.1749 92.2389 30.3163 92.9208 30.3163C93.6028 30.3163 94.3429 30.2165 95.1413 30.0169V31.1645Z" fill="#9A9DA3"/>
<path d="M98.8911 31.439V18.8899H100.313V31.439H98.8911ZM99.6146 16.1955C99.282 16.1955 99.0159 16.0957 98.8163 15.8961C98.6333 15.6965 98.5419 15.4304 98.5419 15.0977C98.5419 14.7651 98.6333 14.499 98.8163 14.2994C99.0159 14.0998 99.282 14 99.6146 14C99.9473 14 100.205 14.0998 100.388 14.2994C100.588 14.499 100.687 14.7651 100.687 15.0977C100.687 15.4304 100.588 15.6965 100.388 15.8961C100.205 16.0957 99.9473 16.1955 99.6146 16.1955Z" fill="#9A9DA3"/>
<path d="M108.664 31.439L103.599 18.8899H105.146L109.437 29.967L113.728 18.8899H115.225L110.16 31.439H108.664Z" fill="#9A9DA3"/>
<path d="M125.986 31.439L125.861 29.992C124.431 31.1396 122.934 31.7134 121.37 31.7134C120.223 31.7134 119.308 31.3891 118.626 30.7404C117.961 30.0751 117.628 29.1936 117.628 28.0959C117.628 26.8817 118.044 25.9254 118.876 25.2268C119.707 24.5283 120.838 24.179 122.269 24.179C123.383 24.179 124.572 24.3702 125.836 24.7528V22.6571C125.836 21.6425 125.595 20.919 125.113 20.4866C124.63 20.0375 123.832 19.813 122.718 19.813C121.387 19.813 119.965 20.0791 118.452 20.6113V19.4388C119.084 19.156 119.799 18.9315 120.597 18.7652C121.395 18.5988 122.177 18.5157 122.942 18.5157C124.406 18.5157 125.487 18.8234 126.186 19.4388C126.901 20.0542 127.258 20.9856 127.258 22.233V31.439H125.986ZM121.57 30.4161C122.202 30.4161 122.884 30.2914 123.616 30.0419C124.348 29.7757 125.088 29.4098 125.836 28.9441V25.8256C124.722 25.5262 123.641 25.3765 122.593 25.3765C120.264 25.3765 119.1 26.2746 119.1 28.0709C119.1 28.836 119.308 29.4182 119.724 29.8173C120.14 30.2165 120.755 30.4161 121.57 30.4161Z" fill="#9A9DA3"/>
<path d="M138.48 31.1645C137.782 31.4473 136.942 31.5887 135.961 31.5887C134.979 31.5887 134.231 31.3309 133.715 30.8153C133.2 30.283 132.942 29.5179 132.942 28.52V20.1373H130.597V19.1394L132.992 18.9148L133.191 15.2474H134.364V18.8899H138.356V20.1373H134.364V28.4452C134.364 29.1271 134.505 29.6094 134.788 29.8922C135.087 30.1749 135.578 30.3163 136.26 30.3163C136.942 30.3163 137.682 30.2165 138.48 30.0169V31.1645Z" fill="#9A9DA3"/>
<path d="M142.685 25.4015C142.702 27.1478 143.084 28.4368 143.833 29.2685C144.581 30.1001 145.737 30.5159 147.301 30.5159C148.731 30.5159 150.103 30.2248 151.417 29.6427V30.8153C150.236 31.4806 148.831 31.8132 147.201 31.8132C145.222 31.8132 143.733 31.256 142.735 30.1417C141.737 29.0107 141.238 27.3391 141.238 25.127C141.238 23.0313 141.737 21.4097 142.735 20.2621C143.75 19.0978 145.163 18.5157 146.976 18.5157C148.49 18.5157 149.646 18.9481 150.444 19.813C151.259 20.6779 151.667 21.917 151.667 23.5303C151.667 24.2788 151.617 24.9025 151.517 25.4015H142.685ZM146.852 19.788C144.224 19.788 142.835 21.2766 142.685 24.2538H150.27C150.286 24.021 150.295 23.7465 150.295 23.4305C150.295 22.233 150.003 21.3265 149.421 20.7111C148.839 20.0957 147.983 19.788 146.852 19.788Z" fill="#9A9DA3"/>
</svg>
