<svg width="85" height="26" viewBox="0 0 85 26" fill="none" xmlns="http://www.w3.org/2000/svg">
<g clip-path="url(#clip0_1463_1947)">
<mask id="mask0_1463_1947" style="mask-type:luminance" maskUnits="userSpaceOnUse" x="0" y="0" width="85" height="26">
<path d="M0.65625 0H84.3438V26H0.65625V0Z" fill="white"/>
</mask>
<g mask="url(#mask0_1463_1947)">
<path d="M33.4585 13.0601C34.0882 12.7026 34.5919 12.2574 34.9592 11.7325C35.3765 11.1392 35.5973 10.4299 35.5905 9.70452C35.5905 8.3054 35.0673 7.21258 34.0362 6.45777C33.0173 5.71027 31.6158 5.33246 29.8689 5.33246H23.5525V21.5426H30.1216C31.9611 21.5426 33.4341 21.1153 34.4993 20.2711C35.5726 19.4196 36.1178 18.2276 36.1178 16.727C36.1178 15.8129 35.8611 15.0272 35.3565 14.391C34.9039 13.8223 34.2661 13.3754 33.4585 13.0601ZM26.9707 8.25421H29.5943C30.4173 8.25421 31.0381 8.41346 31.4419 8.7279C31.84 9.03665 32.035 9.44452 32.035 9.97102C32.035 10.4991 31.84 10.9265 31.4419 11.2377C31.0381 11.5513 30.4173 11.7106 29.5943 11.7106H26.9707V8.25421ZM31.9099 18.0716C31.4549 18.4365 30.7602 18.6209 29.8461 18.6209H26.9707V14.6543H29.8469C30.7602 14.6543 31.4557 14.833 31.9123 15.1824C32.3649 15.5318 32.5843 15.9925 32.5843 16.5929C32.5843 17.225 32.3641 17.7085 31.9099 18.0716ZM40.7369 9.42096H37.2951V21.5418H40.7361L40.7369 9.42096ZM74.7246 11.245C74.1736 10.5918 73.4793 10.0746 72.6958 9.73377C71.8946 9.37871 70.9936 9.19833 70.0194 9.19833C68.825 9.19833 67.7476 9.46971 66.8157 10.0043C65.8941 10.5289 65.1329 11.2946 64.6138 12.2192C64.0849 13.1536 63.8176 14.2358 63.8176 15.4375C63.8176 16.64 64.0776 17.7938 64.5895 18.742C65.0896 19.6788 65.852 20.4496 66.7832 20.9601C67.7233 21.4793 68.8275 21.7425 70.0657 21.7425C71.5851 21.7425 72.8745 21.3606 73.9007 20.6058C74.8879 19.8803 75.5663 18.8573 75.9368 17.5752H72.4723C72.2903 18.0115 72.0336 18.3828 71.6655 18.6445C71.2308 18.9532 70.6694 19.1092 69.9966 19.1092C69.4133 19.1092 68.9128 18.9678 68.5098 18.6883C68.106 18.408 67.7972 17.9953 67.5941 17.4582C67.4643 17.1053 67.3773 16.7382 67.3349 16.3646H75.997L76.014 16.2573C76.1684 15.2799 76.1294 14.3536 75.897 13.5046C75.6748 12.675 75.2747 11.9037 74.7246 11.2442V11.245ZM67.3901 14.1213C67.4427 13.8702 67.5147 13.6235 67.6055 13.3835C67.8167 12.8391 68.1214 12.4207 68.5122 12.1412C68.9014 11.8617 69.3856 11.7211 69.9511 11.7211C70.6605 11.7211 71.243 11.9511 71.6818 12.4036C72.0986 12.8343 72.3342 13.4225 72.3846 14.1205L67.3901 14.1213ZM40.8084 5.33246H37.2236V8.25421H40.8084V5.33246ZM59.6519 10.7965C59.2639 10.3229 58.7791 9.93784 58.23 9.66715C57.5881 9.35596 56.8366 9.19833 55.9965 9.19833C54.9686 9.19833 54.0464 9.45265 53.2583 9.95152C52.4702 10.4512 51.8446 11.1565 51.4018 12.047C50.959 12.9358 50.7347 13.9791 50.7347 15.1491C50.7347 16.3191 50.9703 17.3014 51.4367 18.196C51.9039 19.0938 52.5514 19.8088 53.3615 20.3223C54.1724 20.8366 55.0978 21.0982 56.1118 21.0982C56.8772 21.0982 57.5768 20.9325 58.1894 20.605C58.6616 20.3562 59.0746 20.0084 59.4 19.5853V20.9048C59.4 21.723 59.1855 22.3511 58.763 22.7695C58.3389 23.188 57.6938 23.3992 56.8455 23.3992C56.1143 23.3992 55.5398 23.2335 55.1376 22.906C54.8086 22.6379 54.521 22.2869 54.4543 21.5426H51.1361C51.167 22.5843 51.4725 23.2855 51.9047 23.9005C52.3881 24.5887 53.069 25.1274 53.9303 25.4995C54.7818 25.8668 55.7714 26.0536 56.8683 26.0536C58.711 26.0536 60.1776 25.5905 61.2273 24.6781C62.2836 23.7608 62.8182 22.4762 62.8182 20.861V9.42096H59.6527L59.6519 10.7965ZM59.0466 16.7595C58.8471 17.189 58.5292 17.5526 58.1301 17.8076C57.7401 18.0513 57.2688 18.1765 56.731 18.1765C55.951 18.1765 55.3456 17.9108 54.8785 17.3656C54.4121 16.822 54.1756 16.0761 54.1756 15.1483C54.1756 14.2204 54.4113 13.4745 54.8776 12.931C55.34 12.3931 55.9631 12.1201 56.7301 12.1201C57.498 12.1201 58.1756 12.3963 58.6525 12.9431C59.1335 13.4948 59.3773 14.244 59.3773 15.1694C59.3773 15.7698 59.2659 16.3036 59.0466 16.7586V16.7595ZM84.3454 12.3208V9.42177H81.8616V5.33246H78.4434V9.42177H76.322V12.3208H78.4434V17.0658C78.4434 19.704 78.9634 21.6426 82.202 21.5825L84.2357 21.5418V18.8256H83.2266C81.7868 18.8256 81.8673 17.9863 81.8673 16.4271L81.8616 12.3216L84.3454 12.3208ZM49.8986 12.3208V9.42177H47.4148V5.33246H43.9966V9.42177H41.8744V12.3208H43.995V17.0658C43.995 19.704 44.515 21.6426 47.7545 21.5825L49.7873 21.5418V18.8256H48.7806C47.3409 18.8256 47.4205 17.9863 47.4205 16.4271L47.4148 12.3216L49.8986 12.3208ZM9.23626 8.25421H14.3981L19.6785 13.5005C20.0222 13.8418 20.0238 14.3975 19.6818 14.7404L12.9096 21.5467H7.59338L9.20132 19.9835L15.1033 14.1188L9.27607 8.2534" fill="#9A9DA3"/>
<path d="M11.3569 14.105H6.19669L0.915445 8.85869C0.833719 8.77755 0.768797 8.68109 0.724395 8.57482C0.679993 8.46856 0.656982 8.35459 0.65668 8.23943C0.656378 8.12426 0.678791 8.01017 0.722636 7.90367C0.76648 7.79718 0.830896 7.70038 0.912195 7.61881L7.68438 0.8125H13.0014L11.3943 2.37575L5.49145 8.24038L11.3195 14.105" fill="#9A9DA3"/>
</g>
</g>
<defs>
<clipPath id="clip0_1463_1947">
<rect width="83.6875" height="26" fill="white" transform="translate(0.65625)"/>
</clipPath>
</defs>
</svg>
