<svg width="370" height="371" viewBox="0 0 370 371" fill="none" xmlns="http://www.w3.org/2000/svg">
    <g style="mix-blend-mode:plus-lighter">
        <mask id="path-1-outside-1_88_1083" maskUnits="userSpaceOnUse" x="-24" y="-42" width="324"
            height="446" fill="black">
            <rect fill="white" x="-24" y="-42" width="324" height="446" />
            <path
                d="M298.083 111.686C272.859 80.8982 241.7 65.5044 204.607 65.5044C188.286 65.5044 173.077 68.4718 158.982 74.4068C145.257 80.3418 133.387 88.5023 123.372 98.8885C113.357 108.904 105.382 120.959 99.4467 135.055C93.8827 149.15 91.1007 164.359 91.1007 180.68C91.1007 197.372 93.8827 212.766 99.4467 226.861C105.382 240.957 113.357 253.198 123.372 263.584C133.758 273.97 145.814 282.131 159.538 288.065C173.263 294 188.1 296.968 204.05 296.968C238.918 296.968 270.262 282.131 298.083 252.456V381.541L286.955 385.436C270.262 391.371 254.683 395.637 240.217 398.233C225.75 401.201 211.469 402.684 197.374 402.684C168.441 402.684 140.621 397.306 113.913 386.549C87.5768 375.421 64.2079 360.027 43.8065 340.367C23.776 320.337 7.64028 296.782 -4.60058 269.704C-16.8414 242.255 -22.9619 212.395 -22.9619 180.123C-22.9619 147.852 -17.0269 118.363 -5.15698 91.6553C7.08388 64.577 23.2196 41.3936 43.2501 22.1049C63.6515 2.44538 87.2059 -12.763 113.913 -23.5201C140.621 -34.6481 168.626 -40.2122 197.93 -40.2122C214.622 -40.2122 230.943 -38.3575 246.893 -34.6481C263.215 -31.3097 280.278 -25.9312 298.083 -18.5125V111.686Z" />
        </mask>
        <path
            d="M298.083 111.686C272.859 80.8982 241.7 65.5044 204.607 65.5044C188.286 65.5044 173.077 68.4718 158.982 74.4068C145.257 80.3418 133.387 88.5023 123.372 98.8885C113.357 108.904 105.382 120.959 99.4467 135.055C93.8827 149.15 91.1007 164.359 91.1007 180.68C91.1007 197.372 93.8827 212.766 99.4467 226.861C105.382 240.957 113.357 253.198 123.372 263.584C133.758 273.97 145.814 282.131 159.538 288.065C173.263 294 188.1 296.968 204.05 296.968C238.918 296.968 270.262 282.131 298.083 252.456V381.541L286.955 385.436C270.262 391.371 254.683 395.637 240.217 398.233C225.75 401.201 211.469 402.684 197.374 402.684C168.441 402.684 140.621 397.306 113.913 386.549C87.5768 375.421 64.2079 360.027 43.8065 340.367C23.776 320.337 7.64028 296.782 -4.60058 269.704C-16.8414 242.255 -22.9619 212.395 -22.9619 180.123C-22.9619 147.852 -17.0269 118.363 -5.15698 91.6553C7.08388 64.577 23.2196 41.3936 43.2501 22.1049C63.6515 2.44538 87.2059 -12.763 113.913 -23.5201C140.621 -34.6481 168.626 -40.2122 197.93 -40.2122C214.622 -40.2122 230.943 -38.3575 246.893 -34.6481C263.215 -31.3097 280.278 -25.9312 298.083 -18.5125V111.686Z"
            fill="#124DAF" fill-opacity="0.2" />
        <path
            d="M298.083 111.686L297.309 112.32L299.083 114.484V111.686H298.083ZM158.982 74.4068L158.594 73.4851L158.585 73.489L158.982 74.4068ZM123.372 98.8885L124.079 99.5956L124.086 99.5892L124.092 99.5827L123.372 98.8885ZM99.4467 135.055L98.5251 134.667L98.5207 134.677L98.5166 134.688L99.4467 135.055ZM99.4467 226.861L98.5166 227.228L98.5207 227.239L98.5251 227.249L99.4467 226.861ZM123.372 263.584L122.652 264.278L122.659 264.284L122.665 264.291L123.372 263.584ZM159.538 288.065L159.141 288.983L159.538 288.065ZM298.083 252.456H299.083V249.927L297.353 251.772L298.083 252.456ZM298.083 381.541L298.413 382.485L299.083 382.251V381.541H298.083ZM286.954 385.436L286.624 384.492L286.619 384.494L286.954 385.436ZM240.217 398.233L240.04 397.249L240.028 397.251L240.016 397.254L240.217 398.233ZM113.913 386.549L113.524 387.47L113.532 387.473L113.54 387.476L113.913 386.549ZM43.8065 340.367L43.0994 341.074L43.1059 341.081L43.1126 341.087L43.8065 340.367ZM-4.60058 269.704L-5.5139 270.111L-5.5118 270.116L-4.60058 269.704ZM-5.15698 91.6553L-6.06822 91.2433L-6.07079 91.2491L-5.15698 91.6553ZM43.2501 22.1049L43.9437 22.8253L43.9439 22.825L43.2501 22.1049ZM113.913 -23.5201L114.287 -22.5925L114.298 -22.597L113.913 -23.5201ZM246.893 -34.6481L246.667 -33.6741L246.68 -33.6711L246.693 -33.6684L246.893 -34.6481ZM298.083 -18.5125H299.083V-19.1791L298.467 -19.4355L298.083 -18.5125ZM298.856 111.052C273.458 80.0519 242.024 64.5044 204.607 64.5044V66.5044C241.377 66.5044 272.259 81.7444 297.309 112.32L298.856 111.052ZM204.607 64.5044C188.162 64.5044 172.82 67.4951 158.594 73.4852L159.37 75.3285C173.335 69.4486 188.41 66.5044 204.607 66.5044V64.5044ZM158.585 73.489C144.743 79.4745 132.763 87.7095 122.652 98.1944L124.092 99.5827C134.012 89.2951 145.771 81.2091 159.379 75.3247L158.585 73.489ZM122.665 98.1814C112.551 108.295 104.506 120.461 98.5251 134.667L100.368 135.443C106.257 121.457 114.162 109.512 124.079 99.5956L122.665 98.1814ZM98.5166 134.688C92.903 148.909 90.1007 164.243 90.1007 180.68H92.1007C92.1007 164.475 94.8625 149.392 100.377 135.422L98.5166 134.688ZM90.1007 180.68C90.1007 197.485 92.9019 213.005 98.5166 227.228L100.377 226.494C94.8635 212.527 92.1007 197.259 92.1007 180.68H90.1007ZM98.5251 227.249C104.505 241.451 112.546 253.798 122.652 264.278L124.092 262.89C114.167 252.597 106.258 240.462 100.368 226.473L98.5251 227.249ZM122.665 264.291C133.142 274.768 145.303 282.999 159.141 288.983L159.935 287.148C146.324 281.262 134.375 273.172 124.079 262.877L122.665 264.291ZM159.141 288.983C172.999 294.976 187.973 297.968 204.05 297.968V295.968C188.228 295.968 173.526 293.025 159.935 287.148L159.141 288.983ZM204.05 297.968C239.241 297.968 270.837 282.979 298.812 253.14L297.353 251.772C269.688 281.282 238.595 295.968 204.05 295.968V297.968ZM297.083 252.456V381.541H299.083V252.456H297.083ZM297.752 380.597L286.624 384.492L287.285 386.38L298.413 382.485L297.752 380.597ZM286.619 384.494C269.969 390.414 254.443 394.664 240.04 397.249L240.393 399.217C254.923 396.61 270.556 392.328 287.29 386.378L286.619 384.494ZM240.016 397.254C225.612 400.208 211.399 401.684 197.374 401.684V403.684C211.54 403.684 225.888 402.193 240.418 399.213L240.016 397.254ZM197.374 401.684C168.568 401.684 140.875 396.33 114.287 385.621L113.54 387.476C140.366 398.282 168.313 403.684 197.374 403.684V401.684ZM114.302 385.628C88.078 374.547 64.8126 359.221 44.5004 339.647L43.1126 341.087C63.6032 360.833 87.0756 376.295 113.524 387.47L114.302 385.628ZM44.5136 339.66C24.5725 319.719 8.50429 296.266 -3.68937 269.292L-5.5118 270.116C6.77628 297.299 22.9794 320.955 43.0994 341.074L44.5136 339.66ZM-3.68728 269.297C-15.8669 241.985 -21.9619 212.265 -21.9619 180.123H-23.9619C-23.9619 212.525 -17.816 242.525 -5.51389 270.111L-3.68728 269.297ZM-21.9619 180.123C-21.9619 147.977 -16.0506 118.628 -4.24317 92.0614L-6.07079 91.2491C-18.0032 118.097 -23.9619 147.727 -23.9619 180.123H-21.9619ZM-4.24576 92.0672C7.94643 65.0966 24.0108 42.0199 43.9437 22.8253L42.5564 21.3846C22.4283 40.7672 6.22132 64.0574 -6.0682 91.2434L-4.24576 92.0672ZM43.9439 22.825C64.2514 3.25602 87.6966 -11.8825 114.287 -22.5925L113.54 -24.4477C86.7152 -13.6434 63.0516 1.63474 42.5562 21.3849L43.9439 22.825ZM114.298 -22.597C140.882 -33.6736 168.756 -39.2122 197.93 -39.2122V-41.2122C168.496 -41.2122 140.359 -35.6227 113.529 -24.4432L114.298 -22.597ZM197.93 -39.2122C214.547 -39.2122 230.792 -37.3659 246.667 -33.6741L247.12 -35.6222C231.094 -39.3491 214.697 -41.2122 197.93 -41.2122V-39.2122ZM246.693 -33.6684C262.942 -30.3447 279.943 -24.9871 297.698 -17.5894L298.467 -19.4355C280.612 -26.8752 263.487 -32.2747 247.094 -35.6279L246.693 -33.6684ZM297.083 -18.5125V111.686H299.083V-18.5125H297.083Z"
            fill="url(#paint0_linear_88_1083)" mask="url(#path-1-outside-1_88_1083)" />
    </g>
    <defs>
        <linearGradient id="paint0_linear_88_1083" x1="138" y1="-104" x2="138" y2="453"
            gradientUnits="userSpaceOnUse">
            <stop stop-color="#008EFC" />
            <stop offset="1" stop-color="#1C1D26" />
        </linearGradient>
    </defs>
</svg>
    