<svg width="154" height="26" viewBox="0 0 154 26" fill="none" xmlns="http://www.w3.org/2000/svg">
<path fill-rule="evenodd" clip-rule="evenodd" d="M22.8712 15.5278C22.4156 15.7986 21.8688 15.8889 21.5043 15.6181C20.9576 15.3472 20.6842 14.625 20.6842 13.7222V10.8333C20.6842 9.47917 20.1374 8.48611 19.2262 8.21528C17.677 7.76389 16.4924 9.65972 16.0368 10.3819L13.303 14.8056V9.38889C13.303 8.125 12.8474 7.40278 12.1184 7.22222C11.5716 7.04167 10.8426 7.13194 10.1136 8.21528L4.00819 17.9653C3.18806 16.4306 2.73243 14.7153 2.73243 12.9097C2.73243 7.04167 7.47096 2.25694 13.303 2.25694C19.135 2.25694 23.8736 7.13195 23.8736 13C23.9647 14.1736 23.6002 15.0764 22.8712 15.5278ZM26.2429 13C26.2429 5.77778 20.4108 0 13.303 0C6.1952 0 0.363159 5.86806 0.363159 13C0.363159 20.1319 6.1952 26 13.303 26C16.5835 26 19.6818 24.7361 22.1422 22.4792C22.5978 22.0278 22.6889 21.3056 22.2333 20.7639C21.7777 20.3125 21.0487 20.2222 20.5931 20.6736C18.6794 22.4792 16.0368 23.5625 13.3941 23.5625C10.2959 23.5625 7.47096 22.2083 5.4662 20.0417L11.0249 11.1944V15.2569C11.0249 17.2431 11.7539 17.875 12.3917 18.0556C13.0296 18.2361 14.032 18.1458 15.0344 16.4306L18.0415 11.5556C18.1327 11.375 18.2238 11.2847 18.3149 11.1042V13.5417C18.3149 15.3472 19.0439 16.7917 20.3197 17.5139C21.5043 18.1458 22.9623 18.1458 24.147 17.3333C25.605 16.7014 26.334 14.9861 26.2429 13ZM44.2857 8.57639C44.5591 8.75694 44.8325 9.20833 44.8325 9.56944C44.8325 10.2014 44.2857 10.6528 43.739 10.6528C43.5567 10.6528 43.4656 10.6528 43.2834 10.5625C42.5543 10.0208 41.7342 9.75 40.823 9.75C38.6359 9.75 37.1779 11.4653 37.1779 13.6319C37.1779 15.7986 38.6359 17.5139 40.823 17.5139C41.9165 17.5139 42.8277 17.0625 43.5567 16.4306C43.739 16.3403 44.0124 16.25 44.1946 16.25C44.7414 16.25 45.197 16.7014 45.197 17.3333C45.197 17.6944 44.9236 18.0556 44.6502 18.2361C43.6479 19.1389 42.1898 19.6806 40.7318 19.6806C37.4513 19.6806 34.7175 16.9722 34.7175 13.6319C34.7175 10.2917 37.4513 7.58333 40.7318 7.58333C42.1898 7.49306 43.3745 7.85417 44.2857 8.57639ZM50.3912 11.1042C52.6693 11.1042 54.5829 13 54.5829 15.3472C54.5829 17.6944 52.6693 19.6806 50.3912 19.6806C48.0219 19.6806 46.0171 17.6944 46.0171 15.3472C46.0171 13 48.0219 11.1042 50.3912 11.1042ZM50.3912 17.5139C51.3935 17.5139 52.2137 16.6111 52.2137 15.3472C52.2137 14.0833 51.3935 13.2708 50.3912 13.2708C49.2976 13.2708 48.3864 14.0833 48.3864 15.3472C48.3864 16.6111 49.2976 17.5139 50.3912 17.5139ZM55.9498 18.3264V12.3681C55.9498 11.7361 56.4966 11.1944 57.1345 11.1944C57.7723 11.1944 58.3191 11.7361 58.3191 12.3681V18.3264C58.3191 18.9583 57.7723 19.5 57.1345 19.5C56.4966 19.5 55.9498 18.9583 55.9498 18.3264ZM55.7676 8.9375C55.7676 8.125 56.4054 7.58333 57.1345 7.58333C57.8635 7.58333 58.5013 8.21528 58.5013 8.9375C58.5013 9.65972 57.8635 10.2917 57.1345 10.2917C56.4054 10.2917 55.7676 9.65972 55.7676 8.9375ZM62.7842 15.0764V18.3264C62.7842 18.9583 62.2375 19.5 61.5996 19.5C60.9617 19.5 60.415 18.9583 60.415 18.3264V12.0972C60.415 11.5556 60.8706 11.1944 61.3262 11.1944C61.7819 11.1944 62.2375 11.6458 62.2375 12.0972C63.1487 11.1944 64.06 11.1042 64.789 11.1042C67.1583 11.1042 68.1607 12.8194 68.1607 14.8056V18.3264C68.1607 18.9583 67.6139 19.5 66.976 19.5C66.3382 19.5 65.7914 18.9583 65.7914 18.3264V15.0764C65.7914 14.0833 65.7003 13.1806 64.1511 13.1806C63.2399 13.1806 62.7842 14.0833 62.7842 15.0764ZM75.9063 16.3403C75.633 16.3403 75.4507 16.25 75.2685 16.0694L72.5347 13.0903V18.3264C72.5347 18.9583 71.9879 19.5 71.3501 19.5C70.7122 19.5 70.1654 18.9583 70.1654 18.3264V7.94445C70.2566 7.76389 70.4388 7.67361 70.6211 7.67361C70.8033 7.67361 70.9856 7.85417 71.0767 7.94445L75.4507 12.8194C75.5418 13 75.7241 13.0903 75.8152 13.0903C75.9063 13.0903 76.0886 13 76.1797 12.8194L80.5537 7.94445C80.6449 7.85417 80.8271 7.67361 81.0094 7.67361C81.1916 7.67361 81.3739 7.76389 81.465 7.94445V18.3264C81.465 18.9583 80.9183 19.5 80.2804 19.5C79.6425 19.5 79.0957 18.9583 79.0957 18.3264V13.0903L76.362 16.0694C76.2708 16.1597 76.0886 16.3403 75.9063 16.3403ZM87.1148 17.5139C88.2083 17.5139 89.0284 16.6111 89.0284 15.3472C89.0284 14.0833 88.1172 13.2708 87.1148 13.2708C86.1124 13.2708 85.2923 14.0833 85.2923 15.3472C85.2923 16.5208 86.1124 17.5139 87.1148 17.5139ZM89.6663 18.5972V18.3264C89.2107 19.2292 87.7527 19.5903 86.8414 19.5903C84.6544 19.5903 83.0141 17.6042 83.0141 15.2569C83.0141 12.9097 84.6544 11.0139 86.9325 11.0139C87.2971 11.0139 88.6639 11.1042 89.6663 12.2778V12.0069C89.6663 11.4653 90.0308 11.1042 90.5776 11.1042C91.0332 11.1042 91.4888 11.5556 91.4888 12.0069V18.5069C91.4888 19.0486 91.0332 19.4097 90.5776 19.4097C90.0308 19.5 89.6663 19.1389 89.6663 18.5972ZM97.9587 13.1806H97.6854C96.2274 13.2708 95.954 14.0833 95.954 15.0764V18.3264C95.954 18.9583 95.4072 19.5 94.7694 19.5C94.1315 19.5 93.5847 18.9583 93.5847 18.3264V12.0972C93.5847 11.5556 94.0404 11.1944 94.496 11.1944C94.9516 11.1944 95.4072 11.6458 95.4072 12.0972C96.3185 11.2847 96.9564 11.1042 97.6854 11.1042H97.9587C98.5055 11.1042 99.0523 11.5556 99.0523 12.1875C98.9611 12.7292 98.5055 13.1806 97.9587 13.1806ZM106.98 17.7847C107.071 17.9653 107.162 18.1458 107.162 18.3264C107.162 18.9583 106.616 19.5 105.978 19.5C105.522 19.5 105.249 19.2292 104.975 18.8681L102.242 15.7986V18.3264C102.242 18.9583 101.695 19.5 101.057 19.5C100.419 19.5 99.8724 18.9583 99.8724 18.3264V8.84722C99.8724 8.21528 100.419 7.67361 101.057 7.67361C101.695 7.67361 102.242 8.21528 102.242 8.84722V14.8056L104.975 11.8264C105.249 11.5556 105.613 11.1944 105.978 11.1944C106.525 11.1944 107.071 11.7361 107.071 12.3681C107.071 12.5486 107.071 12.7292 106.889 12.9097L104.793 15.2569L106.98 17.7847ZM111.536 13.2708C110.899 13.2708 109.896 13.6319 109.896 14.625H113.268C113.268 13.5417 112.174 13.2708 111.536 13.2708ZM114.635 16.0694H109.896C109.896 17.4236 111.263 17.6944 111.81 17.6944C112.265 17.6944 112.903 17.6042 113.359 17.4236C113.541 17.3333 113.723 17.2431 113.997 17.2431C114.544 17.2431 114.908 17.6944 114.908 18.2361C114.908 18.5972 114.635 18.8681 114.361 19.0486C113.632 19.5903 112.721 19.6806 111.81 19.6806C109.441 19.6806 107.436 18.4167 107.436 15.4375C107.436 13.0903 108.62 11.1042 111.445 11.1042C113.723 11.1042 115.455 12.5486 115.455 15.1667C115.546 15.6181 115.182 16.0694 114.635 16.0694ZM121.196 19.5903H120.558C118.735 19.5903 117.733 18.7778 117.733 16.0694V13.1806H117.095C116.548 13.1806 116.002 12.6389 116.002 12.0972C116.002 11.4653 116.457 11.0139 117.095 11.0139H117.733V8.84722C117.733 8.21528 118.28 7.67361 118.918 7.67361C119.556 7.67361 120.102 8.21528 120.102 8.84722V11.0139H121.105C121.651 11.0139 122.198 11.4653 122.198 12.0972C122.198 12.6389 121.743 13.1806 121.105 13.1806H120.102V15.6181C120.102 17.2431 120.193 17.5139 120.922 17.5139H121.287C121.834 17.5139 122.289 17.9653 122.289 18.5972C122.198 19.1389 121.743 19.5903 121.196 19.5903ZM132.495 8.57639C132.769 8.75694 133.042 9.20833 133.042 9.56944C133.042 10.2014 132.495 10.6528 131.949 10.6528C131.766 10.6528 131.675 10.6528 131.493 10.5625C130.764 10.0208 129.944 9.75 129.033 9.75C126.846 9.75 125.388 11.4653 125.388 13.6319C125.388 15.7986 126.846 17.5139 129.033 17.5139C130.126 17.5139 131.037 17.0625 131.766 16.4306C131.949 16.3403 132.222 16.25 132.404 16.25C132.951 16.25 133.407 16.7014 133.407 17.3333C133.407 17.6944 133.133 18.0556 132.86 18.2361C131.857 19.1389 130.399 19.6806 128.941 19.6806C125.661 19.6806 122.927 16.9722 122.927 13.6319C122.927 10.2917 125.661 7.58333 128.941 7.58333C130.399 7.49306 131.584 7.85417 132.495 8.57639ZM138.51 17.5139C139.603 17.5139 140.423 16.6111 140.423 15.3472C140.423 14.0833 139.512 13.2708 138.51 13.2708C137.507 13.2708 136.687 14.0833 136.687 15.3472C136.596 16.5208 137.416 17.5139 138.51 17.5139ZM140.97 18.5972V18.3264C140.514 19.2292 139.056 19.5903 138.145 19.5903C135.958 19.5903 134.318 17.6042 134.318 15.2569C134.318 12.9097 135.958 11.0139 138.236 11.0139C138.601 11.0139 139.968 11.1042 140.97 12.2778V12.0069C140.97 11.4653 141.335 11.1042 141.881 11.1042C142.337 11.1042 142.793 11.5556 142.793 12.0069V18.5069C142.793 19.0486 142.337 19.4097 141.881 19.4097C141.335 19.5 140.97 19.1389 140.97 18.5972ZM149.262 17.5139C150.265 17.5139 151.085 16.5208 151.085 15.3472C151.085 14.0833 150.265 13.2708 149.262 13.2708C148.26 13.2708 147.349 14.0833 147.349 15.3472C147.258 16.6111 148.169 17.5139 149.262 17.5139ZM147.258 18.9583V21.9375C147.258 22.5694 146.711 23.1111 146.073 23.1111C145.435 23.1111 144.888 22.5694 144.888 21.9375V12.0972C144.888 11.5556 145.344 11.1944 145.8 11.1944C146.255 11.1944 146.711 11.6458 146.711 12.1875C147.622 11.2847 148.625 11.1042 149.445 11.1042C151.723 11.1042 153.363 13 153.363 15.3472C153.363 17.6944 151.723 19.6806 149.536 19.6806C148.898 19.5903 147.896 19.4097 147.258 18.9583Z" fill="#9A9DA3"/>
</svg>
