<svg width="120" height="34" viewBox="0 0 120 34" fill="none" xmlns="http://www.w3.org/2000/svg">
    <path fill-rule="evenodd" clip-rule="evenodd" d="M16.4731 0.0430028C25.5914 0.0430028 32.9462 7.39785 32.9462 16.5591C32.9462 25.5914 25.5054 33.0323 16.3441 32.9892C7.48387 32.9032 0.0429993 25.5914 0.0429993 16.5161C0.0429993 7.39785 7.35484 -7.99734e-06 16.4731 0.0430028ZM3.95698 25.1183C3.95698 25.2903 4.043 25.3763 4.12902 25.5054C4.77419 26.4086 5.50538 27.2688 6.36559 28C6.75269 28.3441 7.13978 28.6882 7.56989 28.9892C8.77419 29.7634 10.0215 30.4946 11.3978 30.9677C12.5161 31.3548 13.6774 31.6559 14.8387 31.7849C15.7419 31.871 16.6882 31.914 17.5914 31.7849C18.1075 31.6989 18.6667 31.6989 19.1828 31.4839C19.2688 31.5269 19.3118 31.4409 19.3548 31.4409C20.4301 31.2688 21.4624 30.9247 22.4946 30.4946C25.8495 29.0323 28.3871 26.6667 30.0215 23.3979C31.4839 20.5161 31.957 17.4624 31.4839 14.2796C31.0538 11.2258 29.7634 8.55914 27.6989 6.32258C24.9462 3.18279 21.4194 1.54838 17.2473 1.29031C15.3978 1.16128 13.5484 1.41935 11.7849 2.0215C8.90322 2.96773 6.53763 4.60215 4.60215 6.96774C2.40859 9.67742 1.33332 12.7742 1.20429 16.2151C1.16128 17.0753 1.2473 17.8925 1.37633 18.7527C1.6344 20.6882 2.27956 22.5376 3.2688 24.2151C3.52687 24.4731 3.69892 24.8172 3.95698 25.1183Z" fill="white"/>
    <path fill-rule="evenodd" clip-rule="evenodd" d="M19.1828 31.4408C18.6666 31.6989 18.1075 31.6989 17.5914 31.7419C16.6882 31.871 15.7419 31.8279 14.8387 31.7419C13.6774 31.6129 12.5161 31.3118 11.3979 30.9247C10.0215 30.4516 8.77415 29.7204 7.56985 28.9462C7.13974 28.6452 6.75265 28.3011 6.36555 27.957C5.50534 27.2258 4.77415 26.3656 4.12901 25.4624C4.04299 25.3333 3.95697 25.2043 3.95697 25.0753C4.98925 22.7527 5.37635 20.3011 5.5914 17.8064C5.67742 16.6452 5.72039 15.4839 5.93544 14.3226C6.1505 12.9892 6.66667 11.7849 7.61291 10.7527C8.47312 9.84945 9.54839 9.2473 10.7097 8.81719C11.6559 8.4301 12.6452 8.08601 13.7204 8.043C14.7097 7.99999 15.6559 8.12902 16.6021 8.34408C18.0215 8.68816 19.4409 9.11827 20.7742 9.76343C21.8495 10.1935 22.9677 10.6236 24.086 10.9677C25.2473 11.3118 26.4086 11.6989 27.3978 12.4301C28.6451 13.3763 28.9892 14.5806 28.4301 16.043C28.086 16.9462 27.4409 17.6344 26.7957 18.3226C25.6344 19.5269 24.3871 20.6452 23.2688 21.8925C21.9785 23.3978 20.8172 24.9462 20 26.7527C19.3118 28.2581 18.9247 29.8064 19.1828 31.4408ZM27.4839 17.2903C27.4409 17.2903 27.3978 17.2903 27.3548 17.3333C27.3118 17.3333 27.2688 17.3763 27.2688 17.4193C27.2688 17.4193 27.2688 17.4193 27.2688 17.4624C27.3118 17.4624 27.3548 17.4193 27.3548 17.3763L27.4839 17.2903C27.5699 17.2903 27.5269 17.2903 27.4839 17.2903ZM14.3226 9.80644C12.6882 9.80644 11.3548 11.1398 11.3548 12.7312C11.3548 14.3656 12.6881 15.6559 14.2795 15.6989C15.9139 15.6989 17.2043 14.3656 17.2473 12.7312C17.2473 11.0968 15.957 9.80644 14.3226 9.80644ZM16.7312 18.8387C16.9892 19.2258 17.4624 19.5699 18.0215 19.7419C19.1398 20.129 20.258 20.129 21.3763 19.914C23.3548 19.5269 25.2043 18.8387 26.8817 17.7204C26.9677 17.6344 27.1397 17.6344 27.1828 17.4624C27.0967 17.4193 27.0538 17.4624 27.0108 17.5054C26.4516 17.8495 25.8494 18.1075 25.2473 18.3656C23.6989 19.0107 22.0645 19.4409 20.3441 19.5269C19.0968 19.6129 17.8495 19.5269 16.7312 18.8387ZM24.8602 16.3011C25.2043 16.3011 25.5054 16 25.5054 15.6129C25.5054 15.2688 25.2043 14.9677 24.8172 15.0107C24.4731 15.0107 24.2151 15.3118 24.2151 15.6559C24.2151 16.043 24.4731 16.3011 24.8602 16.3011Z" fill="white"/>
    <path fill-rule="evenodd" clip-rule="evenodd" d="M16.5591 8.34409C15.6129 8.17205 14.6667 8.00001 13.6774 8.04302C12.6022 8.08603 11.6559 8.43011 10.6667 8.81721C9.50538 9.24732 8.43011 9.84947 7.5699 10.7527C6.62366 11.7419 6.10753 12.9462 5.89248 14.3226C5.72043 15.4839 5.67742 16.6452 5.54839 17.8065C5.33334 20.3011 4.94624 22.7957 3.91398 25.0753C3.61291 24.8172 3.44086 24.4301 3.26882 24.129C2.27957 22.4516 1.63441 20.6022 1.37635 18.6667C1.24731 17.8065 1.16129 16.9893 1.2043 16.129C1.33334 12.6882 2.4086 9.5914 4.60215 6.88173C6.49463 4.51613 8.90323 2.88171 11.7849 1.93547C13.5484 1.37633 15.3979 1.11827 17.2473 1.20429C21.3763 1.46236 24.9032 3.13977 27.6989 6.19355C29.7634 8.47312 31.0108 11.1398 31.4839 14.1505C31.957 17.3333 31.4839 20.3871 30.0215 23.2688C28.3871 26.5376 25.8495 28.9032 22.4946 30.3656C21.5054 30.7957 20.4731 31.1398 19.3548 31.3118C19.2688 31.3118 19.2258 31.4409 19.1828 31.3548C18.9247 29.7204 19.3118 28.172 19.957 26.6667C20.7742 24.8602 21.9355 23.3118 23.2258 21.8065C24.3011 20.5591 25.5484 19.3979 26.7527 18.2366C27.4409 17.5484 28.043 16.8602 28.3871 15.957C28.9893 14.4946 28.6452 13.2903 27.3548 12.3441C26.3656 11.6129 25.2043 11.2258 24.043 10.8817C22.9247 10.5376 21.8065 10.1075 20.7312 9.67742C20.5161 8.94624 20 8.47312 19.3118 8.21506C18.4086 8.00001 17.5054 8.08603 16.5591 8.34409ZM30.6237 17.5054H30.7097C30.8817 16.9032 30.8817 16.2581 30.8817 15.6129C30.8817 14.8817 30.7957 14.1505 30.6667 13.4194C30.1936 11.0538 29.1183 8.98925 27.4409 7.22581C26.4086 6.15054 25.2473 5.24732 24.086 4.30106C23.0538 3.44085 21.9355 2.79569 20.6452 2.4516C19.3979 2.15053 18.1936 1.97848 16.9032 2.19354C16.8172 2.19354 16.7312 2.19354 16.7312 2.27956C16.7312 2.36558 16.8172 2.36558 16.9032 2.36558C18.7957 2.70967 20.6022 3.31182 22.3656 3.99999C24.086 4.68818 25.5484 5.67742 26.6237 7.22581C27.3548 8.30108 28.043 9.41936 28.6022 10.6237C29.3333 12.2581 29.8925 13.9355 30.2366 15.6559C30.4086 16.3441 30.5376 16.9032 30.6237 17.5054Z" fill="#A8A8A8"/>
    <path fill-rule="evenodd" clip-rule="evenodd" d="M14.3226 9.80646C15.957 9.80646 17.2473 11.1398 17.2473 12.7312C17.2473 14.3656 15.914 15.6559 14.2796 15.6989C12.6452 15.6989 11.3548 14.3656 11.3548 12.7312C11.3548 11.0968 12.6882 9.80646 14.3226 9.80646ZM16.3871 12.7742C16.3871 11.6129 15.4839 10.7097 14.3226 10.7097C13.1613 10.7097 12.2581 11.6129 12.2581 12.7742C12.2581 13.8925 13.1613 14.8387 14.2796 14.8387H14.3226C15.4409 14.8387 16.3441 13.9355 16.3871 12.7742Z" fill="#A8A8A8"/>
    <path fill-rule="evenodd" clip-rule="evenodd" d="M16.7312 18.8387C17.8495 19.5269 19.0968 19.6129 20.3441 19.5699C22.0645 19.4839 23.6989 19.0968 25.2473 18.4086C25.8495 18.1505 26.4516 17.8925 27.0108 17.5484C27.0538 17.5054 27.0968 17.4624 27.1828 17.5054C27.1398 17.6344 27.0108 17.6774 26.8817 17.7634C25.2043 18.8817 23.3548 19.5699 21.3763 19.957C20.2581 20.172 19.0968 20.172 18.0215 19.7849C17.4624 19.5699 16.9462 19.2258 16.7312 18.8387ZM16.5591 8.34407C17.4624 8.08601 18.4086 7.99999 19.3118 8.34407C20 8.60214 20.5161 9.07526 20.7312 9.80644C19.4409 9.11827 18.0215 8.68816 16.5591 8.34407Z" fill="#D5D5D5"/>
    <path fill-rule="evenodd" clip-rule="evenodd" d="M24.8602 16.3011C24.5161 16.3011 24.2151 16 24.2151 15.6559C24.2151 15.3118 24.4731 15.0107 24.8172 15.0107C25.1613 15.0107 25.4624 15.2688 25.5054 15.6129C25.4624 16 25.2043 16.3011 24.8602 16.3011Z" fill="#E4E4E4"/>
    <path fill-rule="evenodd" clip-rule="evenodd" d="M27.3548 17.3763C27.3548 17.4193 27.3118 17.4624 27.2688 17.4624C27.2688 17.3763 27.3118 17.3333 27.3548 17.3763ZM27.4839 17.2903L27.3548 17.3763L27.3118 17.3333C27.3978 17.2903 27.4409 17.2903 27.4839 17.2903Z" fill="white"/>
    <path fill-rule="evenodd" clip-rule="evenodd" d="M30.6237 17.5054C30.4946 16.9032 30.3656 16.3441 30.2796 15.7419C29.9355 13.9785 29.3333 12.3011 28.6452 10.7097C28.129 9.50539 27.4409 8.38711 26.6667 7.31184C25.5914 5.76345 24.172 4.7742 22.4086 4.08602C20.6022 3.39785 18.8387 2.75269 16.9462 2.45161C16.8602 2.45161 16.7742 2.45161 16.7742 2.36559C16.7742 2.27957 16.8602 2.27958 16.9462 2.27958C18.1936 2.06452 19.4409 2.19355 20.6882 2.53764C21.9785 2.88173 23.0968 3.56989 24.129 4.38711C25.2903 5.33334 26.4516 6.23657 27.4839 7.31184C29.1613 9.07528 30.2366 11.1398 30.7097 13.5054C30.8387 14.2366 30.9247 14.9678 30.9247 15.6989C30.9247 16.3011 30.9247 16.9462 30.7527 17.5914L30.6237 17.5054Z" fill="#FFFEFC"/>
    <path fill-rule="evenodd" clip-rule="evenodd" d="M16.3871 12.7742C16.3871 13.8925 15.4839 14.8387 14.3656 14.8387H14.3226C13.2043 14.8387 12.2581 13.9355 12.2581 12.7742V12.7312C12.2581 11.5699 13.2043 10.6667 14.3226 10.6667C15.4409 10.6667 16.3871 11.6129 16.3871 12.7742Z" fill="#DDDDDD"/>
    <path fill-rule="evenodd" clip-rule="evenodd" d="M81.6344 21.0753C81.5914 21.1183 81.5484 21.1183 81.5054 21.1613C80.172 22.6667 78.4946 22.9247 76.6882 22.4516C74.4516 21.8925 73.2473 20.3011 72.7742 18.1075C72.4731 16.6882 72.5591 15.2688 73.1183 13.9355C74.1075 11.5699 76.3441 10.2796 78.8817 10.6237C80.043 10.7957 81.1183 11.1828 81.9355 12.043C82.5376 12.6882 82.8817 13.4624 83.0107 14.3226C83.0538 14.4946 82.9677 14.5376 82.8387 14.5376C82.3226 14.5376 81.7634 14.5376 81.2473 14.5376C81.1183 14.5376 81.0753 14.4946 81.0323 14.3656C80.7742 13.2043 80 12.5591 78.8817 12.3441C77.5914 12.086 76.4731 12.3441 75.6129 13.3764C74.8387 14.3226 74.6237 15.4839 74.6237 16.6882C74.6237 17.5914 74.7957 18.4516 75.1828 19.2258C76.086 20.9462 78.3226 21.5484 80 20.5591C80.9462 20 81.2473 19.0968 81.3333 18.0645C81.3333 17.8495 81.2043 17.8925 81.0753 17.8925C80.215 17.8925 79.3978 17.8925 78.5376 17.8925C78.2796 17.8925 78.2366 17.8065 78.2366 17.5914C78.2366 17.2473 78.2366 16.9462 78.2366 16.6022C78.2366 16.3871 78.3226 16.3441 78.4946 16.3441C79.957 16.3441 81.4624 16.3441 82.9247 16.3441C83.0968 16.3441 83.1828 16.3871 83.1828 16.5591C83.1828 18.4516 83.1828 20.3011 83.1828 22.1936C83.1828 22.3656 83.1398 22.4086 82.9677 22.4086C82.6236 22.4086 82.1935 22.4946 81.9355 22.3656C81.6774 22.1936 81.7634 21.7634 81.6774 21.4194C81.6774 21.2903 81.6344 21.1613 81.6344 21.0753ZM47.5699 14.5376C47.3118 14.5376 47.0538 14.5376 46.7527 14.5376C46.5806 14.5376 46.5376 14.4946 46.4946 14.3226C46.1505 13.1183 45.3763 12.3871 44.129 12.2581C42.7527 12.129 41.5914 12.5591 40.9032 13.8065C39.871 15.6989 39.914 17.6344 40.9462 19.4839C41.6344 20.7312 43.1398 21.2903 44.5161 20.9032C45.7204 20.5591 46.2796 19.6559 46.5376 18.4946C46.6236 18.0215 46.6236 18.0215 47.0968 18.0215C47.5269 18.0215 47.957 18.0215 48.3871 18.0215C48.5591 18.0215 48.6021 18.0645 48.5591 18.2366C48.3441 20.5161 46.8817 22.2796 44.6452 22.6237C41.4193 23.1398 38.7527 21.1613 38.2366 17.9355C38.0215 16.5161 38.1505 15.1398 38.7097 13.8065C39.6989 11.5699 41.8925 10.3656 44.3441 10.6667C45.5054 10.8387 46.5806 11.2258 47.4409 12.086C48.043 12.7312 48.3871 13.5054 48.5161 14.3656C48.5591 14.5376 48.5161 14.5807 48.3441 14.5807C48.129 14.4946 47.828 14.5376 47.5699 14.5376ZM110.882 22.3656C110.151 22.3656 109.505 22.3656 108.817 22.3656C108.645 22.3656 108.559 22.2796 108.516 22.1505C107.785 20.9462 107.011 19.785 106.28 18.5807C106.151 18.3656 106.108 18.3656 105.892 18.5376C105.161 19.0538 104.86 19.7419 104.989 20.6452C105.075 21.1183 104.989 21.6344 104.989 22.1505C104.989 22.3656 104.903 22.4086 104.731 22.4086C104.301 22.4086 103.871 22.4086 103.441 22.4086C103.226 22.4086 103.183 22.3226 103.183 22.1075C103.183 20.3441 103.183 18.5807 103.183 16.7742C103.183 14.9247 103.183 13.0753 103.183 11.1828C103.183 10.8817 103.269 10.7957 103.57 10.8387C103.957 10.8817 104.344 10.8817 104.731 10.8387C104.989 10.8387 105.032 10.9247 105.032 11.1398C105.032 13.0753 105.032 15.0108 105.032 16.9462V17.2903L105.118 17.3333C105.247 17.1613 105.419 16.9893 105.548 16.8172C106.409 15.914 107.269 15.0538 108.172 14.1505C108.258 14.0645 108.344 13.9785 108.473 13.9785C109.161 13.9785 109.849 13.9785 110.538 13.9785C110.538 14.1075 110.409 14.1505 110.366 14.2366C109.462 15.0968 108.602 15.957 107.656 16.8172C107.441 16.9893 107.441 17.1183 107.613 17.3764C108.645 18.9247 109.677 20.4731 110.71 22.0215C110.71 22.1505 110.796 22.2366 110.882 22.3656ZM89.6344 18.6667C88.6882 18.6667 87.7849 18.6667 86.8387 18.6667C86.6236 18.6667 86.5806 18.7097 86.5806 18.9247C86.6667 20.6022 88.215 21.6344 89.7634 20.9893C90.1935 20.8172 90.5376 20.4731 90.7097 20C90.7957 19.785 90.9247 19.7419 91.0968 19.7419C91.4839 19.7419 91.914 19.7419 92.3011 19.7419C92.5161 19.7419 92.5591 19.785 92.4731 20C92 21.5054 90.9677 22.3226 89.4193 22.5376C88.043 22.7527 86.7527 22.4516 85.7634 21.4194C85.0753 20.6882 84.7742 19.7419 84.6882 18.7527C84.6021 17.5484 84.7742 16.3871 85.5484 15.3548C86.5376 14.0645 87.871 13.5914 89.4193 13.8495C91.0538 14.1505 92.043 15.1828 92.5161 16.7312C92.6882 17.2903 92.7312 17.8495 92.6882 18.4516C92.6882 18.6667 92.6021 18.7097 92.4301 18.7097C91.5269 18.6667 90.5806 18.6667 89.6344 18.6667ZM88.7312 17.4624C89.3763 17.4624 90.0215 17.4624 90.6237 17.4624C90.8387 17.4624 90.8817 17.4194 90.8387 17.2043C90.6667 16.086 89.8495 15.2688 88.7742 15.2258C87.6559 15.1828 86.7527 15.957 86.5806 17.1183C86.5376 17.3333 86.5806 17.4194 86.8387 17.4194C87.4839 17.4624 88.086 17.4624 88.7312 17.4624ZM49.8064 18.1936C49.8064 17.6774 49.8925 17.1183 50.0215 16.6022C50.5806 14.7957 52.172 13.6774 54.1505 13.8065C55.6559 13.8925 56.9032 14.4086 57.6344 15.7419C58.4946 17.3764 58.4946 19.0968 57.5914 20.6882C56.7742 22.1936 55.3548 22.6667 53.7204 22.5807C51.2688 22.4516 49.8064 20.7742 49.8064 18.1936ZM51.6559 18.1936C51.6559 18.9247 51.7849 19.5699 52.215 20.1721C52.9032 21.1613 54.2366 21.4624 55.2258 20.7742C55.4409 20.6022 55.6559 20.4301 55.828 20.2151C56.5591 19.1398 56.6021 17.3333 55.828 16.2151C54.9247 14.9247 53.0323 14.9247 52.172 16.2581C51.7849 16.8172 51.6559 17.5054 51.6559 18.1936ZM111.355 18.2366C111.355 17.0323 111.613 15.957 112.43 15.0538C113.247 14.1075 114.366 13.7634 115.57 13.7634C116.774 13.7634 117.892 14.1075 118.753 15.0538C119.656 16.086 119.871 17.3333 119.785 18.6667C119.742 19.1398 119.656 19.6129 119.484 20.043C118.839 21.7204 117.29 22.6667 115.312 22.5376C112.989 22.4086 111.527 20.9032 111.398 18.5807C111.398 18.4946 111.355 18.3226 111.355 18.2366ZM117.935 18.3226C117.935 17.4624 117.72 16.7312 117.419 16.2151C116.774 15.1828 115.398 14.9247 114.409 15.5699C114.151 15.7419 113.935 15.957 113.763 16.2151C113.032 17.2903 113.075 19.0968 113.763 20.129C114.452 21.1183 115.785 21.4194 116.774 20.7312C117.032 20.5591 117.204 20.3871 117.376 20.129C117.806 19.5699 117.935 18.8817 117.935 18.3226ZM65.3763 15.1828C65.8925 14.5376 66.4946 14.0645 67.3118 13.8495C68.043 13.6774 68.7742 13.7204 69.4624 14.0215C70.4946 14.4516 70.9247 15.3548 70.9677 16.4301C71.0107 18.3226 70.9677 20.2151 70.9677 22.1075C70.9677 22.3226 70.9247 22.3656 70.7097 22.3656C70.2796 22.3656 69.8495 22.3656 69.4193 22.3656C69.2043 22.3656 69.1183 22.3226 69.1183 22.0645C69.1183 20.4731 69.1183 18.8387 69.1183 17.2473C69.1183 16.9032 69.0753 16.5591 68.9892 16.2581C68.7312 15.3979 67.914 15.0538 66.9247 15.3118C66.0645 15.5699 65.5054 16.3441 65.5054 17.3333C65.5054 18.8817 65.5054 20.4731 65.5054 22.0215C65.5054 22.2796 65.4624 22.4086 65.1613 22.3656C64.7742 22.3226 64.3441 22.3226 63.957 22.3656C63.7419 22.3656 63.6559 22.3226 63.6559 22.0645C63.6559 20.8602 63.6559 19.6989 63.6559 18.4946C63.6559 17.1183 63.6559 15.7419 63.6559 14.3656C63.6559 14.0645 63.7419 13.9785 64.043 14.0215C64.4301 14.0645 64.7742 14.0215 65.1613 14.0215C65.3763 14.0215 65.4624 14.0645 65.4194 14.2796C65.3763 14.5807 65.3763 14.8817 65.3763 15.1828ZM100.645 16.8172C100.602 16.8172 100.559 16.8172 100.516 16.8172C100.043 16.8602 99.7419 16.8172 99.5269 16.2581C99.0107 14.9677 96.9462 14.9247 96.086 16.129C95.7849 16.5161 95.6559 16.9893 95.5699 17.5054C95.4839 18.3226 95.4839 19.1398 95.828 19.914C96.2581 20.8602 97.0322 21.2903 98.0215 21.1613C98.8387 21.0323 99.3978 20.5161 99.6129 19.6129C99.6559 19.3548 99.7849 19.2688 100.043 19.3118C100.473 19.3118 100.86 19.3118 101.29 19.3118C101.505 19.3118 101.548 19.3979 101.505 19.5699C101.075 21.6344 99.6129 22.7957 97.4624 22.6667C95.3118 22.5376 93.8925 21.1183 93.7204 18.9247C93.6344 17.9785 93.7204 17.0323 94.1075 16.129C94.7527 14.6237 96.215 13.7634 97.9355 13.8495C98.9677 13.8925 99.914 14.1505 100.688 14.8817C101.161 15.3548 101.419 15.957 101.548 16.6022C101.591 16.8172 101.505 16.9032 101.29 16.8602C101.118 16.8172 100.903 16.8172 100.645 16.8172ZM61.6344 18.2366C61.6344 19.4839 61.6344 20.7312 61.6344 21.9785C61.6344 22.3226 61.5484 22.4086 61.2473 22.3656C60.8602 22.3226 60.5161 22.3226 60.129 22.3656C59.871 22.3656 59.7849 22.3226 59.7849 22.0215C59.7849 19.785 59.7849 17.5484 59.7849 15.3118C59.7849 14.9677 59.7849 14.6237 59.7849 14.2796C59.7849 14.0645 59.828 14.0215 60.043 14.0215C60.4731 14.0215 60.9032 14.0215 61.3333 14.0215C61.5914 14.0215 61.6774 14.0645 61.6774 14.3656C61.6344 15.6559 61.6344 16.9462 61.6344 18.2366ZM60.7742 10.8387C61.0323 10.8817 61.4193 10.7097 61.5914 10.8817C61.7634 11.0538 61.6344 11.4409 61.6344 11.7419C61.6344 12 61.7634 12.3441 61.5914 12.5161C61.4193 12.6882 61.0753 12.5591 60.8172 12.5591C60.4731 12.5591 60.043 12.6882 59.828 12.5161C59.6559 12.3011 59.7849 11.871 59.7849 11.5699C59.7849 10.8387 59.7849 10.8387 60.5161 10.8387H60.7742Z" fill="#9A9DA3"/>
</svg>
