<svg width="24" height="25" viewBox="0 0 24 25" fill="none" xmlns="http://www.w3.org/2000/svg">
<path d="M20.3259 4.624C18.7727 3.90411 17.1119 3.38092 15.3756 3.08301C15.1623 3.46492 14.9132 3.97859 14.7415 4.38722C12.8957 4.11225 11.067 4.11225 9.25516 4.38722C9.08343 3.97859 8.82865 3.46492 8.6135 3.08301C6.87532 3.38092 5.21263 3.90603 3.6594 4.62782C0.526529 9.31757 -0.322741 13.8908 0.101895 18.3992C2.17978 19.9363 4.1935 20.8701 6.17324 21.4811C6.66205 20.8147 7.098 20.1063 7.47356 19.3596C6.75829 19.0904 6.07322 18.7582 5.4259 18.3724C5.59763 18.2464 5.76561 18.1146 5.9279 17.9791C9.87606 19.8084 14.1658 19.8084 18.0668 17.9791C18.231 18.1146 18.399 18.2464 18.5688 18.3724C17.9196 18.7601 17.2327 19.0923 16.5174 19.3616C16.893 20.1063 17.327 20.8166 17.8177 21.483C19.7994 20.872 21.8149 19.9382 23.8928 18.3992C24.3911 13.1729 23.0417 8.64159 20.3259 4.624ZM8.01145 15.6266C6.82625 15.6266 5.85429 14.5305 5.85429 13.1958C5.85429 11.861 6.80549 10.7631 8.01145 10.7631C9.21743 10.7631 10.1894 11.8591 10.1686 13.1958C10.1705 14.5305 9.21743 15.6266 8.01145 15.6266ZM15.9833 15.6266C14.7981 15.6266 13.8261 14.5305 13.8261 13.1958C13.8261 11.861 14.7773 10.7631 15.9833 10.7631C17.1892 10.7631 18.1612 11.8591 18.1404 13.1958C18.1404 14.5305 17.1892 15.6266 15.9833 15.6266Z" fill="#E8EAF6"/>
</svg>
