<svg width="370" height="371" viewBox="0 0 370 371" fill="none" xmlns="http://www.w3.org/2000/svg">
  <g style="mix-blend-mode:plus-lighter">
    <mask id="path-1-outside-1_535_249" maskUnits="userSpaceOnUse" x="-6" y="-30" width="371"
      height="422" fill="black">
      <rect fill="white" x="-6" y="-30" width="371" height="422" />
      <path
        d="M105.011 298.637H130.049C148.967 298.637 165.844 295.67 180.682 289.735C195.519 283.8 207.945 275.639 217.961 265.253C228.347 254.867 236.136 242.626 241.329 228.53C246.893 214.064 249.675 198.299 249.675 181.236C249.675 164.544 246.893 148.965 241.329 134.498C235.765 120.032 227.79 107.606 217.404 97.2193C207.389 86.8331 194.963 78.6726 180.125 72.7376C165.288 66.8026 148.596 63.8352 130.049 63.8352H105.011V298.637ZM-4.04418 -28.5277H157.313C185.875 -28.5277 212.582 -22.7782 237.435 -11.2792C262.658 0.219766 284.543 15.6136 303.09 34.9022C322.008 53.8199 336.845 76.076 347.602 101.671C358.359 126.894 363.738 153.416 363.738 181.236C363.738 208.685 358.359 235.207 347.602 260.802C337.216 286.025 322.564 308.281 303.647 327.57C285.1 346.859 263.215 362.253 237.991 373.752C213.138 385.251 186.246 391 157.313 391H-4.04418V-28.5277Z" />
    </mask>
    <path
      d="M105.011 298.637H130.049C148.967 298.637 165.844 295.67 180.682 289.735C195.519 283.8 207.945 275.639 217.961 265.253C228.347 254.867 236.136 242.626 241.329 228.53C246.893 214.064 249.675 198.299 249.675 181.236C249.675 164.544 246.893 148.965 241.329 134.498C235.765 120.032 227.79 107.606 217.404 97.2193C207.389 86.8331 194.963 78.6726 180.125 72.7376C165.288 66.8026 148.596 63.8352 130.049 63.8352H105.011V298.637ZM-4.04418 -28.5277H157.313C185.875 -28.5277 212.582 -22.7782 237.435 -11.2792C262.658 0.219766 284.543 15.6136 303.09 34.9022C322.008 53.8199 336.845 76.076 347.602 101.671C358.359 126.894 363.738 153.416 363.738 181.236C363.738 208.685 358.359 235.207 347.602 260.802C337.216 286.025 322.564 308.281 303.647 327.57C285.1 346.859 263.215 362.253 237.991 373.752C213.138 385.251 186.246 391 157.313 391H-4.04418V-28.5277Z"
      fill="#124DAF" fill-opacity="0.11" />
    <path
      d="M105.011 298.637H104.011V299.637H105.011V298.637ZM180.682 289.735L180.31 288.806L180.682 289.735ZM217.961 265.253L217.253 264.546L217.247 264.552L217.241 264.559L217.961 265.253ZM241.329 228.53L240.396 228.171L240.394 228.178L240.391 228.185L241.329 228.53ZM241.329 134.498L242.263 134.139L241.329 134.498ZM217.404 97.2193L216.684 97.9135L216.691 97.92L216.697 97.9264L217.404 97.2193ZM180.125 72.7376L180.497 71.8091L180.125 72.7376ZM105.011 63.8352V62.8352H104.011V63.8352H105.011ZM-4.04418 -28.5277V-29.5277H-5.04418V-28.5277H-4.04418ZM237.435 -11.2792L237.015 -10.3717L237.02 -10.3693L237.435 -11.2792ZM303.09 34.9022L302.369 35.5953L302.376 35.6024L302.383 35.6093L303.09 34.9022ZM347.602 101.671L346.68 102.058L346.683 102.063L347.602 101.671ZM347.602 260.802L346.68 260.414L346.678 260.421L347.602 260.802ZM303.647 327.57L302.933 326.87L302.926 326.877L303.647 327.57ZM237.991 373.752L237.576 372.842L237.571 372.844L237.991 373.752ZM-4.04418 391H-5.04418V392H-4.04418V391ZM105.011 299.637H130.049V297.637H105.011V299.637ZM130.049 299.637C149.071 299.637 166.078 296.653 181.053 290.663L180.31 288.806C165.61 294.686 148.862 297.637 130.049 297.637V299.637ZM181.053 290.663C196.008 284.681 208.557 276.446 218.68 265.947L217.241 264.559C207.334 274.833 195.03 282.918 180.31 288.806L181.053 290.663ZM218.668 265.96C229.159 255.469 237.026 243.104 242.268 228.876L240.391 228.185C235.247 242.148 227.535 254.264 217.253 264.546L218.668 265.96ZM242.263 228.889C247.875 214.297 250.676 198.41 250.676 181.236H248.676C248.676 198.189 245.912 213.831 240.396 228.171L242.263 228.889ZM250.676 181.236C250.676 164.431 247.874 148.729 242.263 134.139L240.396 134.857C245.913 149.201 248.676 164.657 248.676 181.236H250.676ZM242.263 134.139C236.651 119.55 228.602 107.003 218.111 96.5122L216.697 97.9264C226.979 108.208 234.879 120.514 240.396 134.857L242.263 134.139ZM218.124 96.5252C208 86.0266 195.451 77.791 180.497 71.8091L179.754 73.6661C194.474 79.5542 206.777 87.6396 216.684 97.9135L218.124 96.5252ZM180.497 71.8091C165.524 65.82 148.703 62.8352 130.049 62.8352V64.8352C148.489 64.8352 165.052 67.7853 179.754 73.6661L180.497 71.8091ZM130.049 62.8352H105.011V64.8352H130.049V62.8352ZM104.011 63.8352V298.637H106.011V63.8352H104.011ZM-4.04418 -27.5277H157.313V-29.5277H-4.04418V-27.5277ZM157.313 -27.5277C185.736 -27.5277 212.299 -21.8071 237.015 -10.3717L237.855 -12.1868C212.865 -23.7493 186.013 -29.5277 157.313 -29.5277V-27.5277ZM237.02 -10.3693C262.133 1.07927 283.913 16.4009 302.369 35.5953L303.811 34.2091C285.174 14.8263 263.184 -0.63974 237.849 -12.1891L237.02 -10.3693ZM302.383 35.6093C321.206 54.4319 335.972 76.5783 346.681 102.058L348.524 101.283C337.719 75.5737 322.81 53.2079 303.797 34.1951L302.383 35.6093ZM346.683 102.063C357.386 127.161 362.738 153.549 362.738 181.236H364.738C364.738 153.283 359.333 126.628 348.522 101.278L346.683 102.063ZM362.738 181.236C362.738 208.551 357.387 234.941 346.681 260.414L348.524 261.189C359.332 235.473 364.738 208.82 364.738 181.236H362.738ZM346.678 260.421C336.34 285.527 321.759 307.674 302.933 326.87L304.361 328.27C323.369 308.889 338.092 286.524 348.527 261.182L346.678 260.421ZM302.926 326.877C284.47 346.071 262.689 361.393 237.576 372.842L238.406 374.661C263.74 363.112 285.73 347.646 304.367 328.263L302.926 326.877ZM237.571 372.844C212.857 384.279 186.109 390 157.313 390V392C186.382 392 213.419 386.222 238.411 374.659L237.571 372.844ZM157.313 390H-4.04418V392H157.313V390ZM-3.04418 391V-28.5277H-5.04418V391H-3.04418Z"
      fill="url(#paint0_linear_535_249)" mask="url(#path-1-outside-1_535_249)" />
  </g>
  <defs>
    <linearGradient id="paint0_linear_535_249" x1="171" y1="-104" x2="171" y2="453"
      gradientUnits="userSpaceOnUse">
      <stop stop-color="#3200FC" />
      <stop offset="1" stop-color="#9396B4" />
    </linearGradient>
  </defs>
</svg>
  