<svg width="370" height="371" viewBox="0 0 370 371" fill="none" xmlns="http://www.w3.org/2000/svg">
    <g style="mix-blend-mode:plus-lighter">
        <mask id="path-1-outside-1_135_4292" maskUnits="userSpaceOnUse" x="-6" y="-30" width="242"
            height="422" fill="black">
            <rect fill="white" x="-6" y="-30" width="242" height="422" />
            <path
                d="M234.653 63.8352H105.011V133.942H227.419V226.305H105.011V298.637H234.653V391H-4.04418V-28.5277H234.653V63.8352Z" />
        </mask>
        <path
            d="M234.653 63.8352H105.011V133.942H227.419V226.305H105.011V298.637H234.653V391H-4.04418V-28.5277H234.653V63.8352Z"
            fill="#8899B6" fill-opacity="0.11" />
        <path
            d="M234.653 63.8352V64.8352H235.653V63.8352H234.653ZM105.011 63.8352V62.8352H104.011V63.8352H105.011ZM105.011 133.942H104.011V134.942H105.011V133.942ZM227.419 133.942H228.419V132.942H227.419V133.942ZM227.419 226.305V227.305H228.419V226.305H227.419ZM105.011 226.305V225.305H104.011V226.305H105.011ZM105.011 298.637H104.011V299.637H105.011V298.637ZM234.653 298.637H235.653V297.637H234.653V298.637ZM234.653 391V392H235.653V391H234.653ZM-4.04418 391H-5.04418V392H-4.04418V391ZM-4.04418 -28.5277V-29.5277H-5.04418V-28.5277H-4.04418ZM234.653 -28.5277H235.653V-29.5277H234.653V-28.5277ZM234.653 62.8352H105.011V64.8352H234.653V62.8352ZM104.011 63.8352V133.942H106.011V63.8352H104.011ZM105.011 134.942H227.419V132.942H105.011V134.942ZM226.419 133.942V226.305H228.419V133.942H226.419ZM227.419 225.305H105.011V227.305H227.419V225.305ZM104.011 226.305V298.637H106.011V226.305H104.011ZM105.011 299.637H234.653V297.637H105.011V299.637ZM233.653 298.637V391H235.653V298.637H233.653ZM234.653 390H-4.04418V392H234.653V390ZM-3.04418 391V-28.5277H-5.04418V391H-3.04418ZM-4.04418 -27.5277H234.653V-29.5277H-4.04418V-27.5277ZM233.653 -28.5277V63.8352H235.653V-28.5277H233.653Z"
            fill="url(#paint0_linear_135_4292)" mask="url(#path-1-outside-1_135_4292)" />
    </g>
    <defs>
        <linearGradient id="paint0_linear_135_4292" x1="111" y1="-104" x2="111" y2="453"
            gradientUnits="userSpaceOnUse">
            <stop stop-color="#363D42" />
            <stop offset="1" stop-color="#1C1D26" />
        </linearGradient>
    </defs>
</svg>
    