<svg width="165" height="32" viewBox="0 0 165 32" fill="none" xmlns="http://www.w3.org/2000/svg">
<g clip-path="url(#clip0_536_515)">
<path d="M1.19519 13.741C1.19519 9.67472 4.56682 6.37965 8.59057 6.37965C10.8106 6.37965 12.3923 7.26301 13.5856 8.41278L12.1703 9.82895C11.324 9.0157 10.1723 8.38473 8.59057 8.38473C5.66295 8.38473 3.37357 10.7684 3.37357 13.7269C3.37357 16.6855 5.66295 19.0692 8.59057 19.0692C10.4915 19.0692 11.5737 18.298 12.2675 17.5969C12.8363 17.022 13.211 16.1947 13.3497 15.073H8.59057V13.0679H15.2922C15.3616 13.4325 15.4032 13.8531 15.4032 14.3299C15.4032 15.8442 15.0008 17.7091 13.6827 19.0271C12.3923 20.3732 10.7551 21.0883 8.59057 21.0883C4.56682 21.0883 1.19519 17.7932 1.19519 13.741Z" fill="#9A9DA3"/>
<path d="M20.7973 11.6238C18.2026 11.6238 16.0936 13.6149 16.0936 16.3631C16.0936 19.0973 18.2026 21.1024 20.7973 21.1024C23.3919 21.1024 25.5009 19.0973 25.5009 16.3631C25.5009 13.6149 23.3919 11.6238 20.7973 11.6238ZM20.7973 19.2235C19.382 19.2235 18.1471 18.0457 18.1471 16.3491C18.1471 14.6385 19.3681 13.4747 20.7973 13.4747C22.2125 13.4747 23.4474 14.6385 23.4474 16.3491C23.4474 18.0457 22.2125 19.2235 20.7973 19.2235Z" fill="#9A9DA3"/>
<path d="M31.0707 11.6238C28.4761 11.6238 26.3671 13.6149 26.3671 16.3631C26.3671 19.0973 28.4761 21.1024 31.0707 21.1024C33.6653 21.1024 35.7743 19.0973 35.7743 16.3631C35.7743 13.6149 33.6653 11.6238 31.0707 11.6238ZM31.0707 19.2235C29.6554 19.2235 28.4206 18.0457 28.4206 16.3491C28.4206 14.6385 29.6416 13.4747 31.0707 13.4747C32.4998 13.4747 33.7208 14.6385 33.7208 16.3491C33.7208 18.0457 32.4859 19.2235 31.0707 19.2235Z" fill="#9A9DA3"/>
<path d="M43.6673 11.9043V12.6755H43.5979C43.1401 12.1146 42.2521 11.6098 41.1282 11.6098C38.7833 11.6098 36.6327 13.685 36.6327 16.3631C36.6327 19.0132 38.7833 21.0884 41.1282 21.0884C42.2521 21.0884 43.1401 20.5836 43.5979 20.0087H43.6673V20.6958C43.6673 22.5046 42.7099 23.4721 41.1698 23.4721C39.9072 23.4721 39.1302 22.5607 38.8111 21.7895L37.0212 22.5466C37.5346 23.8086 38.9082 25.351 41.1837 25.351C43.5979 25.351 45.6376 23.9208 45.6376 20.4154V11.9043H43.6673ZM41.3086 19.2235C39.8933 19.2235 38.7001 18.0177 38.7001 16.3631C38.7001 14.6946 39.8933 13.4747 41.3086 13.4747C42.7099 13.4747 43.8061 14.6946 43.8061 16.3631C43.8199 18.0317 42.7099 19.2235 41.3086 19.2235Z" fill="#9A9DA3"/>
<path d="M49.1042 20.808H47.0507V6.88458H49.1042V20.808Z" fill="#9A9DA3"/>
<path d="M54.7496 19.2235C53.6951 19.2235 52.9597 18.7328 52.4741 17.7933L58.7456 15.1713L58.5375 14.6385C58.1489 13.5728 56.9557 11.6238 54.5276 11.6238C52.1133 11.6238 50.1014 13.5448 50.1014 16.3631C50.1014 19.0132 52.0856 21.1024 54.7496 21.1024C56.9002 21.1024 58.1351 19.7704 58.6623 18.9992L57.0667 17.9195C56.5256 18.7047 55.8041 19.2235 54.7496 19.2235ZM54.5969 13.4467C55.4156 13.4467 56.1093 13.8533 56.3313 14.4562L52.1411 16.2089C52.0856 14.3861 53.5424 13.4467 54.5969 13.4467Z" fill="#9A9DA3"/>
<path d="M68.1235 7.75269C68.7249 7.75269 69.218 7.856 69.6029 8.06263L69.1519 9.53942C68.8632 9.39356 68.5385 9.32063 68.1777 9.32063C67.7687 9.32063 67.4319 9.46649 67.1673 9.7582C66.9148 10.0378 66.7885 10.4145 66.7885 10.8886V12.019H69.0978V13.5504H66.7885V20.9526H65.1287V13.5504H63.4689V12.019H65.1287V10.7245C65.1287 9.8372 65.4053 9.12008 65.9586 8.57312C66.5239 8.02616 67.2455 7.75269 68.1235 7.75269Z" fill="#9A9DA3"/>
<path d="M69.6366 16.486C69.6366 15.1125 70.0636 13.976 70.9175 13.0766C71.7835 12.1771 72.872 11.7274 74.183 11.7274C75.494 11.7274 76.5765 12.1771 77.4304 13.0766C78.2964 13.976 78.7294 15.1125 78.7294 16.486C78.7294 17.8716 78.2964 19.008 77.4304 19.8953C76.5765 20.7948 75.494 21.2445 74.183 21.2445C72.872 21.2445 71.7835 20.7948 70.9175 19.8953C70.0636 18.9959 69.6366 17.8594 69.6366 16.486ZM71.2964 16.486C71.2964 17.4462 71.573 18.2241 72.1263 18.8196C72.6796 19.4152 73.3651 19.713 74.183 19.713C75.0009 19.713 75.6865 19.4152 76.2397 18.8196C76.793 18.2241 77.0696 17.4462 77.0696 16.486C77.0696 15.5379 76.793 14.7661 76.2397 14.1705C75.6744 13.5628 74.9889 13.2589 74.183 13.2589C73.3772 13.2589 72.6916 13.5628 72.1263 14.1705C71.573 14.7661 71.2964 15.5379 71.2964 16.486Z" fill="#9A9DA3"/>
<path d="M81.7378 20.9524H80.078V12.0188H81.6656V13.4774H81.7378C81.9062 13.0033 82.249 12.6022 82.7662 12.274C83.2954 11.9337 83.8126 11.7635 84.3177 11.7635C84.7988 11.7635 85.2078 11.8365 85.5445 11.9823L85.0394 13.605C84.8349 13.5199 84.5102 13.4774 84.0651 13.4774C83.4397 13.4774 82.8925 13.7326 82.4234 14.2431C81.9663 14.7536 81.7378 15.3492 81.7378 16.0298V20.9524Z" fill="#9A9DA3"/>
<path d="M98.3479 17.4703C98.3479 18.6128 97.933 19.5305 97.1031 20.2233C96.2612 20.904 95.2388 21.2443 94.0361 21.2443C92.9656 21.2443 92.0214 20.9283 91.2036 20.2962C90.3857 19.6642 89.8204 18.8012 89.5077 17.7073L91.0953 17.051C91.2036 17.4399 91.3539 17.7924 91.5464 18.1084C91.7388 18.4244 91.9613 18.6979 92.2139 18.9289C92.4785 19.1476 92.7672 19.3239 93.0799 19.4576C93.3926 19.5791 93.7233 19.6399 94.0721 19.6399C94.8299 19.6399 95.4493 19.4454 95.9304 19.0565C96.4115 18.6554 96.6521 18.1266 96.6521 17.4703C96.6521 16.9233 96.4536 16.4554 96.0567 16.0664C95.6838 15.6896 94.9862 15.325 93.9639 14.9725C92.9295 14.5957 92.2861 14.3405 92.0335 14.2068C90.6623 13.5018 89.9768 12.4626 89.9768 11.0891C89.9768 10.1289 90.3556 9.30846 91.1134 8.6278C91.8831 7.94714 92.8273 7.60681 93.9459 7.60681C94.9321 7.60681 95.7861 7.86206 96.5077 8.37256C97.2294 8.8709 97.7105 9.49686 97.951 10.2504L96.3995 10.9068C96.2551 10.4206 95.9665 10.0195 95.5335 9.70349C95.1125 9.37531 94.5953 9.21122 93.9819 9.21122C93.3324 9.21122 92.7852 9.39354 92.3402 9.75818C91.8952 10.0985 91.6727 10.5422 91.6727 11.0891C91.6727 11.5388 91.847 11.9278 92.1958 12.256C92.5807 12.5841 93.4166 12.9731 94.7036 13.4228C96.0146 13.8725 96.9467 14.4256 97.5 15.0819C98.0653 15.7261 98.3479 16.5222 98.3479 17.4703Z" fill="#9A9DA3"/>
<path d="M103.101 21.0984C102.379 21.0984 101.778 20.8735 101.297 20.4238C100.827 19.9741 100.587 19.3481 100.575 18.5459V13.5503H99.0233V12.0188H100.575V9.28406H102.235V12.0188H104.4V13.5503H102.235V17.9989C102.235 18.5945 102.349 19.0017 102.577 19.2205C102.806 19.4271 103.065 19.5304 103.353 19.5304C103.486 19.5304 103.612 19.5183 103.732 19.4939C103.864 19.4575 103.985 19.4149 104.093 19.3663L104.616 20.8613C104.183 21.0194 103.678 21.0984 103.101 21.0984Z" fill="#9A9DA3"/>
<path d="M107.011 18.2177C107.011 18.6553 107.191 19.02 107.552 19.3117C107.925 19.6034 108.358 19.7492 108.851 19.7492C109.549 19.7492 110.168 19.4879 110.709 18.9653C111.263 18.4426 111.539 17.8288 111.539 17.1238C111.022 16.7106 110.3 16.5039 109.374 16.5039C108.701 16.5039 108.135 16.668 107.678 16.9962C107.233 17.3244 107.011 17.7316 107.011 18.2177ZM109.158 11.7272C110.385 11.7272 111.353 12.0614 112.062 12.7299C112.772 13.3863 113.127 14.2918 113.127 15.4465V20.9525H111.539V19.7128H111.467C110.781 20.7338 109.867 21.2442 108.725 21.2442C107.75 21.2442 106.933 20.9525 106.271 20.3691C105.622 19.7857 105.297 19.0564 105.297 18.1813C105.297 17.2575 105.64 16.5222 106.325 15.9752C107.023 15.4283 107.949 15.1548 109.104 15.1548C110.09 15.1548 110.902 15.3371 111.539 15.7017V15.3189C111.539 14.7354 111.311 14.2432 110.854 13.8421C110.397 13.4288 109.861 13.2222 109.248 13.2222C108.322 13.2222 107.588 13.6172 107.047 14.4073L105.586 13.4774C106.391 12.3106 107.582 11.7272 109.158 11.7272Z" fill="#9A9DA3"/>
<path d="M125.356 21.0984C124.634 21.0984 124.033 20.8735 123.551 20.4238C123.082 19.9741 122.842 19.3481 122.83 18.5459V13.5503H121.278V12.0188H122.83V9.28406H124.49V12.0188H126.655V13.5503H124.49V17.9989C124.49 18.5945 124.604 19.0017 124.832 19.2205C125.061 19.4271 125.32 19.5304 125.608 19.5304C125.74 19.5304 125.867 19.5183 125.987 19.4939C126.119 19.4575 126.24 19.4149 126.348 19.3663L126.871 20.8613C126.438 21.0194 125.933 21.0984 125.356 21.0984ZM115 12.0188H116.588V13.4774H116.66C117.153 12.3349 118.169 11.7636 119.709 11.7636L120.051 11.8001V13.5503L119.312 13.4774C118.542 13.4774 117.905 13.7205 117.399 14.2067C116.906 14.6807 116.66 15.2884 116.66 16.0299V20.9525H115V12.0188Z" fill="#9A9DA3"/>
<path d="M136.006 20.9526H134.418V19.7128H134.346C134.093 20.1504 133.702 20.515 133.173 20.8067C132.656 21.0984 132.115 21.2443 131.55 21.2443C130.467 21.2443 129.631 20.9343 129.042 20.3145C128.464 19.6824 128.176 18.7891 128.176 17.6344V12.0189H129.836V17.525C129.872 18.9835 130.599 19.7128 132.019 19.7128C132.68 19.7128 133.233 19.4454 133.678 18.9106C134.123 18.3636 134.346 17.7134 134.346 16.9598V12.0189H136.006V20.9526Z" fill="#9A9DA3"/>
<path d="M142.371 19.713C143.165 19.713 143.832 19.4091 144.373 18.8014C144.915 18.2058 145.185 17.434 145.185 16.486C145.185 15.55 144.915 14.7782 144.373 14.1705C143.832 13.5628 143.165 13.2589 142.371 13.2589C141.565 13.2589 140.891 13.5628 140.35 14.1705C139.821 14.7782 139.556 15.55 139.556 16.486C139.556 17.434 139.821 18.2119 140.35 18.8196C140.891 19.4152 141.565 19.713 142.371 19.713ZM142.641 21.2445C141.992 21.2445 141.396 21.1047 140.855 20.8252C140.326 20.5456 139.917 20.1749 139.628 19.713H139.556L139.628 20.9528V24.8909H137.969V12.0191H139.556V13.2589H139.628C139.917 12.797 140.326 12.4263 140.855 12.1468C141.396 11.8672 141.992 11.7274 142.641 11.7274C143.808 11.7274 144.794 12.1893 145.6 13.113C146.43 14.049 146.845 15.1733 146.845 16.486C146.845 17.8108 146.43 18.9351 145.6 19.8589C144.794 20.7826 143.808 21.2445 142.641 21.2445Z" fill="#9A9DA3"/>
<path d="M155.03 18.4732C155.03 19.2511 154.693 19.9075 154.02 20.4423C153.346 20.9771 152.498 21.2445 151.476 21.2445C150.586 21.2445 149.804 21.0136 149.131 20.5517C148.457 20.0776 147.976 19.4578 147.687 18.692L149.167 18.0539C149.383 18.5887 149.696 19.008 150.105 19.3119C150.526 19.6036 150.983 19.7495 151.476 19.7495C152.005 19.7495 152.444 19.634 152.793 19.4031C153.154 19.1721 153.334 18.8986 153.334 18.5826C153.334 18.0114 152.901 17.592 152.035 17.3246L150.52 16.9418C148.8 16.5042 147.94 15.6655 147.94 14.4257C147.94 13.6114 148.265 12.9611 148.914 12.4749C149.576 11.9766 150.418 11.7274 151.44 11.7274C152.222 11.7274 152.925 11.9158 153.551 12.2926C154.188 12.6694 154.633 13.1738 154.886 13.8059L153.406 14.4257C153.238 14.049 152.961 13.7572 152.577 13.5506C152.204 13.3318 151.783 13.2224 151.314 13.2224C150.881 13.2224 150.49 13.3318 150.141 13.5506C149.804 13.7694 149.636 14.0368 149.636 14.3528C149.636 14.8633 150.111 15.2279 151.061 15.4467L152.396 15.7931C154.152 16.2307 155.03 17.1241 155.03 18.4732Z" fill="#9A9DA3"/>
</g>
<defs>
<clipPath id="clip0_536_515">
<rect width="163.672" height="20.073" fill="white" transform="translate(0.898315 5.76355)"/>
</clipPath>
</defs>
</svg>
