<svg width="500" height="612" viewBox="0 0 500 612" fill="none" xmlns="http://www.w3.org/2000/svg">
    <g style="mix-blend-mode:screen" filter="url(#filter0_f_567_407)">
        <path
            d="M172.222 387.5C327.844 -52.6153 662.848 -261.577 746.879 -319.56L-324.348 12.0621L-166.786 952.931C63.6258 899.961 25.1642 803.397 172.222 387.5Z"
            fill="url(#paint0_radial_567_407)" fill-opacity="0.3" />
    </g>
    <circle cx="244.318" cy="106.667" r="1.50268" transform="rotate(-180 244.318 106.667)"
        fill="#6042FF" fill-opacity="0.15" />
    <circle cx="292.4" cy="94.646" r="1.50268" transform="rotate(-180 292.4 94.646)" fill="#6042FF"
        fill-opacity="0.6" />
    <circle cx="80.097" cy="103.045" r="1.50268" transform="rotate(-180 80.097 103.045)"
        fill="#6042FF" fill-opacity="0.3" />
    <circle cx="55.7503" cy="250.347" r="2.2537" transform="rotate(-180 55.7503 250.347)"
        fill="#6042FF" fill-opacity="0.3" />
    <circle cx="155.295" cy="277.755" r="2.2537" transform="rotate(-180 155.295 277.755)"
        fill="#6042FF" fill-opacity="0.3" />
    <circle cx="192.981" cy="99.4043" r="2.2537" transform="rotate(-180 192.981 99.4043)"
        fill="#6042FF" fill-opacity="0.15" />
    <circle cx="92.8089" cy="301.749" r="2.2537" transform="rotate(-180 92.8089 301.749)"
        fill="#6042FF" fill-opacity="0.1" />
    <circle cx="143.488" cy="258.818" r="2.2537" transform="rotate(-180 143.488 258.818)"
        fill="#6042FF" fill-opacity="0.15" />
    <circle cx="92.5354" cy="153.928" r="2.2537" transform="rotate(-180 92.5354 153.928)"
        fill="#6042FF" fill-opacity="0.1" />
    <circle cx="49.6936" cy="124.078" r="2.2537" transform="rotate(-180 49.6936 124.078)"
        fill="#6042FF" fill-opacity="0.3" />
    <circle cx="138.887" cy="57.3325" r="2.2537" transform="rotate(-180 138.887 57.3325)"
        fill="#6042FF" fill-opacity="0.7" />
    <circle cx="371.784" cy="336.307" r="0.751028" transform="rotate(-180 371.784 336.307)"
        fill="#6042FF" fill-opacity="0.15" />
    <circle cx="303.503" cy="302.203" r="0.751028" transform="rotate(-180 303.503 302.203)"
        fill="#6042FF" fill-opacity="0.3" />
    <circle cx="377.462" cy="243.406" r="0.751028" transform="rotate(-180 377.462 243.406)"
        fill="#6042FF" fill-opacity="0.1" />
    <circle cx="200.259" cy="176.469" r="0.751028" transform="rotate(-180 200.259 176.469)"
        fill="#6042FF" fill-opacity="0.3" />
    <circle cx="365.255" cy="278.686" r="0.751028" transform="rotate(-180 365.255 278.686)"
        fill="#6042FF" fill-opacity="0.6" />
    <circle cx="150.317" cy="288.389" r="0.751028" transform="rotate(-180 150.317 288.389)"
        fill="#6042FF" fill-opacity="0.1" />
    <circle cx="127.843" cy="83.4577" r="0.751028" transform="rotate(-180 127.843 83.4577)"
        fill="#6042FF" fill-opacity="0.15" />
    <circle cx="149.485" cy="210.793" r="0.751028" transform="rotate(-180 149.485 210.793)"
        fill="#6042FF" fill-opacity="0.1" />
    <circle cx="383.806" cy="133.963" r="0.751028" transform="rotate(-180 383.806 133.963)"
        fill="#6042FF" fill-opacity="0.3" />
    <circle cx="284.274" cy="356.253" r="0.751028" transform="rotate(-180 284.274 356.253)"
        fill="#6042FF" fill-opacity="0.3" />
    <circle cx="277.329" cy="158.489" r="0.751028" transform="rotate(-180 277.329 158.489)"
        fill="#6042FF" fill-opacity="0.7" />
    <circle cx="407.847" cy="188.055" r="0.751028" transform="rotate(-180 407.847 188.055)"
        fill="#6042FF" fill-opacity="0.15" />
    <circle cx="59.2529" cy="194.065" r="0.751028" transform="rotate(-180 59.2529 194.065)"
        fill="#6042FF" fill-opacity="0.1" />
    <circle cx="102.927" cy="238.673" r="0.751028" transform="rotate(-180 102.927 238.673)"
        fill="#6042FF" fill-opacity="0.3" />
    <circle cx="344.622" cy="59.1931" r="0.751028" transform="rotate(-180 344.622 59.1931)"
        fill="#6042FF" fill-opacity="0.1" />
    <circle cx="275.661" cy="246.716" r="0.751028" transform="rotate(-180 275.661 246.716)"
        fill="#6042FF" fill-opacity="0.15" />
    <circle cx="115.347" cy="103.911" r="0.751028" transform="rotate(-180 115.347 103.911)"
        fill="#6042FF" fill-opacity="0.3" />
    <circle cx="275.612" cy="143.764" r="0.751028" transform="rotate(-180 275.612 143.764)"
        fill="#6042FF" fill-opacity="0.1" />
    <circle cx="298.337" cy="152.814" r="0.751028" transform="rotate(-180 298.337 152.814)"
        fill="#6042FF" fill-opacity="0.3" />
    <circle cx="55.2451" cy="170.024" r="0.751028" transform="rotate(-180 55.2451 170.024)"
        fill="#6042FF" fill-opacity="0.15" />
    <circle cx="252.567" cy="44.6335" r="0.751028" transform="rotate(-180 252.567 44.6335)"
        fill="#6042FF" fill-opacity="0.1" />
    <circle cx="241.741" cy="96.4045" r="0.751028" transform="rotate(-180 241.741 96.4045)"
        fill="#6042FF" fill-opacity="0.1" />
    <circle cx="49.2354" cy="328.294" r="0.751028" transform="rotate(-180 49.2354 328.294)"
        fill="#6042FF" fill-opacity="0.3" />
    <circle cx="98.6826" cy="49.3933" r="0.751028" transform="rotate(-180 98.6826 49.3933)"
        fill="#6042FF" fill-opacity="0.1" />
    <path d="M404.591 88.135L403.29 85.881L405.892 85.881L404.591 88.135Z" fill="#6042FF"
        fill-opacity="0.6" />
    <circle cx="141.392" cy="156" r="0.751028" transform="rotate(-180 141.392 156)" fill="#6042FF"
        fill-opacity="0.1" />
    <path d="M39.97 82.1248L38.6687 79.8707L41.2714 79.8707L39.97 82.1248Z" fill="#6042FF"
        fill-opacity="0.1" />
    <path
        d="M41.4818 45.1306L41.163 43.9467L39.9791 43.6279L41.163 43.3092L41.4818 42.1253L41.8005 43.3092L42.9844 43.6279L41.8005 43.9467L41.4818 45.1306Z"
        fill="#6042FF" fill-opacity="0.1" />
    <path
        d="M340.482 100.156L340.163 98.9716L338.979 98.6528L340.163 98.3341L340.482 97.1502L340.8 98.3341L341.984 98.6528L340.8 98.9716L340.482 100.156Z"
        fill="#6042FF" fill-opacity="0.6" />
    <path
        d="M226.689 164.12L226.37 162.936L225.186 162.617L226.37 162.298L226.689 161.115L227.007 162.298L228.191 162.617L227.007 162.936L226.689 164.12Z"
        fill="#6042FF" fill-opacity="0.1" />
    <path
        d="M298.409 54.0769L298.091 52.893L296.907 52.5742L298.091 52.2555L298.409 51.0716L298.728 52.2555L299.912 52.5742L298.728 52.893L298.409 54.0769Z"
        fill="#6042FF" fill-opacity="0.8" />
    <path
        d="M277.622 271.596L277.304 270.413L276.12 270.094L277.304 269.775L277.622 268.591L277.941 269.775L279.125 270.094L277.941 270.413L277.622 271.596Z"
        fill="#6042FF" fill-opacity="0.15" />
    <path
        d="M149.304 123.876L148.985 122.692L147.801 122.373L148.985 122.054L149.304 120.87L149.623 122.054L150.807 122.373L149.623 122.692L149.304 123.876Z"
        fill="#6042FF" fill-opacity="0.3" />
    <circle cx="403.839" cy="141.976" r="0.751028" transform="rotate(-180 403.839 141.976)"
        fill="#6042FF" fill-opacity="0.3" />
    <path d="M419.258 275.843C402.223 212.836 348.694 73.7884 270.864 21.6508"
        stroke="url(#paint1_linear_567_407)" stroke-opacity="0.1" stroke-width="4.00683" />
    <path d="M160.889 15.2241C160.397 65.2796 124.792 190.032 -13.6939 288.596"
        stroke="url(#paint2_linear_567_407)" stroke-opacity="0.1" stroke-width="4.00683" />
    <defs>
        <filter id="filter0_f_567_407" x="-472.55" y="-467.761" width="1367.63" height="1568.89"
            filterUnits="userSpaceOnUse" color-interpolation-filters="sRGB">
            <feFlood flood-opacity="0" result="BackgroundImageFix" />
            <feBlend mode="normal" in="SourceGraphic" in2="BackgroundImageFix" result="shape" />
            <feGaussianBlur stdDeviation="74.1009" result="effect1_foregroundBlur_567_407" />
        </filter>
        <radialGradient id="paint0_radial_567_407" cx="0" cy="0" r="1"
            gradientUnits="userSpaceOnUse"
            gradientTransform="translate(463.066 285.428) rotate(-150.409) scale(615.014 615.032)">
            <stop offset="0.409332" stop-color="#6041FF" />
            <stop offset="1" stop-opacity="0" />
            <stop offset="1" stop-color="#2D2E32" stop-opacity="0" />
        </radialGradient>
        <linearGradient id="paint1_linear_567_407" x1="329.656" y1="14.8851" x2="401.245"
            y2="217.157" gradientUnits="userSpaceOnUse">
            <stop stop-color="#6042FF" />
            <stop offset="1" stop-color="white" stop-opacity="0" />
        </linearGradient>
        <linearGradient id="paint2_linear_567_407" x1="161.784" y1="10.0377" x2="55.5825"
            y2="283.192" gradientUnits="userSpaceOnUse">
            <stop stop-color="#6042FF" />
            <stop offset="1" stop-color="white" stop-opacity="0" />
        </linearGradient>
    </defs>
</svg>
    