<svg width="24" height="24" viewBox="0 0 24 24" fill="none" xmlns="http://www.w3.org/2000/svg">
<g clip-path="url(#clip0_519_1244)">
<mask id="mask0_519_1244" style="mask-type:luminance" maskUnits="userSpaceOnUse" x="0" y="0" width="24" height="24">
<path d="M23.3823 0.8125H0.441162V23.7537H23.3823V0.8125Z" fill="white"/>
</mask>
<g mask="url(#mask0_519_1244)">
<path d="M18.256 14.0817C18.256 11.7789 18.2577 9.6475 18.2554 7.5162C18.2542 6.27466 18.1544 6.17753 16.9127 6.17323C16.7765 6.17282 16.6395 6.18306 16.504 6.17159C15.1721 6.0595 14.9453 6.45764 14.9703 7.64775C15.0198 10.0011 14.9395 12.3576 15.0056 14.7102C15.0347 15.7478 14.7099 16.3094 13.5537 16.3685C13.5537 14.2964 13.5558 12.2279 13.5528 10.1595C13.551 8.83603 13.1725 8.43768 11.9209 8.42641C10.4851 8.4135 10.0926 8.76513 10.0822 10.1581C10.0662 12.3076 10.0828 14.4575 10.0723 16.607C10.0709 16.8996 10.1576 17.202 9.93466 17.4861C9.66449 17.8301 9.32708 17.8994 8.94007 17.842C8.45205 17.7698 8.66047 17.3684 8.6574 17.118C8.63695 15.4122 8.61036 13.7049 8.66517 12.0005C8.68624 11.3498 8.39765 11.0106 7.86403 10.9257C7.30136 10.8364 6.6986 10.8296 6.14023 10.9331C5.53216 11.0458 5.36322 11.557 5.36936 12.1547C5.38674 13.8266 5.37405 15.4986 5.3761 17.1705C5.37692 17.742 5.50128 18.3811 4.79524 18.6458C3.66622 19.069 2.62577 18.8782 2.08622 18.1791C1.0789 16.8736 0.647132 15.3028 0.502733 13.7407C-0.06341 7.61722 3.30501 2.61293 9.35549 1.1425C12.9782 0.262213 16.333 1.16648 19.2532 3.57519C20.7783 4.83313 21.8315 6.39289 22.5551 8.2129C22.9135 9.11408 22.849 9.89147 22.126 10.5956C20.9289 11.7619 19.8152 13.0211 18.256 14.0817Z" fill="white"/>
<path d="M4.92554 21.44C8.6521 20.8046 11.9702 19.887 15.0664 18.2994C18.0755 16.7564 20.6804 14.7032 22.7193 11.9757C22.8582 11.79 22.9131 11.4927 23.2092 11.5788C23.4622 11.6521 23.3616 11.9265 23.3608 12.1105C23.335 17.8367 19.5178 22.7021 13.6521 23.6094C10.5054 24.0963 7.76095 23.3436 4.92554 21.44Z" fill="white"/>
</g>
</g>
<defs>
<clipPath id="clip0_519_1244">
<rect width="23.8235" height="22.9412" fill="white" transform="translate(0 0.8125)"/>
</clipPath>
</defs>
</svg>
