<svg width="23" height="24" viewBox="0 0 23 24" fill="none" xmlns="http://www.w3.org/2000/svg">
<g clip-path="url(#clip0_519_1251)">
<mask id="mask0_519_1251" style="mask-type:luminance" maskUnits="userSpaceOnUse" x="1" y="0" width="22" height="24">
<path d="M22.4412 0.8125H1.26471V23.7537H22.4412V0.8125Z" fill="white"/>
</mask>
<g mask="url(#mask0_519_1251)">
<path fill-rule="evenodd" clip-rule="evenodd" d="M9.13162 2.12196C7.68253 2.83308 6.49697 3.43483 6.49722 3.45931C6.49787 3.52249 9.97512 5.18146 10.0985 5.17742C10.1547 5.17565 10.5619 4.99903 11.0035 4.78499L11.8065 4.3959L12.6835 4.82057L13.5604 5.24532L14.9966 4.63738C17.1606 3.7213 17.3853 3.62091 17.3501 3.58719C17.3033 3.54244 16.5272 3.14962 14.4213 2.1052C13.4036 1.60041 12.4158 1.10549 12.2262 1.00534C12.0366 0.905196 11.8556 0.824635 11.8239 0.826194C11.7923 0.827754 10.5808 1.41085 9.13162 2.12196ZM2.77592 5.22248L1.26743 5.95653V9.1781C1.26743 10.95 1.28724 12.3997 1.31154 12.3997C1.33575 12.3997 2.07793 12.0966 2.96079 11.7261L4.56598 11.0526V7.65687L5.35038 8.05947C5.95484 8.36942 6.55965 8.67875 7.16483 8.98744L8.19484 9.51281L8.65317 9.31756C8.94062 9.19491 9.22749 9.07108 9.51377 8.94605C9.73503 8.84899 10.278 8.61856 10.7205 8.43388C11.163 8.24914 11.5726 8.06335 11.6307 8.02101C11.7079 7.96476 10.767 7.475 8.15099 6.20942C6.17904 5.25544 4.50234 4.47794 4.42502 4.48167C4.3477 4.4854 3.60561 4.81872 2.77592 5.22248ZM17.6219 5.42862C16.5946 5.86555 15.7533 6.2405 15.7523 6.26188C15.7514 6.28324 16.3114 6.5969 16.9968 6.95879C17.682 7.32077 18.2428 7.63627 18.2428 7.66003C18.2428 7.68374 17.6363 7.96055 16.8952 8.2753C16.1541 8.58996 14.2806 9.38702 12.7319 10.0466L7.54269 12.2562C6.23736 12.8121 5.06076 13.3132 4.92802 13.3699C2.26181 14.5069 1.52897 14.8224 1.42833 14.8766C1.32714 14.9311 1.30421 15.2479 1.2862 16.8378L1.26471 18.734L2.61367 19.3816L3.9626 20.0291L5.8331 19.2338C6.8619 18.7964 7.7036 18.4157 7.7036 18.3876C7.7036 18.3596 7.51349 18.2429 7.28124 18.1282C7.04887 18.0134 6.56921 17.7594 6.21523 17.5635C5.86127 17.3676 5.50832 17.1879 5.43082 17.1641C5.35336 17.1403 5.2911 17.0988 5.29236 17.0716C5.29366 17.0446 6.11733 16.676 7.12266 16.2525C9.07531 15.4301 10.5697 14.7962 13.7777 13.4294C15.2122 12.8184 16.647 12.2078 18.0819 11.5975C19.343 11.0613 20.8092 10.435 21.3402 10.2057L22.3057 9.789L22.3271 7.87115L22.3487 5.95335L20.9805 5.29178C20.228 4.92796 19.5847 4.63116 19.551 4.63225C19.5173 4.63326 18.6493 4.99158 17.6219 5.42862ZM21.9391 12.3476C21.7375 12.4403 21.3392 12.614 21.0541 12.7335C20.769 12.853 20.228 13.083 19.8518 13.2446L19.168 13.5385L19.1524 15.2222C19.1438 16.1482 19.1076 16.9018 19.0719 16.8969C18.991 16.8856 17.7093 16.2664 16.421 15.616C15.4911 15.1466 15.4327 15.1279 15.2142 15.2299C15.0879 15.2889 14.3329 15.6079 13.5364 15.9389C12.7399 16.2699 12.0622 16.5624 12.0304 16.5889C11.9986 16.6152 13.6016 17.4338 15.5927 18.4078L19.2128 20.1788L20.7592 19.4251C21.6097 19.0107 22.3329 18.6326 22.3662 18.5851C22.4412 18.4781 22.4347 12.1642 22.3597 12.1728C22.33 12.1761 22.1407 12.2547 21.9391 12.3476ZM13.3754 19.7586C13.1072 19.8672 12.8391 19.976 12.5709 20.085C11.7614 20.4149 11.92 20.4259 10.9568 19.9742C10.3154 19.6734 10.0388 19.5806 9.91874 19.6256C9.82874 19.6594 9.0539 19.9878 8.19677 20.3554C7.3397 20.7229 6.60872 21.0236 6.57235 21.0236C6.21276 21.0236 6.81059 21.3602 9.11747 22.4564L11.8229 23.7419L12.9612 23.2125C13.5873 22.9213 14.85 22.3383 15.7675 21.9168C16.6848 21.4952 17.4239 21.1393 17.4102 21.1259C17.3962 21.1126 16.6275 20.7407 15.7019 20.2996L14.0191 19.4978L13.3754 19.7586Z" fill="white"/>
</g>
</g>
<defs>
<clipPath id="clip0_519_1251">
<rect width="22.0588" height="22.9412" fill="white" transform="translate(0.823547 0.8125)"/>
</clipPath>
</defs>
</svg>
