<svg width="81" height="80" viewBox="0 0 81 80" fill="none" xmlns="http://www.w3.org/2000/svg">
  <g clip-path="url(#clip0_1451_1584)">
    <path
      d="M7.74865 0.0488281H72.7099C76.8954 0.0488281 80.3023 3.43134 80.3023 7.61689V72.3834C80.3023 76.5568 76.9076 79.9515 72.7099 79.9515H7.74865C3.56309 79.9515 0.15625 76.569 0.15625 72.3834V7.61689C0.15625 3.4435 3.55093 0.0488281 7.74865 0.0488281Z"
      fill="url(#paint0_linear_1451_1584)" />
    <path fill-rule="evenodd" clip-rule="evenodd"
      d="M29.8247 13L14.0979 49.6905C13.5665 50.9432 13.2041 52.2682 13.0591 53.6293C12.9987 54.2196 12.9746 54.8459 13.035 55.4241C13.0833 55.8939 13.1799 56.3275 13.3128 56.713C13.6148 57.6284 14.1342 58.4475 14.7985 59.1462L20.379 64.9762L36.3715 27.3461C36.3715 27.3461 37.2412 25.2141 37.1567 23.0218C37.1446 22.6243 37.0721 22.2027 36.9634 21.8052C36.6493 20.5886 36.0092 19.4805 35.1274 18.565L29.8247 13Z"
      fill="white" />
    <path fill-rule="evenodd" clip-rule="evenodd"
      d="M60.6623 14.0238L44.9355 50.7143C44.404 51.967 44.0416 53.292 43.8967 54.6531C43.8363 55.2434 43.8121 55.8697 43.8725 56.4479C43.9208 56.9177 44.0175 57.3513 44.1503 57.7368C44.4523 58.6522 44.9717 59.4713 45.636 60.17L51.2165 66L67.2091 28.3699C67.2091 28.3699 68.0787 26.2379 67.9942 24.0456C67.9821 23.6481 67.9096 23.2265 67.8009 22.829C67.4869 21.6124 66.8467 20.5043 65.9649 19.5888L60.6623 14.0238Z"
      fill="white" />
    <path fill-rule="evenodd" clip-rule="evenodd"
      d="M45.2368 13.5182L29.51 50.1966C28.9786 51.4494 28.6162 52.7744 28.4713 54.1355C28.4109 54.7257 28.3867 55.3521 28.4471 55.9303C28.4954 56.4 28.592 56.8337 28.7249 57.2191C29.0269 58.1346 29.5463 58.9537 30.2106 59.6523L35.7911 65.4823L51.7836 27.8523C51.7836 27.8523 52.6533 25.7202 52.5688 23.528C52.5567 23.1305 52.4842 22.7089 52.3755 22.3114C52.0615 21.0948 51.4213 19.9866 50.5395 19.0711L45.2368 13.5182Z"
      fill="white" />
  </g>
  <defs>
    <linearGradient id="paint0_linear_1451_1584" x1="65.3306" y1="-1.7618" x2="-2.70713" y2="111.458"
      gradientUnits="userSpaceOnUse">
      <stop offset="0.0555311" stop-color="#01ECFF" />
      <stop offset="0.0882433" stop-color="#03D0EB" />
      <stop offset="0.1892" stop-color="#077EB0" />
      <stop offset="0.2721" stop-color="#0B4285" />
      <stop offset="0.3328" stop-color="#0D1D6A" />
      <stop offset="0.3649" stop-color="#0E0F60" />
      <stop offset="0.4222" stop-color="#151263" />
      <stop offset="0.5081" stop-color="#2A1A6D" />
      <stop offset="0.612" stop-color="#4B267C" />
      <stop offset="0.7291" stop-color="#7A3891" />
      <stop offset="0.73" stop-color="#7A3891" />
    </linearGradient>
    <clipPath id="clip0_1451_1584">
      <rect width="80.4624" height="80" fill="white" />
    </clipPath>
  </defs>
</svg>