<svg width="119" height="18" viewBox="0 0 119 18" fill="none" xmlns="http://www.w3.org/2000/svg">
<g clip-path="url(#clip0_1463_1978)">
<path d="M28.3496 12.6588L22.2446 2.05917C20.9122 -0.14825 17.6308 -0.168136 16.3381 2.15861L9.93463 13.1758C8.74143 15.2043 10.213 17.7299 12.6193 17.7299H25.486C27.8923 17.7498 29.702 15.1247 28.3496 12.6588Z" fill="#9A9DA3"/>
<path d="M19.5399 13.494L19.1621 12.8378C18.8041 12.2213 18.0285 10.9088 18.0285 10.9088L12.858 1.92C11.5256 -0.0686714 8.34369 -0.247655 7.01129 2.27796L0.985619 12.6986C-0.267244 14.8861 1.22426 17.7299 3.92886 17.7498H16.716H22.1649H25.4065C22.1052 17.7697 21.0513 16.0395 19.5399 13.494Z" fill="#9A9DA3"/>
<path d="M19.5399 13.4543L19.162 12.798C18.8041 12.1815 18.0285 10.869 18.0285 10.869L14.6875 4.98254L9.89483 13.1759C8.70163 15.2043 10.1732 17.7299 12.5795 17.7299H16.6961H22.1451H25.4065C22.0854 17.71 21.0513 16.0197 19.5399 13.4543Z" fill="url(#paint0_linear_1463_1978)"/>
<path d="M107.832 4.95124C108.726 4.116 110.297 3.71826 112.584 3.71826H117.934V0.675598H111.61C110.099 0.675598 108.826 0.834698 107.832 1.15288C106.857 1.47107 106.002 1.96823 105.266 2.66427C104.49 3.41997 103.874 4.35463 103.437 5.46828C102.999 6.60182 102.78 7.8348 102.78 9.12744C102.78 10.3604 102.999 11.5536 103.437 12.6474C103.874 13.7412 104.49 14.6957 105.266 15.4514C105.982 16.1474 106.837 16.6446 107.792 16.9628C108.766 17.281 110.059 17.4401 111.61 17.4401H117.934V14.4372H112.584C111.371 14.4372 110.536 14.3974 110.059 14.298C109.562 14.1985 109.104 14.0395 108.726 13.8008C107.971 13.3235 107.394 12.707 107.016 11.9315C106.658 11.1758 106.479 10.2212 106.479 9.10756C106.479 7.19843 106.937 5.78648 107.832 4.95124Z" fill="#9A9DA3"/>
<path d="M61.2767 17.4798H76.1918V14.5366H64.9159V10.3405H74.7599V7.55633H64.9159V3.65855H76.1918V0.695435H61.2767V17.4798Z" fill="#9A9DA3"/>
<path d="M79.9105 0.695435L86.8909 9.08761L79.9105 17.4798H84.4249L89.9335 10.8377V7.35747L84.4249 0.695435H79.9105Z" fill="#9A9DA3"/>
<path d="M96.8539 0.695435L91.3453 7.35747V10.8377L96.8539 17.4798H101.368L94.3681 9.08761L101.368 0.695435H96.8539Z" fill="#9A9DA3"/>
<path d="M46.66 8.9683L39.9582 0.695435H36.4979V17.4798H40.1372V6.28359L45.9441 13.244H47.356L53.1629 6.22395V17.4798H56.8021V0.695435H53.3817L46.66 8.9683Z" fill="#9A9DA3"/>
</g>
<defs>
<linearGradient id="paint0_linear_1463_1978" x1="8.18433" y1="9.46254" x2="23.041" y2="14.9526" gradientUnits="userSpaceOnUse">
<stop stop-color="#C1C4CA"/>
<stop offset="1" stop-color="#9A9DA3"/>
</linearGradient>
<clipPath id="clip0_1463_1978">
<rect width="117.506" height="18" fill="white" transform="translate(0.528076)"/>
</clipPath>
</defs>
</svg>
