<svg
  width="370"
  height="371"
  viewBox="0 0 370 371"
  fill="none"
  xmlns="http://www.w3.org/2000/svg"
>
  <g style="mix-blend-mode:plus-lighter">
    <mask
      id="path-1-outside-1_88_1056"
      maskUnits="userSpaceOnUse"
      x="-52"
      y="-4"
      width="474"
      height="378"
      fill="black"
    >
      <rect fill="white" x="-52" y="-4" width="474" height="378" />
      <path
        d="M-50.5691 373L13.2344 -2.84259H109.937L185.205 197.54L259.975 -2.84259H356.677L420.48 373H323.28L290.879 156.666L202.153 373H163.272L79.0318 156.666L46.6316 373H-50.5691Z" />
    </mask>
    <path
      d="M-50.5691 373L13.2344 -2.84259H109.937L185.205 197.54L259.975 -2.84259H356.677L420.48 373H323.28L290.879 156.666L202.153 373H163.272L79.0318 156.666L46.6316 373H-50.5691Z"
      fill="#341C2E"
      fill-opacity="0.19"
    />
    <path
      d="M-50.5691 373L-51.4523 372.85L-51.6298 373.896H-50.5691V373ZM13.2344 -2.84259V-3.73846H12.4778L12.3512 -2.99253L13.2344 -2.84259ZM109.937 -2.84259L110.775 -3.15761L110.557 -3.73846H109.937V-2.84259ZM185.205 197.54L184.366 197.855L185.208 200.095L186.044 197.854L185.205 197.54ZM259.975 -2.84259V-3.73846H259.353L259.135 -3.15578L259.975 -2.84259ZM356.677 -2.84259L357.56 -2.99253L357.433 -3.73846H356.677V-2.84259ZM420.48 373V373.896H421.541L421.364 372.85L420.48 373ZM323.28 373L322.394 373.133L322.508 373.896H323.28V373ZM290.879 156.666L291.765 156.534L291.284 153.319L290.051 156.326L290.879 156.666ZM202.153 373V373.896H202.754L202.982 373.34L202.153 373ZM163.272 373L162.438 373.325L162.66 373.896H163.272V373ZM79.0318 156.666L79.8666 156.341L78.6446 153.203L78.1458 156.534L79.0318 156.666ZM46.6316 373V373.896H47.4033L47.5176 373.133L46.6316 373ZM-49.6858 373.15L14.1177 -2.69265L12.3512 -2.99253L-51.4523 372.85L-49.6858 373.15ZM13.2344 -1.94672H109.937V-3.73846H13.2344V-1.94672ZM109.098 -2.52757L184.366 197.855L186.044 197.225L110.775 -3.15761L109.098 -2.52757ZM186.044 197.854L260.814 -2.5294L259.135 -3.15578L184.366 197.227L186.044 197.854ZM259.975 -1.94672H356.677V-3.73846H259.975V-1.94672ZM355.794 -2.69265L419.597 373.15L421.364 372.85L357.56 -2.99253L355.794 -2.69265ZM420.48 372.104H323.28V373.896H420.48V372.104ZM324.166 372.867L291.765 156.534L289.993 156.799L322.394 373.133L324.166 372.867ZM290.051 156.326L201.324 372.66L202.982 373.34L291.708 157.006L290.051 156.326ZM202.153 372.104H163.272V373.896H202.153V372.104ZM164.107 372.675L79.8666 156.341L78.197 156.991L162.438 373.325L164.107 372.675ZM78.1458 156.534L45.7456 372.867L47.5176 373.133L79.9178 156.799L78.1458 156.534ZM46.6316 372.104H-50.5691V373.896H46.6316V372.104Z"
      fill="url(#paint0_linear_88_1056)"
      mask="url(#path-1-outside-1_88_1056)"
    />
  </g>
  <defs>
    <linearGradient
      id="paint0_linear_88_1056"
      x1="185"
      y1="-70"
      x2="185"
      y2="429"
      gradientUnits="userSpaceOnUse"
    >
      <stop stop-color="#7D5973" />
      <stop offset="1" stop-color="#1C1D26" />
    </linearGradient>
  </defs>
</svg>