<svg width="144" height="54" viewBox="0 0 144 54" fill="none" xmlns="http://www.w3.org/2000/svg">
<path d="M60.2405 14.0563H61.5188L64.5245 21.3977H64.6281L67.6338 14.0563H68.912V22.9006H67.9102V16.181H67.8238L65.06 22.9006H64.0926L61.3288 16.181H61.2424V22.9006H60.2405V14.0563Z" fill="#9A9DA3"/>
<path d="M70.5564 22.9006V16.2674H71.5756V22.9006H70.5564ZM71.0746 15.1618C70.876 15.1618 70.7047 15.0942 70.5607 14.9589C70.4196 14.8235 70.3491 14.6609 70.3491 14.4709C70.3491 14.2809 70.4196 14.1182 70.5607 13.9829C70.7047 13.8476 70.876 13.7799 71.0746 13.7799C71.2733 13.7799 71.4431 13.8476 71.5842 13.9829C71.7281 14.1182 71.8001 14.2809 71.8001 14.4709C71.8001 14.6609 71.7281 14.8235 71.5842 14.9589C71.4431 15.0942 71.2733 15.1618 71.0746 15.1618Z" fill="#9A9DA3"/>
<path d="M75.7721 23.0388C75.1503 23.0388 74.6148 22.8919 74.1657 22.5983C73.7165 22.3046 73.3711 21.9001 73.1292 21.3848C72.8874 20.8694 72.7665 20.2807 72.7665 19.6185C72.7665 18.9448 72.8903 18.3503 73.1379 17.835C73.3883 17.3168 73.7367 16.9123 74.1829 16.6215C74.6321 16.3278 75.156 16.181 75.7549 16.181C76.2213 16.181 76.6416 16.2674 77.0159 16.4401C77.3901 16.6128 77.6967 16.8547 77.9357 17.1656C78.1746 17.4765 78.3229 17.8393 78.3805 18.2539H77.3613C77.2836 17.9516 77.1109 17.6838 76.8431 17.4506C76.5782 17.2146 76.2213 17.0965 75.7721 17.0965C75.3748 17.0965 75.0265 17.2002 74.7271 17.4074C74.4305 17.6119 74.1988 17.9012 74.0318 18.2755C73.8677 18.6468 73.7856 19.083 73.7856 19.584C73.7856 20.0964 73.8662 20.5427 74.0275 20.9227C74.1916 21.3027 74.4219 21.5978 74.7184 21.808C75.0178 22.0181 75.3691 22.1232 75.7721 22.1232C76.037 22.1232 76.2774 22.0772 76.4933 21.985C76.7092 21.8929 76.8921 21.7605 77.0418 21.5877C77.1915 21.415 77.298 21.2077 77.3613 20.9659H78.3805C78.3229 21.3574 78.1804 21.7101 77.953 22.0239C77.7284 22.3348 77.4304 22.5824 77.059 22.7667C76.6905 22.9481 76.2616 23.0388 75.7721 23.0388Z" fill="#9A9DA3"/>
<path d="M79.5055 22.9006V16.2674H80.4902V17.2693H80.5593C80.6802 16.941 80.899 16.6747 81.2157 16.4703C81.5324 16.2659 81.8894 16.1637 82.2867 16.1637C82.3615 16.1637 82.4551 16.1652 82.5674 16.168C82.6796 16.1709 82.7646 16.1752 82.8221 16.181V17.2174C82.7876 17.2088 82.7084 17.1958 82.5846 17.1786C82.4637 17.1584 82.3356 17.1483 82.2003 17.1483C81.8778 17.1483 81.5899 17.216 81.3366 17.3513C81.0861 17.4837 80.8875 17.668 80.7406 17.9041C80.5967 18.1373 80.5247 18.4036 80.5247 18.703V22.9006H79.5055Z" fill="#9A9DA3"/>
<path d="M86.1583 23.0388C85.5594 23.0388 85.034 22.8962 84.582 22.6112C84.1329 22.3262 83.7817 21.9275 83.5283 21.415C83.2778 20.9025 83.1526 20.3037 83.1526 19.6185C83.1526 18.9276 83.2778 18.3244 83.5283 17.8091C83.7817 17.2937 84.1329 16.8935 84.582 16.6085C85.034 16.3235 85.5594 16.181 86.1583 16.181C86.7571 16.181 87.2811 16.3235 87.7302 16.6085C88.1822 16.8935 88.5334 17.2937 88.7839 17.8091C89.0373 18.3244 89.1639 18.9276 89.1639 19.6185C89.1639 20.3037 89.0373 20.9025 88.7839 21.415C88.5334 21.9275 88.1822 22.3262 87.7302 22.6112C87.2811 22.8962 86.7571 23.0388 86.1583 23.0388ZM86.1583 22.1232C86.6131 22.1232 86.9874 22.0066 87.2811 21.7734C87.5747 21.5402 87.7921 21.2336 87.9332 20.8536C88.0742 20.4736 88.1448 20.0619 88.1448 19.6185C88.1448 19.1751 88.0742 18.762 87.9332 18.3791C87.7921 17.9962 87.5747 17.6867 87.2811 17.4506C86.9874 17.2146 86.6131 17.0965 86.1583 17.0965C85.7034 17.0965 85.3291 17.2146 85.0355 17.4506C84.7418 17.6867 84.5244 17.9962 84.3834 18.3791C84.2423 18.762 84.1718 19.1751 84.1718 19.6185C84.1718 20.0619 84.2423 20.4736 84.3834 20.8536C84.5244 21.2336 84.7418 21.5402 85.0355 21.7734C85.3291 22.0066 85.7034 22.1232 86.1583 22.1232Z" fill="#9A9DA3"/>
<path d="M95.0534 17.7529L94.1378 18.012C94.0803 17.8594 93.9953 17.7112 93.883 17.5672C93.7736 17.4204 93.6239 17.2995 93.4339 17.2045C93.2439 17.1095 93.0006 17.062 92.7041 17.062C92.2982 17.062 91.9599 17.1555 91.6893 17.3427C91.4215 17.5269 91.2876 17.7616 91.2876 18.0466C91.2876 18.2999 91.3798 18.5 91.564 18.6468C91.7483 18.7937 92.0362 18.916 92.4277 19.0139L93.4123 19.2558C94.0054 19.3997 94.4473 19.6199 94.7381 19.9165C95.0289 20.2101 95.1743 20.5887 95.1743 21.0522C95.1743 21.4323 95.0649 21.772 94.8461 22.0714C94.6301 22.3708 94.3278 22.6069 93.9392 22.7796C93.5505 22.9524 93.0985 23.0388 92.5832 23.0388C91.9066 23.0388 91.3467 22.8919 90.9033 22.5983C90.4599 22.3046 90.1792 21.8756 90.0612 21.3114L91.0285 21.0695C91.1206 21.4265 91.2948 21.6943 91.5511 21.8728C91.8102 22.0513 92.1484 22.1405 92.5659 22.1405C93.0409 22.1405 93.4181 22.0397 93.6973 21.8382C93.9795 21.6338 94.1206 21.3891 94.1206 21.1041C94.1206 20.8737 94.0399 20.6809 93.8787 20.5254C93.7175 20.367 93.4699 20.249 93.1359 20.1713L92.0304 19.9122C91.4229 19.7682 90.9767 19.5451 90.6917 19.2428C90.4095 18.9376 90.2685 18.5562 90.2685 18.0984C90.2685 17.7241 90.3736 17.393 90.5837 17.1052C90.7968 16.8173 91.0861 16.5913 91.4517 16.4271C91.8202 16.263 92.2377 16.181 92.7041 16.181C93.3605 16.181 93.8758 16.3249 94.2501 16.6128C94.6273 16.9007 94.895 17.2808 95.0534 17.7529Z" fill="#9A9DA3"/>
<path d="M99.0383 23.0388C98.4395 23.0388 97.9141 22.8962 97.4621 22.6112C97.013 22.3262 96.6617 21.9275 96.4084 21.415C96.1579 20.9025 96.0327 20.3037 96.0327 19.6185C96.0327 18.9276 96.1579 18.3244 96.4084 17.8091C96.6617 17.2937 97.013 16.8935 97.4621 16.6085C97.9141 16.3235 98.4395 16.181 99.0383 16.181C99.6371 16.181 100.161 16.3235 100.61 16.6085C101.062 16.8935 101.413 17.2937 101.664 17.8091C101.917 18.3244 102.044 18.9276 102.044 19.6185C102.044 20.3037 101.917 20.9025 101.664 21.415C101.413 21.9275 101.062 22.3262 100.61 22.6112C100.161 22.8962 99.6371 23.0388 99.0383 23.0388ZM99.0383 22.1232C99.4932 22.1232 99.8675 22.0066 100.161 21.7734C100.455 21.5402 100.672 21.2336 100.813 20.8536C100.954 20.4736 101.025 20.0619 101.025 19.6185C101.025 19.1751 100.954 18.762 100.813 18.3791C100.672 17.9962 100.455 17.6867 100.161 17.4506C99.8675 17.2146 99.4932 17.0965 99.0383 17.0965C98.5834 17.0965 98.2092 17.2146 97.9155 17.4506C97.6219 17.6867 97.4045 17.9962 97.2634 18.3791C97.1224 18.762 97.0518 19.1751 97.0518 19.6185C97.0518 20.0619 97.1224 20.4736 97.2634 20.8536C97.4045 21.2336 97.6219 21.5402 97.9155 21.7734C98.2092 22.0066 98.5834 22.1232 99.0383 22.1232Z" fill="#9A9DA3"/>
<path d="M106.189 16.2674V17.1311H102.613V16.2674H106.189ZM103.684 22.9006V15.3518C103.684 14.9718 103.773 14.6551 103.952 14.4018C104.13 14.1484 104.362 13.9584 104.647 13.8317C104.932 13.7051 105.233 13.6417 105.55 13.6417C105.8 13.6417 106.004 13.6619 106.163 13.7022C106.321 13.7425 106.439 13.7799 106.517 13.8145L106.223 14.6954C106.171 14.6782 106.099 14.6566 106.007 14.6307C105.918 14.6047 105.8 14.5918 105.653 14.5918C105.316 14.5918 105.073 14.6767 104.923 14.8466C104.777 15.0164 104.703 15.2655 104.703 15.5937V22.9006H103.684Z" fill="#9A9DA3"/>
<path d="M110.137 16.2674V17.1311H106.699V16.2674H110.137ZM107.701 14.6782H108.721V21.0004C108.721 21.2883 108.762 21.5042 108.846 21.6482C108.932 21.7893 109.042 21.8843 109.174 21.9332C109.309 21.9793 109.452 22.0023 109.602 22.0023C109.714 22.0023 109.806 21.9966 109.878 21.985C109.95 21.9706 110.007 21.9591 110.051 21.9505L110.258 22.866C110.189 22.8919 110.092 22.9178 109.969 22.9437C109.845 22.9725 109.688 22.9869 109.498 22.9869C109.21 22.9869 108.928 22.925 108.651 22.8012C108.378 22.6774 108.15 22.4889 107.969 22.2355C107.791 21.9822 107.701 21.6626 107.701 21.2768V14.6782Z" fill="#9A9DA3"/>
<path d="M63.0562 31.0341V31.8978H59.4805V31.0341H63.0562ZM60.5515 37.6673V30.1186C60.5515 29.7386 60.6407 29.4219 60.8192 29.1685C60.9977 28.9152 61.2295 28.7252 61.5145 28.5985C61.7995 28.4718 62.1004 28.4085 62.417 28.4085C62.6675 28.4085 62.8719 28.4286 63.0303 28.4689C63.1886 28.5092 63.3066 28.5467 63.3844 28.5812L63.0907 29.4622C63.0389 29.4449 62.9669 29.4233 62.8748 29.3974C62.7856 29.3715 62.6675 29.3585 62.5207 29.3585C62.1838 29.3585 61.9406 29.4435 61.7909 29.6133C61.644 29.7832 61.5706 30.0322 61.5706 30.3604V37.6673H60.5515Z" fill="#9A9DA3"/>
<path d="M66.5413 37.8055C65.9424 37.8055 65.417 37.663 64.965 37.378C64.5159 37.093 64.1647 36.6942 63.9113 36.1818C63.6608 35.6693 63.5356 35.0705 63.5356 34.3853C63.5356 33.6943 63.6608 33.0912 63.9113 32.5758C64.1647 32.0605 64.5159 31.6603 64.965 31.3753C65.417 31.0903 65.9424 30.9477 66.5413 30.9477C67.1401 30.9477 67.6641 31.0903 68.1132 31.3753C68.5652 31.6603 68.9164 32.0605 69.1669 32.5758C69.4203 33.0912 69.5469 33.6943 69.5469 34.3853C69.5469 35.0705 69.4203 35.6693 69.1669 36.1818C68.9164 36.6942 68.5652 37.093 68.1132 37.378C67.6641 37.663 67.1401 37.8055 66.5413 37.8055ZM66.5413 36.89C66.9962 36.89 67.3704 36.7734 67.6641 36.5402C67.9577 36.307 68.1751 36.0004 68.3162 35.6204C68.4572 35.2403 68.5278 34.8286 68.5278 34.3853C68.5278 33.9419 68.4572 33.5288 68.3162 33.1459C68.1751 32.763 67.9577 32.4535 67.6641 32.2174C67.3704 31.9813 66.9962 31.8633 66.5413 31.8633C66.0864 31.8633 65.7121 31.9813 65.4185 32.2174C65.1248 32.4535 64.9075 32.763 64.7664 33.1459C64.6253 33.5288 64.5548 33.9419 64.5548 34.3853C64.5548 34.8286 64.6253 35.2403 64.7664 35.6204C64.9075 36.0004 65.1248 36.307 65.4185 36.5402C65.7121 36.7734 66.0864 36.89 66.5413 36.89Z" fill="#9A9DA3"/>
<path d="M70.7379 37.6673V31.0341H71.7225V32.036H71.7916C71.9125 31.7078 72.1313 31.4415 72.448 31.2371C72.7647 31.0327 73.1217 30.9305 73.519 30.9305C73.5938 30.9305 73.6874 30.9319 73.7997 30.9348C73.9119 30.9377 73.9969 30.942 74.0545 30.9477V31.9842C74.0199 31.9755 73.9407 31.9626 73.8169 31.9453C73.696 31.9252 73.5679 31.9151 73.4326 31.9151C73.1101 31.9151 72.8222 31.9827 72.5689 32.1181C72.3184 32.2505 72.1198 32.4347 71.9729 32.6708C71.829 32.904 71.757 33.1703 71.757 33.4697V37.6673H70.7379Z" fill="#9A9DA3"/>
<path d="M82.928 31.0341C82.8762 30.5965 82.666 30.2568 82.2975 30.015C81.929 29.7731 81.477 29.6522 80.9415 29.6522C80.55 29.6522 80.2074 29.7155 79.9137 29.8422C79.623 29.9689 79.3955 30.1431 79.2314 30.3648C79.0702 30.5864 78.9896 30.8383 78.9896 31.1205C78.9896 31.3566 79.0457 31.5595 79.158 31.7294C79.2732 31.8964 79.42 32.036 79.5985 32.1483C79.777 32.2577 79.9641 32.3484 80.1599 32.4204C80.3557 32.4894 80.5356 32.5456 80.6997 32.5888L81.5979 32.8306C81.8283 32.8911 82.0845 32.9746 82.3666 33.0811C82.6517 33.1876 82.9237 33.333 83.1828 33.5172C83.4448 33.6986 83.6607 33.9318 83.8306 34.2168C84.0005 34.5019 84.0854 34.8517 84.0854 35.2662C84.0854 35.7441 83.9602 36.176 83.7097 36.5618C83.4621 36.9476 83.0993 37.2542 82.6214 37.4816C82.1464 37.7091 81.5692 37.8228 80.8897 37.8228C80.2563 37.8228 79.7079 37.7206 79.2444 37.5162C78.7837 37.3118 78.421 37.0267 78.1561 36.6611C77.8941 36.2955 77.7459 35.8708 77.7113 35.3872H78.8168C78.8456 35.7211 78.9579 35.9975 79.1537 36.2163C79.3523 36.4322 79.6028 36.5934 79.9051 36.7C80.2103 36.8036 80.5385 36.8554 80.8897 36.8554C81.2985 36.8554 81.6656 36.7892 81.9909 36.6568C82.3162 36.5215 82.5739 36.3343 82.7639 36.0954C82.9539 35.8535 83.049 35.5714 83.049 35.249C83.049 34.9553 82.9669 34.7163 82.8028 34.5321C82.6387 34.3478 82.4228 34.1981 82.155 34.083C81.8873 33.9678 81.5979 33.867 81.287 33.7807L80.1988 33.4697C79.5078 33.2711 78.9608 32.9875 78.5577 32.619C78.1547 32.2505 77.9531 31.7683 77.9531 31.1723C77.9531 30.6771 78.087 30.2453 78.3548 29.8768C78.6254 29.5054 78.9881 29.2175 79.443 29.0131C79.9008 28.8058 80.4118 28.7021 80.9761 28.7021C81.5461 28.7021 82.0528 28.8043 82.4962 29.0087C82.9396 29.2103 83.2908 29.4867 83.5499 29.8379C83.8119 30.1891 83.9501 30.5879 83.9645 31.0341H82.928Z" fill="#9A9DA3"/>
<path d="M88.228 31.0341V31.8978H84.7905V31.0341H88.228ZM85.7924 29.4449H86.8115V35.7672C86.8115 36.0551 86.8533 36.271 86.9368 36.415C87.0231 36.556 87.1325 36.651 87.265 36.7C87.4003 36.746 87.5428 36.7691 87.6925 36.7691C87.8048 36.7691 87.8969 36.7633 87.9689 36.7518C88.0408 36.7374 88.0984 36.7259 88.1416 36.7172L88.3489 37.6328C88.2798 37.6587 88.1834 37.6846 88.0596 37.7105C87.9358 37.7393 87.7789 37.7537 87.5888 37.7537C87.3009 37.7537 87.0188 37.6918 86.7424 37.568C86.4689 37.4442 86.2415 37.2556 86.0601 37.0023C85.8816 36.7489 85.7924 36.4293 85.7924 36.0436V29.4449Z" fill="#9A9DA3"/>
<path d="M91.3482 37.8228C90.9278 37.8228 90.5464 37.7436 90.2038 37.5853C89.8612 37.424 89.5891 37.1923 89.3876 36.89C89.1861 36.5848 89.0853 36.2163 89.0853 35.7845C89.0853 35.4044 89.1601 35.0964 89.3099 34.8603C89.4596 34.6213 89.6596 34.4342 89.9101 34.2989C90.1606 34.1636 90.437 34.0628 90.7393 33.9966C91.0444 33.9275 91.3511 33.8728 91.6591 33.8325C92.0622 33.7807 92.3889 33.7418 92.6394 33.7159C92.8928 33.6871 93.077 33.6396 93.1922 33.5734C93.3102 33.5072 93.3692 33.392 93.3692 33.2279V33.1934C93.3692 32.7673 93.2526 32.4362 93.0194 32.2001C92.7891 31.964 92.4393 31.846 91.97 31.846C91.4835 31.846 91.102 31.9525 90.8256 32.1656C90.5493 32.3786 90.3549 32.606 90.2426 32.8479L89.2753 32.5024C89.448 32.0993 89.6784 31.7855 89.9663 31.561C90.257 31.3335 90.5737 31.1752 90.9163 31.0859C91.2618 30.9938 91.6015 30.9477 91.9355 30.9477C92.1485 30.9477 92.3933 30.9737 92.6696 31.0255C92.9489 31.0744 93.2181 31.1766 93.4772 31.3321C93.7392 31.4876 93.9565 31.7222 94.1293 32.036C94.302 32.3498 94.3884 32.7701 94.3884 33.297V37.6673H93.3692V36.7691H93.3174C93.2483 36.913 93.1332 37.067 92.9719 37.2311C92.8107 37.3952 92.5962 37.5349 92.3285 37.65C92.0607 37.7652 91.734 37.8228 91.3482 37.8228ZM91.5036 36.9073C91.9067 36.9073 92.2464 36.8281 92.5228 36.6697C92.8021 36.5114 93.0122 36.307 93.1533 36.0565C93.2973 35.806 93.3692 35.5426 93.3692 35.2662V34.3334C93.326 34.3853 93.231 34.4328 93.0842 34.476C92.9403 34.5163 92.7733 34.5522 92.5833 34.5839C92.3961 34.6127 92.2133 34.6386 92.0348 34.6616C91.8592 34.6818 91.7167 34.6991 91.6073 34.7135C91.3424 34.748 91.0948 34.8042 90.8645 34.8819C90.6371 34.9567 90.4528 35.0705 90.3117 35.2231C90.1735 35.3728 90.1045 35.5772 90.1045 35.8363C90.1045 36.1904 90.2354 36.4581 90.4974 36.6395C90.7623 36.818 91.0977 36.9073 91.5036 36.9073Z" fill="#9A9DA3"/>
<path d="M95.8838 37.6673V31.0341H96.8684V32.036H96.9375C97.0584 31.7078 97.2772 31.4415 97.5939 31.2371C97.9106 31.0327 98.2676 30.9305 98.6649 30.9305C98.7397 30.9305 98.8333 30.9319 98.9456 30.9348C99.0578 30.9377 99.1428 30.942 99.2004 30.9477V31.9842C99.1658 31.9755 99.0866 31.9626 98.9628 31.9453C98.8419 31.9252 98.7138 31.9151 98.5785 31.9151C98.256 31.9151 97.9681 31.9827 97.7148 32.1181C97.4643 32.2505 97.2657 32.4347 97.1188 32.6708C96.9749 32.904 96.9029 33.1703 96.9029 33.4697V37.6673H95.8838Z" fill="#9A9DA3"/>
<path d="M103.344 31.0341V31.8978H99.9065V31.0341H103.344ZM100.908 29.4449H101.928V35.7672C101.928 36.0551 101.969 36.271 102.053 36.415C102.139 36.556 102.249 36.651 102.381 36.7C102.516 36.746 102.659 36.7691 102.809 36.7691C102.921 36.7691 103.013 36.7633 103.085 36.7518C103.157 36.7374 103.214 36.7259 103.258 36.7172L103.465 37.6328C103.396 37.6587 103.299 37.6846 103.176 37.7105C103.052 37.7393 102.895 37.7537 102.705 37.7537C102.417 37.7537 102.135 37.6918 101.858 37.568C101.585 37.4442 101.358 37.2556 101.176 37.0023C100.998 36.7489 100.908 36.4293 100.908 36.0436V29.4449Z" fill="#9A9DA3"/>
<path d="M108.693 34.9553V31.0341H109.712V37.6673H108.693V36.5445H108.623C108.468 36.8813 108.226 37.1678 107.898 37.4039C107.57 37.6371 107.155 37.7537 106.654 37.7537C106.24 37.7537 105.871 37.663 105.549 37.4816C105.226 37.2974 104.973 37.021 104.789 36.6525C104.604 36.2811 104.512 35.8132 104.512 35.249V31.0341H105.531V35.1799C105.531 35.6635 105.667 36.0493 105.937 36.3372C106.211 36.6251 106.559 36.7691 106.982 36.7691C107.236 36.7691 107.493 36.7043 107.755 36.5747C108.02 36.4452 108.242 36.2465 108.42 35.9788C108.602 35.711 108.693 35.3699 108.693 34.9553Z" fill="#9A9DA3"/>
<path d="M111.214 40.1548V31.0341H112.198V32.0878H112.319C112.394 31.9727 112.498 31.8258 112.63 31.6473C112.765 31.466 112.958 31.3047 113.209 31.1637C113.462 31.0197 113.805 30.9477 114.236 30.9477C114.795 30.9477 115.287 31.0874 115.713 31.3666C116.14 31.6459 116.472 32.0418 116.711 32.5542C116.95 33.0667 117.069 33.6713 117.069 34.368C117.069 35.0705 116.95 35.6794 116.711 36.1947C116.472 36.7072 116.141 37.1045 115.718 37.3866C115.295 37.6659 114.807 37.8055 114.254 37.8055C113.828 37.8055 113.487 37.735 113.23 37.5939C112.974 37.4499 112.777 37.2873 112.639 37.1059C112.5 36.9217 112.394 36.7691 112.319 36.6481H112.233V40.1548H111.214ZM112.215 34.3507C112.215 34.8517 112.289 35.2936 112.436 35.6765C112.583 36.0565 112.797 36.3545 113.079 36.5704C113.361 36.7835 113.707 36.89 114.116 36.89C114.542 36.89 114.897 36.7777 115.182 36.5531C115.47 36.3257 115.686 36.0205 115.83 35.6376C115.977 35.2518 116.05 34.8229 116.05 34.3507C116.05 33.8843 115.978 33.464 115.834 33.0897C115.693 32.7126 115.479 32.4146 115.191 32.1958C114.906 31.9741 114.547 31.8633 114.116 31.8633C113.701 31.8633 113.353 31.9684 113.071 32.1785C112.788 32.3858 112.575 32.6766 112.431 33.0509C112.287 33.4222 112.215 33.8555 112.215 34.3507Z" fill="#9A9DA3"/>
<path d="M122.958 32.5197L122.042 32.7788C121.985 32.6262 121.9 32.4779 121.787 32.334C121.678 32.1872 121.528 32.0662 121.338 31.9712C121.148 31.8762 120.905 31.8287 120.609 31.8287C120.203 31.8287 119.864 31.9223 119.594 32.1094C119.326 32.2937 119.192 32.5283 119.192 32.8133C119.192 33.0667 119.284 33.2668 119.468 33.4136C119.653 33.5604 119.941 33.6828 120.332 33.7807L121.317 34.0225C121.91 34.1665 122.352 34.3867 122.643 34.6832C122.933 34.9769 123.079 35.3555 123.079 35.819C123.079 36.199 122.969 36.5387 122.75 36.8382C122.535 37.1376 122.232 37.3737 121.844 37.5464C121.455 37.7191 121.003 37.8055 120.488 37.8055C119.811 37.8055 119.251 37.6587 118.808 37.365C118.364 37.0714 118.084 36.6424 117.966 36.0781L118.933 35.8363C119.025 36.1933 119.199 36.461 119.455 36.6395C119.715 36.818 120.053 36.9073 120.47 36.9073C120.945 36.9073 121.323 36.8065 121.602 36.605C121.884 36.4006 122.025 36.1558 122.025 35.8708C122.025 35.6405 121.944 35.4476 121.783 35.2921C121.622 35.1338 121.374 35.0158 121.04 34.938L119.935 34.6789C119.327 34.535 118.881 34.3118 118.596 34.0096C118.314 33.7044 118.173 33.3229 118.173 32.8652C118.173 32.4909 118.278 32.1598 118.488 31.8719C118.701 31.584 118.991 31.358 119.356 31.1939C119.725 31.0298 120.142 30.9477 120.609 30.9477C121.265 30.9477 121.78 31.0917 122.155 31.3796C122.532 31.6675 122.799 32.0475 122.958 32.5197Z" fill="#9A9DA3"/>
<path fill-rule="evenodd" clip-rule="evenodd" d="M32.6205 10.6471C35.5005 12.6893 40.915 19.5386 39.5326 30.5979C40.0352 29.7182 40.2657 28.8699 40.318 28.5557L44.2453 33.7398V36.8816H38.9042L38.7471 39.081H35.1339L34.1914 53.8477L32.9346 29.3412L31.835 48.0353L31.2066 39.081H29.9499L29.4786 46.3072L28.3789 39.081H26.1796V36.8816H20.3672V33.7398L24.6087 28.7128L25.3942 30.755C24.1374 21.3294 28.536 12.8464 32.6205 10.6471ZM32.6198 23.2143C34.0947 23.2143 35.2904 22.0187 35.2904 20.5438C35.2904 19.0688 34.0947 17.8732 32.6198 17.8732C31.1449 17.8732 29.9492 19.0688 29.9492 20.5438C29.9492 22.0187 31.1449 23.2143 32.6198 23.2143Z" fill="#9A9DA3"/>
<path d="M52.4142 13.4747V37.1958" stroke="#9A9DA3" stroke-width="0.314186"/>
</svg>
