<svg width="126" height="48" viewBox="0 0 126 48" fill="none" xmlns="http://www.w3.org/2000/svg">
<g clip-path="url(#clip0_536_509)">
<path d="M72.1141 11.9583V22.5527H75.0945V11.9583H72.1141ZM48.6642 11.9403V22.5437H51.6715V14.3106L54.0165 14.3196C54.7862 14.3196 55.3232 14.5081 55.6902 14.9031C56.1646 15.4059 56.3525 16.223 56.3525 17.7044V22.5437H59.2703V16.6898C59.2703 12.5059 56.6121 11.9403 54.0165 11.9403H48.6642ZM76.9204 11.9583V22.5527H81.7536C84.3313 22.5527 85.1726 22.1217 86.0766 21.161C86.721 20.4877 87.1327 18.9973 87.1327 17.3722C87.1327 15.8818 86.7836 14.553 86.1661 13.727C85.0741 12.2456 83.481 11.9583 81.1002 11.9583H76.9204ZM79.874 14.2567H81.1539C83.0156 14.2567 84.2149 15.0917 84.2149 17.2644C84.2149 19.4372 83.0156 20.2812 81.1539 20.2812H79.874V14.2567ZM67.8179 11.9583L65.3297 20.353L62.9489 11.9583H59.7268L63.1279 22.5527H67.4241L70.861 11.9583H67.8179ZM88.529 22.5527H91.5094V11.9583H88.529V22.5527ZM96.8886 11.9583L92.7267 22.5437H95.6624L96.3247 20.6672H101.247L101.874 22.5347H105.069L100.871 11.9583H96.8886ZM98.8218 13.8886L100.63 18.8446H96.9602L98.8218 13.8886Z" fill="#9A9DA3"/>
<path d="M29.4298 13.718V12.2635C29.5731 12.2545 29.7163 12.2456 29.8595 12.2456C33.8334 12.1199 36.438 15.6753 36.438 15.6753C36.438 15.6753 33.6276 19.5898 30.6113 19.5898C30.2085 19.5898 29.8147 19.527 29.4388 19.4013V14.984C30.9872 15.1725 31.3005 15.8548 32.2223 17.4081L34.2899 15.6663C34.2899 15.6663 32.7773 13.6821 30.2354 13.6821C29.9669 13.6731 29.6984 13.6911 29.4298 13.718ZM29.4298 8.90564V11.0784L29.8595 11.0515C35.3818 10.8629 38.9888 15.5945 38.9888 15.5945C38.9888 15.5945 34.8537 20.6403 30.5486 20.6403C30.1727 20.6403 29.8058 20.6044 29.4388 20.5415V21.8883C29.7431 21.9242 30.0564 21.9511 30.3607 21.9511C34.3704 21.9511 37.2703 19.8951 40.0807 17.4709C40.5462 17.848 42.4526 18.7548 42.8464 19.1499C40.1792 21.3945 33.9587 23.1991 30.4323 23.1991C30.0922 23.1991 29.77 23.1811 29.4477 23.1452V25.0396H44.6812V8.90564H29.4298ZM29.4298 19.4013V20.5505C25.7244 19.8861 24.6951 16.0165 24.6951 16.0165C24.6951 16.0165 26.4762 14.0412 29.4298 13.718V14.975H29.4209C27.8725 14.7864 26.6552 16.2409 26.6552 16.2409C26.6552 16.2409 27.3444 18.692 29.4298 19.4013ZM22.8514 15.8548C22.8514 15.8548 25.0442 12.6047 29.4388 12.2635V11.0784C24.5698 11.4734 20.3632 15.6035 20.3632 15.6035C20.3632 15.6035 22.7439 22.5167 29.4298 23.1452V21.8883C24.5251 21.2777 22.8514 15.8548 22.8514 15.8548Z" fill="#9A9DA3"/>
</g>
<path d="M30.4694 36H27.4251V27.016H30.5308C31.4228 27.016 32.189 27.1959 32.8295 27.5556C33.4729 27.9124 33.9671 28.4256 34.3122 29.0953C34.6573 29.765 34.8298 30.5663 34.8298 31.4992C34.8298 32.4351 34.6558 33.2393 34.3078 33.9119C33.9627 34.5846 33.4641 35.1007 32.8119 35.4604C32.1627 35.8201 31.3819 36 30.4694 36ZM29.0525 34.5919H30.3905C31.0163 34.5919 31.5383 34.4778 31.9565 34.2497C32.3747 34.0187 32.6891 33.675 32.8997 33.2188C33.1102 32.7597 33.2155 32.1865 33.2155 31.4992C33.2155 30.812 33.1102 30.2417 32.8997 29.7884C32.6891 29.3322 32.3776 28.9915 31.9653 28.7663C31.5559 28.5382 31.047 28.4242 30.4387 28.4242H29.0525V34.5919ZM39.4124 36.1316C38.7369 36.1316 38.1534 35.9912 37.6621 35.7105C37.1737 35.4268 36.7979 35.0262 36.5347 34.5085C36.2715 33.988 36.1399 33.3753 36.1399 32.6705C36.1399 31.9774 36.2715 31.3691 36.5347 30.8456C36.8009 30.3192 37.1723 29.9098 37.649 29.6173C38.1257 29.322 38.6857 29.1743 39.3291 29.1743C39.7443 29.1743 40.1362 29.2416 40.5047 29.3761C40.8761 29.5077 41.2037 29.7124 41.4873 29.9902C41.7739 30.268 41.9991 30.6219 42.1629 31.0518C42.3266 31.4788 42.4085 31.9876 42.4085 32.5784V33.0653H36.8857V31.9949H40.8863C40.8834 31.6908 40.8176 31.4203 40.6889 31.1834C40.5603 30.9436 40.3804 30.755 40.1494 30.6175C39.9213 30.4801 39.6551 30.4113 39.351 30.4113C39.0264 30.4113 38.7413 30.4903 38.4956 30.6482C38.2499 30.8032 38.0584 31.0079 37.9209 31.2624C37.7864 31.5139 37.7177 31.7902 37.7148 32.0914V33.0258C37.7148 33.4177 37.7864 33.754 37.9297 34.0348C38.073 34.3126 38.2733 34.5261 38.5307 34.6752C38.788 34.8214 39.0893 34.8946 39.4344 34.8946C39.6654 34.8946 39.8745 34.8624 40.0616 34.798C40.2488 34.7308 40.4111 34.6328 40.5486 34.5041C40.686 34.3755 40.7898 34.2161 40.86 34.026L42.3427 34.1927C42.2492 34.5846 42.0708 34.9267 41.8076 35.2192C41.5473 35.5087 41.2139 35.7339 40.8074 35.8947C40.4009 36.0526 39.9359 36.1316 39.4124 36.1316ZM49.701 29.262L47.3015 36H45.5468L43.1473 29.262H44.8406L46.3891 34.2673H46.4593L48.0122 29.262H49.701ZM53.6772 36.1316C53.0016 36.1316 52.4182 35.9912 51.9269 35.7105C51.4385 35.4268 51.0627 35.0262 50.7995 34.5085C50.5363 33.988 50.4047 33.3753 50.4047 32.6705C50.4047 31.9774 50.5363 31.3691 50.7995 30.8456C51.0656 30.3192 51.437 29.9098 51.9137 29.6173C52.3904 29.322 52.9505 29.1743 53.5938 29.1743C54.0091 29.1743 54.401 29.2416 54.7695 29.3761C55.1409 29.5077 55.4684 29.7124 55.7521 29.9902C56.0387 30.268 56.2639 30.6219 56.4276 31.0518C56.5914 31.4788 56.6733 31.9876 56.6733 32.5784V33.0653H51.1504V31.9949H55.1511C55.1482 31.6908 55.0824 31.4203 54.9537 31.1834C54.825 30.9436 54.6452 30.755 54.4141 30.6175C54.186 30.4801 53.9199 30.4113 53.6158 30.4113C53.2912 30.4113 53.006 30.4903 52.7604 30.6482C52.5147 30.8032 52.3232 31.0079 52.1857 31.2624C52.0512 31.5139 51.9825 31.7902 51.9795 32.0914V33.0258C51.9795 33.4177 52.0512 33.754 52.1945 34.0348C52.3378 34.3126 52.5381 34.5261 52.7955 34.6752C53.0528 34.8214 53.354 34.8946 53.6991 34.8946C53.9301 34.8946 54.1392 34.8624 54.3264 34.798C54.5136 34.7308 54.6759 34.6328 54.8133 34.5041C54.9508 34.3755 55.0546 34.2161 55.1248 34.026L56.6075 34.1927C56.5139 34.5846 56.3355 34.9267 56.0723 35.2192C55.812 35.5087 55.4787 35.7339 55.0722 35.8947C54.6657 36.0526 54.2007 36.1316 53.6772 36.1316ZM59.7282 27.016V36H58.1403V27.016H59.7282ZM64.4238 36.1316C63.7658 36.1316 63.1955 35.9868 62.713 35.6973C62.2305 35.4078 61.8561 35.0028 61.59 34.4822C61.3268 33.9616 61.1952 33.3534 61.1952 32.6573C61.1952 31.9613 61.3268 31.3516 61.59 30.8281C61.8561 30.3046 62.2305 29.8981 62.713 29.6086C63.1955 29.3191 63.7658 29.1743 64.4238 29.1743C65.0818 29.1743 65.6521 29.3191 66.1346 29.6086C66.6172 29.8981 66.99 30.3046 67.2532 30.8281C67.5194 31.3516 67.6524 31.9613 67.6524 32.6573C67.6524 33.3534 67.5194 33.9616 67.2532 34.4822C66.99 35.0028 66.6172 35.4078 66.1346 35.6973C65.6521 35.9868 65.0818 36.1316 64.4238 36.1316ZM64.4326 34.8595C64.7894 34.8595 65.0877 34.7615 65.3275 34.5655C65.5673 34.3667 65.7457 34.1006 65.8626 33.7672C65.9826 33.4338 66.0425 33.0624 66.0425 32.6529C66.0425 32.2406 65.9826 31.8677 65.8626 31.5343C65.7457 31.198 65.5673 30.9304 65.3275 30.7316C65.0877 30.5327 64.7894 30.4333 64.4326 30.4333C64.067 30.4333 63.7629 30.5327 63.5201 30.7316C63.2803 30.9304 63.1005 31.198 62.9806 31.5343C62.8636 31.8677 62.8051 32.2406 62.8051 32.6529C62.8051 33.0624 62.8636 33.4338 62.9806 33.7672C63.1005 34.1006 63.2803 34.3667 63.5201 34.5655C63.7629 34.7615 64.067 34.8595 64.4326 34.8595ZM69.1238 38.5267V29.262H70.6854V30.3762H70.7776C70.8594 30.2125 70.975 30.0385 71.1241 29.8542C71.2732 29.6671 71.475 29.5077 71.7295 29.3761C71.9839 29.2416 72.3085 29.1743 72.7033 29.1743C73.2239 29.1743 73.6932 29.3074 74.1114 29.5735C74.5326 29.8367 74.866 30.2271 75.1116 30.7447C75.3602 31.2594 75.4845 31.8911 75.4845 32.6398C75.4845 33.3797 75.3631 34.0084 75.1204 34.5261C74.8777 35.0437 74.5472 35.4385 74.129 35.7105C73.7108 35.9825 73.237 36.1184 72.7077 36.1184C72.3217 36.1184 72.0014 36.0541 71.747 35.9254C71.4926 35.7967 71.2879 35.6418 71.1329 35.4604C70.9808 35.2762 70.8624 35.1022 70.7776 34.9384H70.7118V38.5267H69.1238ZM70.681 32.631C70.681 33.0668 70.7425 33.4484 70.8653 33.7759C70.991 34.1035 71.1709 34.3594 71.4048 34.5436C71.6417 34.7249 71.9283 34.8156 72.2646 34.8156C72.6156 34.8156 72.9095 34.722 73.1464 34.5348C73.3833 34.3448 73.5616 34.0859 73.6815 33.7584C73.8044 33.4279 73.8658 33.0521 73.8658 32.631C73.8658 32.2128 73.8058 31.8414 73.6859 31.5168C73.566 31.1922 73.3876 30.9377 73.1508 30.7535C72.9139 30.5693 72.6185 30.4771 72.2646 30.4771C71.9254 30.4771 71.6373 30.5663 71.4005 30.7447C71.1636 30.9231 70.9837 31.1732 70.8609 31.4949C70.741 31.8165 70.681 32.1953 70.681 32.631ZM79.9508 36.1316C79.2753 36.1316 78.6919 35.9912 78.2006 35.7105C77.7122 35.4268 77.3364 35.0262 77.0732 34.5085C76.81 33.988 76.6784 33.3753 76.6784 32.6705C76.6784 31.9774 76.81 31.3691 77.0732 30.8456C77.3393 30.3192 77.7107 29.9098 78.1874 29.6173C78.6641 29.322 79.2241 29.1743 79.8675 29.1743C80.2828 29.1743 80.6747 29.2416 81.0431 29.3761C81.4145 29.5077 81.7421 29.7124 82.0258 29.9902C82.3124 30.268 82.5375 30.6219 82.7013 31.0518C82.8651 31.4788 82.947 31.9876 82.947 32.5784V33.0653H77.4241V31.9949H81.4248C81.4219 31.6908 81.3561 31.4203 81.2274 31.1834C81.0987 30.9436 80.9188 30.755 80.6878 30.6175C80.4597 30.4801 80.1936 30.4113 79.8894 30.4113C79.5648 30.4113 79.2797 30.4903 79.034 30.6482C78.7884 30.8032 78.5968 31.0079 78.4594 31.2624C78.3248 31.5139 78.2561 31.7902 78.2532 32.0914V33.0258C78.2532 33.4177 78.3248 33.754 78.4681 34.0348C78.6114 34.3126 78.8118 34.5261 79.0691 34.6752C79.3265 34.8214 79.6277 34.8946 79.9728 34.8946C80.2038 34.8946 80.4129 34.8624 80.6001 34.798C80.7872 34.7308 80.9496 34.6328 81.087 34.5041C81.2245 34.3755 81.3283 34.2161 81.3985 34.026L82.8812 34.1927C82.7876 34.5846 82.6092 34.9267 82.346 35.2192C82.0857 35.5087 81.7523 35.7339 81.3458 35.8947C80.9393 36.0526 80.4743 36.1316 79.9508 36.1316ZM84.4139 36V29.262H85.9537V30.385H86.0238C86.1467 29.9961 86.3572 29.6963 86.6555 29.4857C86.9567 29.2723 87.3004 29.1655 87.6864 29.1655C87.7741 29.1655 87.8721 29.1699 87.9803 29.1787C88.0914 29.1845 88.1836 29.1948 88.2567 29.2094V30.6702C88.1894 30.6468 88.0827 30.6263 87.9364 30.6087C87.7931 30.5883 87.6542 30.578 87.5197 30.578C87.2302 30.578 86.9699 30.6409 86.7389 30.7667C86.5108 30.8895 86.3309 31.0606 86.1993 31.2799C86.0677 31.4992 86.0019 31.7522 86.0019 32.0388V36H84.4139ZM94.7607 31.043L93.313 31.2009C93.2721 31.0547 93.2005 30.9173 93.0981 30.7886C92.9987 30.6599 92.8641 30.5561 92.6945 30.4771C92.5249 30.3982 92.3173 30.3587 92.0716 30.3587C91.7411 30.3587 91.4633 30.4304 91.2381 30.5737C91.0159 30.7169 90.9062 30.9027 90.9091 31.1308C90.9062 31.3267 90.9779 31.4861 91.1241 31.6089C91.2732 31.7317 91.5189 31.8326 91.861 31.9116L93.0104 32.1572C93.6479 32.2947 94.1217 32.5126 94.4317 32.8109C94.7446 33.1092 94.9025 33.4996 94.9054 33.9821C94.9025 34.4062 94.7782 34.7805 94.5325 35.1051C94.2898 35.4268 93.952 35.6783 93.5192 35.8596C93.0864 36.0409 92.5892 36.1316 92.0277 36.1316C91.203 36.1316 90.5392 35.9591 90.0362 35.614C89.5332 35.266 89.2334 34.782 89.1369 34.162L90.6854 34.0128C90.7556 34.317 90.9047 34.5465 91.1329 34.7015C91.361 34.8565 91.6578 34.934 92.0234 34.934C92.4006 34.934 92.7033 34.8565 92.9314 34.7015C93.1624 34.5465 93.278 34.355 93.278 34.1269C93.278 33.9339 93.2034 33.7745 93.0542 33.6487C92.908 33.523 92.6799 33.4265 92.3699 33.3592L91.2206 33.1179C90.5743 32.9834 90.0961 32.7568 89.7861 32.438C89.4761 32.1163 89.3226 31.7098 89.3255 31.2185C89.3226 30.8032 89.4352 30.4435 89.6633 30.1394C89.8943 29.8323 90.2146 29.5954 90.624 29.4287C91.0363 29.2591 91.5116 29.1743 92.0497 29.1743C92.8393 29.1743 93.4607 29.3424 93.914 29.6788C94.3702 30.0151 94.6525 30.4698 94.7607 31.043Z" fill="#9A9DA3"/>
<defs>
<clipPath id="clip0_536_509">
<rect width="84.7059" height="15.8824" fill="white" transform="translate(20.3632 9)"/>
</clipPath>
</defs>
</svg>
