<svg width="370" height="371" viewBox="0 0 370 371" fill="none" xmlns="http://www.w3.org/2000/svg">
    <g style="mix-blend-mode:plus-lighter">
        <path
            d="M105.011 158.98H125.598C147.112 158.98 163.619 154.529 175.118 145.626C186.617 136.724 192.366 123.927 192.366 107.235C192.366 90.5425 186.617 77.7452 175.118 68.8427C163.619 59.9403 147.112 55.4891 125.598 55.4891H105.011V158.98ZM344.82 391H209.058L105.011 229.643V391H-4.04419V-28.5277H165.659C189.028 -28.5277 209.429 -25.0038 226.863 -17.9561C244.297 -11.2792 258.578 -2.00585 269.706 9.86405C281.205 21.734 289.737 35.4586 295.301 51.0379C301.236 66.6172 304.203 83.3092 304.203 101.114C304.203 133.015 296.413 158.98 280.834 179.011C265.626 198.67 242.999 212.024 212.953 219.072L344.82 391Z"
            fill="#144854" fill-opacity="0.3" />
    </g>
    <g style="mix-blend-mode:plus-lighter">
        <path fill-rule="evenodd" clip-rule="evenodd"
            d="M346.848 392H208.513L106.011 233.039V392H-5.04419V-29.5277H165.659C189.122 -29.5277 209.653 -25.9903 227.23 -18.8865C244.777 -12.1649 259.187 -2.81644 270.43 9.17416C282.023 21.143 290.628 34.9851 296.239 50.6922C302.217 66.3898 305.203 83.1998 305.203 101.114C305.203 133.179 297.371 159.377 281.623 179.624C266.499 199.174 244.153 212.508 214.684 219.686L346.848 392ZM212.953 219.072C213.309 218.988 213.665 218.903 214.019 218.818C243.534 211.706 265.806 198.437 280.834 179.011C296.413 158.98 304.203 133.015 304.203 101.114C304.203 83.3092 301.235 66.6172 295.301 51.0379C289.737 35.4586 281.205 21.734 269.706 9.86405C258.578 -2.00585 244.297 -11.2792 226.863 -17.9561C209.429 -25.0038 189.028 -28.5277 165.659 -28.5277H-4.04419V391H105.011V229.643L209.058 391H344.82L212.953 219.072ZM106.011 157.98H125.598C146.992 157.98 163.248 153.551 174.505 144.836C185.721 136.152 191.366 123.669 191.366 107.235C191.366 90.8 185.721 78.3169 174.505 69.6335C163.248 60.9181 146.992 56.4891 125.598 56.4891H106.011V157.98ZM125.598 158.98C147.112 158.98 163.619 154.529 175.118 145.626C186.617 136.724 192.366 123.927 192.366 107.235C192.366 90.5425 186.617 77.7452 175.118 68.8427C163.619 59.9403 147.112 55.4891 125.598 55.4891H105.011V158.98H125.598Z"
            fill="url(#paint0_linear_0_1)" />
    </g>
    <defs>
        <linearGradient id="paint0_linear_0_1" x1="149.5" y1="-104" x2="149.5" y2="453"
            gradientUnits="userSpaceOnUse">
            <stop stop-color="#144854" />
            <stop offset="1" stop-color="#144854" />
        </linearGradient>
    </defs>
</svg>
    