<svg width="126" height="37" viewBox="0 0 126 37" fill="none" xmlns="http://www.w3.org/2000/svg">
<g clip-path="url(#clip0_1463_1927)">
<path d="M48.6889 22.1714C47.9919 22.1714 47.3656 22.0502 46.81 21.8077C46.2645 21.5552 45.8353 21.2117 45.5221 20.7774C45.2089 20.3329 45.0474 19.8228 45.0372 19.247H46.507C46.5575 19.742 46.7595 20.1612 47.1131 20.5046C47.4767 20.8379 48.002 21.0046 48.6889 21.0046C49.3455 21.0046 49.8607 20.843 50.2344 20.5198C50.6183 20.1865 50.8102 19.7622 50.8102 19.247C50.8102 18.8429 50.6991 18.5147 50.4769 18.2621C50.2546 18.0096 49.9768 17.8176 49.6435 17.6864C49.3101 17.555 48.8606 17.4136 48.2949 17.2621C47.598 17.0802 47.0373 16.8985 46.6131 16.7166C46.1989 16.5348 45.8403 16.2519 45.5373 15.8681C45.2443 15.4742 45.0979 14.9488 45.0979 14.2923C45.0979 13.7165 45.2443 13.2064 45.5373 12.7619C45.8302 12.3174 46.2393 11.974 46.7646 11.7315C47.3 11.4891 47.9111 11.3679 48.598 11.3679C49.5879 11.3679 50.396 11.6154 51.0223 12.1104C51.6587 12.6054 52.0173 13.2619 52.0981 14.0802H50.5829C50.5324 13.6761 50.3203 13.3225 49.9465 13.0195C49.5727 12.7064 49.0778 12.5498 48.4616 12.5498C47.8858 12.5498 47.4161 12.7013 47.0525 13.0043C46.6888 13.2973 46.507 13.7115 46.507 14.2468C46.507 14.6307 46.6131 14.9438 46.8252 15.1863C47.0474 15.4287 47.3151 15.6156 47.6283 15.7469C47.9515 15.8681 48.401 16.0095 48.9768 16.1711C49.6737 16.3631 50.2344 16.555 50.6586 16.7469C51.0829 16.9287 51.4466 17.2166 51.7496 17.6106C52.0526 17.9944 52.2042 18.5197 52.2042 19.1864C52.2042 19.7016 52.0678 20.1865 51.7951 20.641C51.5223 21.0956 51.1182 21.4643 50.5829 21.7471C50.0475 22.03 49.4162 22.1714 48.6889 22.1714ZM55.6121 15.2923C55.8848 14.8176 56.2889 14.4236 56.8243 14.1104C57.3697 13.7872 58.0011 13.6256 58.7183 13.6256C59.4557 13.6256 60.1223 13.8024 60.7183 14.1559C61.3244 14.5094 61.7992 15.0095 62.1426 15.6559C62.4861 16.2923 62.6578 17.0348 62.6578 17.8833C62.6578 18.7217 62.4861 19.4692 62.1426 20.1258C61.7992 20.7824 61.3244 21.2926 60.7183 21.6562C60.1223 22.0198 59.4557 22.2017 58.7183 22.2017C58.0111 22.2017 57.3849 22.0451 56.8394 21.732C56.304 21.4087 55.895 21.0097 55.6121 20.5349V26.0048H54.2332V13.762H55.6121V15.2923ZM61.2486 17.8833C61.2486 17.257 61.1224 16.7115 60.8699 16.2469C60.6173 15.7822 60.2739 15.4287 59.8395 15.1863C59.4152 14.9438 58.9455 14.8226 58.4303 14.8226C57.9253 14.8226 57.4556 14.9488 57.0213 15.2014C56.597 15.4438 56.2535 15.8024 55.9909 16.2772C55.7383 16.7418 55.6121 17.2823 55.6121 17.8985C55.6121 18.5247 55.7383 19.0753 55.9909 19.5501C56.2535 20.0147 56.597 20.3733 57.0213 20.6259C57.4556 20.8683 57.9253 20.9895 58.4303 20.9895C58.9455 20.9895 59.4152 20.8683 59.8395 20.6259C60.2739 20.3733 60.6173 20.0147 60.8699 19.5501C61.1224 19.0753 61.2486 18.5197 61.2486 17.8833ZM72.0485 17.5954C72.0485 17.8581 72.0335 18.1358 72.0033 18.4288H65.3667C65.4172 19.247 65.695 19.8885 66.2001 20.3531C66.7153 20.8076 67.3364 21.0349 68.0638 21.0349C68.6597 21.0349 69.155 20.8986 69.549 20.6259C69.9526 20.343 70.2355 19.9693 70.3972 19.5046H71.882C71.66 20.3026 71.2154 20.9541 70.5487 21.4592C69.882 21.9542 69.0536 22.2017 68.0638 22.2017C67.2759 22.2017 66.5688 22.0249 65.9425 21.6713C65.3263 21.3178 64.8414 20.8178 64.4879 20.1712C64.1343 19.5147 63.9575 18.7571 63.9575 17.8985C63.9575 17.0399 64.1293 16.2873 64.4727 15.6408C64.8162 14.9943 65.296 14.4994 65.9122 14.1559C66.5385 13.8024 67.2557 13.6256 68.0638 13.6256C68.8517 13.6256 69.549 13.7973 70.1547 14.1407C70.7611 14.4842 71.2256 14.959 71.549 15.565C71.882 16.161 72.0485 16.8378 72.0485 17.5954ZM70.6247 17.3075C70.6247 16.7823 70.5082 16.3328 70.276 15.959C70.0437 15.5752 69.7258 15.2872 69.3215 15.0953C68.9274 14.8933 68.488 14.7923 68.0031 14.7923C67.3062 14.7923 66.7102 15.0145 66.2152 15.459C65.7304 15.9034 65.4525 16.5196 65.3818 17.3075H70.6247ZM73.3538 17.8985C73.3538 17.0399 73.5251 16.2923 73.8691 15.6559C74.2124 15.0095 74.6872 14.5094 75.2929 14.1559C75.9096 13.8024 76.6112 13.6256 77.3991 13.6256C78.4194 13.6256 79.2581 13.8731 79.9145 14.368C80.5811 14.863 81.0203 15.5499 81.2328 16.4287H79.748C79.6061 15.9236 79.3286 15.5247 78.9141 15.2317C78.5105 14.9388 78.0055 14.7923 77.3991 14.7923C76.6112 14.7923 75.9746 15.065 75.4902 15.6105C75.0051 16.1459 74.7626 16.9085 74.7626 17.8985C74.7626 18.8985 75.0051 19.6713 75.4902 20.2167C75.9746 20.7622 76.6112 21.0349 77.3991 21.0349C78.0055 21.0349 78.5105 20.8935 78.9141 20.6107C79.3184 20.3279 79.5965 19.9238 79.748 19.3985H81.2328C81.0108 20.247 80.5661 20.9289 79.8994 21.444C79.2327 21.9491 78.3995 22.2017 77.3991 22.2017C76.6112 22.2017 75.9096 22.0249 75.2929 21.6713C74.6872 21.3178 74.2124 20.8178 73.8691 20.1712C73.5251 19.5248 73.3538 18.7672 73.3538 17.8985ZM84.7546 14.8983V19.7925C84.7546 20.1965 84.8403 20.4844 85.0122 20.6562C85.1835 20.8178 85.4816 20.8986 85.9057 20.8986H86.9212V22.0653H85.6789C84.9108 22.0653 84.3353 21.8885 83.9516 21.535C83.5672 21.1814 83.3753 20.6006 83.3753 19.7925V14.8983H82.2996V13.762H83.3753V11.671H84.7546V13.762H86.9212V14.8983H84.7546ZM89.9702 15.1105C90.2128 14.6357 90.5568 14.267 91.0008 14.0044C91.4557 13.7417 92.0059 13.6105 92.6527 13.6105V15.0348H92.2889C90.7431 15.0348 89.9702 15.8732 89.9702 17.55V22.0653H88.5916V13.762H89.9702V15.1105ZM101.821 17.5954C101.821 17.8581 101.805 18.1358 101.775 18.4288H95.1379C95.1886 19.247 95.4661 19.8885 95.9718 20.3531C96.4863 20.8076 97.1078 21.0349 97.8355 21.0349C98.4309 21.0349 98.9263 20.8986 99.3203 20.6259C99.7239 20.343 100.007 19.9693 100.169 19.5046H101.653C101.431 20.3026 100.987 20.9541 100.32 21.4592C99.6533 21.9542 98.8249 22.2017 97.8355 22.2017C97.0475 22.2017 96.3404 22.0249 95.7141 21.6713C95.0975 21.3178 94.6131 20.8178 94.2595 20.1712C93.9059 19.5147 93.7292 18.7571 93.7292 17.8985C93.7292 17.0399 93.9005 16.2873 94.2444 15.6408C94.5877 14.9943 95.0673 14.4994 95.6833 14.1559C96.3096 13.8024 97.027 13.6256 97.8355 13.6256C98.6234 13.6256 99.3203 13.7973 99.926 14.1407C100.532 14.4842 100.997 14.959 101.32 15.565C101.653 16.161 101.821 16.8378 101.821 17.5954ZM100.396 17.3075C100.396 16.7823 100.28 16.3328 100.047 15.959C99.815 15.5752 99.4971 15.2872 99.0928 15.0953C98.6988 14.8933 98.2596 14.7923 97.7745 14.7923C97.0777 14.7923 96.4816 15.0145 95.9869 15.459C95.5017 15.9034 95.2242 16.5196 95.153 17.3075H100.396ZM113.922 19.7167H109.316L108.467 22.0653H107.013L110.831 11.5649H112.422L116.226 22.0653H114.771L113.922 19.7167ZM113.528 18.5955L111.619 13.2619L109.71 18.5955H113.528ZM119.269 11.5043V22.0653H117.889V11.5043H119.269Z" fill="#9A9DA3"/>
<path d="M18.6043 35.7702C28.4224 35.7702 36.3814 27.8111 36.3814 17.9931C36.3814 8.17503 28.4224 0.215942 18.6043 0.215942C8.78627 0.215942 0.827179 8.17503 0.827179 17.9931C0.827179 27.8111 8.78627 35.7702 18.6043 35.7702Z" fill="#1D1C25" stroke="#9A9DA3" stroke-width="0.431834"/>
<path d="M15.2487 25.2028C14.6616 24.1901 13.8711 23.36 12.9195 22.6131C14.0022 22.7633 15.3274 24.2369 15.2487 25.2028ZM21.4461 25.2257C22.0284 24.204 22.8249 23.3713 23.7303 22.6349C22.627 22.8405 21.4264 24.1998 21.4461 25.2257ZM23.9173 13.35C23.5007 12.663 23.2278 11.993 23.0349 11.2055C22.6987 11.8911 23.2843 13.1665 23.9173 13.35ZM14.0369 11.272C13.7661 11.9352 13.4765 12.6443 13.1961 13.3308C13.8822 13.004 14.2757 11.9087 14.0369 11.272ZM26.266 17.7317C26.0306 21.6891 20.8665 22.3111 21.0043 25.9132C20.4826 25.4489 20.3251 24.7858 20.5208 24.1168C20.5093 24.1127 20.4978 24.1087 20.4864 24.1046C20.0952 24.8827 19.8767 25.8138 19.9984 26.6946C20.0442 26.9069 19.9263 26.8225 19.8304 26.7186L19.8331 26.722C19.6248 26.3292 19.4579 25.8685 19.4458 25.4163C19.4293 25.4159 19.4127 25.4155 19.3961 25.415C19.0636 26.441 18.9679 27.5697 18.4967 28.5341C18.2395 27.6336 17.9361 26.7237 17.7674 25.8079C17.7282 25.669 17.6133 25.3441 17.603 25.3453C17.5925 25.3467 17.5699 25.6629 17.5611 25.7947C17.5946 26.2614 17.3177 26.5883 17.0942 26.9105C16.9952 26.2059 17.0226 25.4535 16.8507 24.7643L16.8528 24.7701C16.8182 24.726 16.6633 24.4227 16.6242 24.3313C16.6685 24.9193 16.499 25.4841 16.0678 25.9393C16.2006 23.1934 13.1811 22.2023 11.8052 20.2696C10.3396 18.2476 10.1184 14.8362 12.3282 13.2445C11.5159 14.5074 11.8286 15.9958 12.5653 17.2065C12.5996 17.2477 12.7282 17.3983 12.7337 17.2665C12.3478 16.3925 12.4813 15.4244 12.9936 14.6263C14.2964 13.4009 14.6955 11.7328 14.9603 9.96076C15.9827 11.4861 15.4944 13.4055 14.6297 14.8487C14.6308 14.8472 14.6316 14.8457 14.6326 14.8443C14.6093 14.8776 14.6016 14.922 14.5626 14.9428C16.9993 13.6122 17.7119 10.0931 18.5206 7.55713C19.2177 9.85257 19.7921 12.1821 21.3569 14.0802C21.7175 14.4149 22.1134 14.7044 22.4852 15.0029C21.6518 13.5124 21.1421 11.6451 21.9924 10.0124C22.0289 10.0173 22.0655 10.0223 22.102 10.0273C22.3845 11.557 22.617 13.2956 23.8487 14.3618C24.4831 15.1447 24.659 16.1653 24.3761 17.131C24.3475 17.1834 24.3682 17.2421 24.3535 17.2968C24.3932 17.3279 24.4315 17.2139 24.471 17.2293C25.2543 16.021 25.4672 14.5128 24.7449 13.231C26.1323 14.2633 26.5678 16.1006 26.266 17.7317ZM20.0306 20.0946C19.9874 20.1414 19.9782 20.2197 19.953 20.2833C21.0895 20.2859 22.3817 19.6763 22.9194 18.6456C23.1117 18.2208 23.3821 17.6458 23.2021 17.1858C21.9783 17.9734 20.9927 19.014 20.0306 20.0946ZM16.2637 15.536C16.2773 15.5537 16.2909 15.5712 16.3043 15.5888C17.3319 15.0326 17.9601 14.0932 18.5207 13.1113C19.0961 14.0734 19.6864 15.0167 20.72 15.5617C20.732 15.5443 20.744 15.5269 20.7561 15.5095C19.5965 14.5075 19.0935 13.0369 18.5183 11.6558C18.0258 13.0835 17.4376 14.5174 16.2637 15.536ZM14.2574 18.8565C15.0439 20.003 16.5172 20.3511 17.1767 20.2777C16.1967 19.0952 15.1341 17.9264 13.7788 17.193C13.7385 17.6469 13.8367 17.9826 14.2574 18.8565ZM24.0827 18.4644C24.0646 18.4576 24.0464 18.4508 24.0282 18.444C22.1761 22.5533 19.3949 20.9942 18.4959 23.9697C17.1908 20.8523 14.4649 22.298 12.9378 18.4472C12.9126 18.4568 12.8875 18.4664 12.8623 18.4761C14.1445 23.236 17.6961 20.6433 18.45 25.5315C18.4701 25.5322 18.4902 25.5328 18.5103 25.5334C18.5248 25.3819 18.5393 25.2303 18.5538 25.079C19.2592 20.8521 22.7613 23.2109 24.0827 18.4644Z" fill="#9A9DA3"/>
</g>
<defs>
<clipPath id="clip0_1463_1927">
<rect width="124.704" height="37" fill="white" transform="translate(0.481476)"/>
</clipPath>
</defs>
</svg>
