<svg width="24" height="25" viewBox="0 0 24 25" fill="none" xmlns="http://www.w3.org/2000/svg">
<path d="M6 13.6546L8.32213 20.6305C8.32213 20.6305 8.61246 21.2832 8.92334 21.2832C9.23422 21.2832 13.8581 16.0623 13.8581 16.0623L19 5.2832L6.08286 11.8539L6 13.6546Z" fill="#E8EAF6"/>
<path d="M9.44111 15.2832L9.00759 20.564C9.00759 20.564 8.82613 22.1822 10.2376 20.564C11.649 18.9459 13 17.6982 13 17.6982" fill="#A9C6D8"/>
<path d="M5.65483 13.7752L0.460543 12.1695C0.460543 12.1695 -0.160232 11.9305 0.0396571 11.3887C0.0808056 11.277 0.163812 11.1819 0.412122 11.0185C1.56304 10.2574 21.7146 3.38564 21.7146 3.38564C21.7146 3.38564 22.2836 3.20374 22.6192 3.32473C22.7022 3.34911 22.7769 3.39397 22.8357 3.45473C22.8944 3.51549 22.9351 3.58996 22.9535 3.67053C22.9898 3.81283 23.005 3.95924 22.9986 4.10551C22.997 4.23206 22.9808 4.34934 22.9686 4.53326C22.8459 6.41203 19.173 20.4339 19.173 20.4339C19.173 20.4339 18.9533 21.2544 18.1659 21.2825C17.9725 21.2884 17.7797 21.2573 17.5991 21.1911C17.4186 21.1248 17.254 21.0247 17.1151 20.8968C15.57 19.6359 10.2299 16.2311 9.04994 15.4823C9.02333 15.4651 9.00091 15.4427 8.9842 15.4165C8.9675 15.3904 8.95689 15.3612 8.9531 15.3308C8.93661 15.2519 9.02706 15.1542 9.02706 15.1542C9.02706 15.1542 18.3256 7.31263 18.573 6.48944C18.5921 6.42566 18.5198 6.3942 18.4226 6.42213C17.805 6.63769 7.09894 13.0521 5.91733 13.76C5.83228 13.7844 5.74238 13.7896 5.65483 13.7752Z" fill="white"/>
</svg>
