<svg width="152" height="19" viewBox="0 0 152 19" fill="none" xmlns="http://www.w3.org/2000/svg">
<g clip-path="url(#clip0_1463_1955)">
<path d="M5.38335 4.37895H0.548902C0.47668 4.37946 0.405077 4.36544 0.338255 4.33771C0.271433 4.30999 0.210723 4.26909 0.159653 4.21742C0.108583 4.16574 0.0681712 4.10431 0.0407658 4.0367C0.0133605 3.96909 -0.000491924 3.89664 1.334e-05 3.82356V0.576699C-0.000491924 0.503622 0.0133605 0.431172 0.0407658 0.363559C0.0681712 0.295946 0.108583 0.234518 0.159653 0.182843C0.210723 0.131169 0.271433 0.0902794 0.338255 0.0625495C0.405077 0.03482 0.47668 0.0208035 0.548902 0.0213148H14.3344C14.771 0.02188 15.1895 0.197602 15.4982 0.509944C15.8069 0.82229 15.9805 1.24575 15.9811 1.68746V3.82356C15.9816 3.89664 15.9677 3.96909 15.9404 4.0367C15.913 4.10431 15.8725 4.16574 15.8215 4.21742C15.7704 4.26909 15.7097 4.30999 15.6428 4.33771C15.5761 4.36544 15.5044 4.37946 15.4322 4.37895H10.5767V18.1567C10.5772 18.2299 10.5633 18.3023 10.5359 18.3699C10.5085 18.4375 10.4681 18.499 10.4171 18.5506C10.366 18.6023 10.3052 18.6431 10.2385 18.6709C10.1716 18.6986 10.1 18.7127 10.0278 18.7121H7.03001C6.59346 18.7115 6.17494 18.5358 5.86626 18.2235C5.55757 17.9112 5.3839 17.4877 5.38335 17.046V4.37895Z" fill="#9A9DA3"/>
<path d="M19.6334 6.85719L19.6545 6.964C20.33 5.74642 21.5545 5.2124 22.8211 5.2124C23.9538 5.19409 25.0552 5.5883 25.9245 6.32317C26.0168 6.40765 26.0776 6.52162 26.0969 6.64604C26.1161 6.77046 26.0924 6.89778 26.03 7.00672L24.5945 9.63411C24.5591 9.69927 24.5107 9.75641 24.4525 9.8018C24.3942 9.84719 24.3273 9.87998 24.2559 9.898C24.1846 9.91601 24.1103 9.91897 24.0378 9.90665C23.9653 9.89434 23.8961 9.86704 23.8345 9.82636C23.3236 9.50245 22.7266 9.3458 22.1245 9.37775C20.9211 9.37775 19.8867 10.1254 19.8867 11.8556V18.1572C19.8873 18.2302 19.8734 18.3027 19.8459 18.3702C19.8186 18.4379 19.7782 18.4993 19.7271 18.551C19.676 18.6027 19.6153 18.6436 19.5485 18.6713C19.4816 18.699 19.4101 18.713 19.3378 18.7125H16.6567C16.2202 18.712 15.8016 18.5362 15.493 18.2239C15.1843 17.9116 15.0106 17.4881 15.01 17.0464V6.06684C15.0095 5.99376 15.0234 5.92131 15.0508 5.8537C15.0782 5.78608 15.1186 5.72466 15.1697 5.67298C15.2208 5.62131 15.2814 5.58042 15.3483 5.55269C15.4151 5.52496 15.4867 5.51094 15.5589 5.51146H18.0289C18.4075 5.51854 18.7725 5.65557 19.064 5.90009C19.3555 6.1446 19.5563 6.48208 19.6334 6.85719Z" fill="#9A9DA3"/>
<path d="M36.7755 5.53288H39.2456C39.6821 5.53344 40.1006 5.70916 40.4093 6.02151C40.7181 6.33385 40.8917 6.75732 40.8922 7.19906V18.1572C40.8928 18.2302 40.8789 18.3027 40.8515 18.3704C40.8241 18.438 40.7837 18.4994 40.7326 18.5511C40.6815 18.6027 40.6208 18.6436 40.554 18.6713C40.4872 18.6991 40.4156 18.7131 40.3433 18.7126H37.81C37.4178 18.7108 37.0391 18.568 36.7413 18.3098C36.4435 18.0516 36.2462 17.6947 36.1844 17.3028C35.0867 18.5844 33.3344 19.033 31.8778 18.9475C28.0567 18.7126 25.9244 15.957 25.9244 12.112C25.9244 8.22435 28.4578 5.23383 32.2578 5.23383C34.0944 5.23383 35.4033 5.87465 36.0789 6.9427L36.2478 5.98146C36.2707 5.85636 36.3359 5.74321 36.4321 5.66137C36.5284 5.57954 36.6499 5.53412 36.7755 5.53288ZM30.7589 12.112C30.7589 13.9491 31.92 14.9957 33.3767 14.9957C35.0022 14.9957 36.0578 13.6714 36.0578 12.112C36.0578 10.3604 35.0867 9.20694 33.3767 9.20694C31.92 9.20694 30.7589 10.275 30.7589 12.112Z" fill="#9A9DA3"/>
<path d="M48.2389 9.20634L49.6323 13.4786L50.9412 9.20634L52.2078 5.87408C52.247 5.77112 52.3168 5.68299 52.4075 5.62179C52.4982 5.56059 52.6055 5.52933 52.7145 5.53229H55.0367C55.3056 5.53238 55.5703 5.59931 55.8077 5.72723C56.045 5.85513 56.2477 6.04009 56.3978 6.26583C56.5479 6.49157 56.6409 6.75117 56.6687 7.02182C56.6963 7.29248 56.6579 7.56587 56.5567 7.81794L52.25 18.4343C52.2108 18.5372 52.141 18.6254 52.0503 18.6866C51.9596 18.7478 51.8524 18.779 51.7434 18.7761H48.3656C48.0442 18.7718 47.7306 18.6751 47.4615 18.4973C47.1924 18.3196 46.9788 18.0681 46.8456 17.7721L41.99 6.27993C41.9548 6.19556 41.9408 6.10364 41.9492 6.01244C41.9577 5.92124 41.9885 5.83361 42.0387 5.75739C42.0889 5.68116 42.157 5.61875 42.237 5.57573C42.3169 5.53272 42.4061 5.51046 42.4967 5.51094H46.4445C46.5535 5.50797 46.6607 5.53923 46.7514 5.60043C46.8422 5.66163 46.9119 5.74977 46.9512 5.85271L48.2389 9.20634Z" fill="#9A9DA3"/>
<path d="M67.9145 5.57475H70.3845C70.8208 5.57531 71.2395 5.75103 71.5484 6.06338C71.8566 6.37572 72.0304 6.79919 72.0311 7.24088V18.1991C72.0318 18.2721 72.0178 18.3446 71.9903 18.4122C71.9629 18.4798 71.9228 18.5412 71.8714 18.593C71.8207 18.6446 71.7595 18.6855 71.6927 18.7132C71.6258 18.7409 71.5547 18.755 71.4822 18.7545H68.9489C68.5567 18.7527 68.1779 18.6099 67.8802 18.3517C67.5824 18.0934 67.3851 17.7365 67.3234 17.3447C66.2256 18.6263 64.4734 19.0749 63.0167 18.9894C59.1956 18.7545 57.0634 15.9989 57.0634 12.1539C57.0634 8.26625 59.5967 5.2757 63.3967 5.2757C65.2334 5.2757 66.5422 5.91652 67.2178 6.98457L67.3867 6.02333C67.4096 5.89823 67.4747 5.78508 67.5711 5.70325C67.6673 5.62141 67.7887 5.57599 67.9145 5.57475ZM61.8978 12.1753C61.8978 14.0123 63.0589 15.059 64.5156 15.059C66.1411 15.059 67.1967 13.7347 67.1967 12.1753C67.1967 10.4237 66.2256 9.27022 64.5156 9.27022C63.0589 9.27022 61.8978 10.3382 61.8978 12.1753Z" fill="#9A9DA3"/>
<path d="M79.1667 1.66617V18.1568C79.1674 18.2299 79.1533 18.3023 79.1259 18.37C79.0984 18.4376 79.0583 18.499 79.0069 18.5507C78.9556 18.6023 78.8951 18.6432 78.8282 18.6709C78.7614 18.6987 78.6903 18.7127 78.6178 18.7122H76C75.5637 18.7116 75.145 18.5359 74.8361 18.2236C74.5272 17.9112 74.3541 17.4877 74.3534 17.046V0.555398C74.3527 0.482321 74.3667 0.409872 74.3942 0.342258C74.4216 0.274645 74.4617 0.213217 74.5131 0.161542C74.5638 0.109868 74.625 0.068978 74.6918 0.0412483C74.7587 0.0135186 74.8298 -0.000497746 74.9022 1.34979e-05H77.52C77.9563 0.000578717 78.375 0.176301 78.6839 0.488643C78.9922 0.800984 79.166 1.22445 79.1667 1.66617Z" fill="#9A9DA3"/>
<path d="M91.6856 5.55418H94.1556C94.5919 5.55475 95.0106 5.73047 95.3195 6.04281C95.6277 6.35516 95.8015 6.77862 95.8022 7.22031V18.1785C95.803 18.2516 95.7889 18.3241 95.7614 18.3916C95.734 18.4592 95.6939 18.5207 95.6425 18.5724C95.5918 18.624 95.5306 18.6649 95.4638 18.6927C95.3969 18.7204 95.3258 18.7344 95.2534 18.7339H92.72C92.3281 18.7321 91.9488 18.5893 91.6511 18.3311C91.3534 18.0728 91.1564 17.7159 91.0945 17.3241C89.9967 18.6057 88.2445 19.0543 86.7878 18.9689C82.9667 18.7339 80.8345 15.9783 80.8345 12.1334C80.8345 8.24568 83.3678 5.25513 87.1678 5.25513C89.0045 5.25513 90.3134 5.89595 90.9889 6.96401L91.1578 6.00276C91.1775 5.87619 91.2422 5.7611 91.3387 5.67868C91.4358 5.59625 91.5589 5.55205 91.6856 5.55418ZM85.6689 12.1334C85.6689 13.9704 86.83 15.0171 88.2867 15.0171C89.9122 15.0171 90.9678 13.6927 90.9678 12.1334C90.9678 10.3818 89.9967 9.22826 88.2867 9.22826C86.83 9.22826 85.6689 10.2963 85.6689 12.1334Z" fill="#9A9DA3"/>
<path d="M99.7078 13.949C103.233 13.949 103.212 18.7766 99.7078 18.7766C96.2667 18.7552 96.2033 13.949 99.7078 13.949Z" fill="#9A9DA3"/>
<path d="M114.908 15.9995C114.977 16.0745 115.031 16.1634 115.065 16.2604C115.098 16.3575 115.111 16.4605 115.103 16.5631C115.096 16.6657 115.066 16.7654 115.018 16.856C114.97 16.9465 114.904 17.0258 114.823 17.0889C113.468 18.1706 111.799 18.7711 110.073 18.7978C106.273 18.7978 102.706 16.8967 102.706 11.9837C102.706 7.19882 106.337 5.08406 109.989 5.08406C111.275 5.07807 112.541 5.40924 113.662 6.04531C113.853 6.15584 114.016 6.30863 114.14 6.49222C114.265 6.67581 114.346 6.88543 114.378 7.10537C114.411 7.32528 114.393 7.54976 114.328 7.76207C114.262 7.9743 114.151 8.16881 114 8.33094L112.987 9.44166C112.863 9.57276 112.695 9.65369 112.517 9.66945C112.339 9.68515 112.16 9.63455 112.016 9.52716C111.502 9.16645 110.888 8.97947 110.263 8.99312C108.427 8.99312 107.413 10.3602 107.413 12.005C107.413 13.4362 108.384 14.7178 110.221 14.7178C110.768 14.7229 111.306 14.5829 111.783 14.312C112.064 14.1544 112.389 14.0961 112.707 14.1464C113.024 14.1967 113.315 14.3527 113.536 14.5897L114.908 15.9995Z" fill="#9A9DA3"/>
<path d="M130.234 11.9836C130.234 16.7684 126.477 18.8618 122.803 18.8618C119.067 18.8618 115.372 16.7898 115.372 11.9836C115.372 7.11325 119.024 5.08398 122.803 5.08398C126.646 5.08398 130.234 7.19875 130.234 11.9836ZM125.484 11.9836C125.484 10.467 124.513 9.09987 122.803 9.09987C121.093 9.09987 120.122 10.467 120.122 11.9836C120.122 13.5002 121.093 14.846 122.803 14.846C124.429 14.846 125.484 13.5856 125.484 11.9836Z" fill="#9A9DA3"/>
<path d="M141.191 18.5408C140.704 18.5404 140.237 18.3445 139.893 17.9961C139.549 17.6476 139.354 17.1752 139.354 16.6824V11.2567C139.354 9.74005 138.848 9.2274 137.982 9.2274C137.159 9.2274 136.293 9.88959 136.272 11.3421V17.8786C136.274 17.9687 136.257 18.0581 136.223 18.1416C136.19 18.225 136.14 18.3008 136.077 18.3646C136.014 18.4283 135.939 18.4786 135.856 18.5125C135.774 18.5464 135.685 18.5633 135.597 18.5621H133.296C132.809 18.5618 132.341 18.3659 131.997 18.0174C131.653 17.669 131.459 17.1965 131.459 16.7037V6.06598C131.457 5.97588 131.474 5.88647 131.508 5.803C131.541 5.71955 131.591 5.64372 131.654 5.58001C131.717 5.5163 131.792 5.46599 131.875 5.43206C131.957 5.39812 132.045 5.38125 132.134 5.38242H134.098C134.507 5.37955 134.906 5.51745 135.228 5.77355C135.55 6.02966 135.777 6.38882 135.871 6.79225C136.694 5.63875 138.109 5.08337 139.46 5.10473C140.769 5.12609 142.036 5.74556 142.69 6.96314C143.767 5.59603 145.223 5.06201 147.018 5.06201C149.826 5.06201 152 6.81361 152 11.1926V17.8359C152.001 17.926 151.985 18.0154 151.951 18.0989C151.918 18.1823 151.868 18.2581 151.804 18.3218C151.742 18.3855 151.666 18.4359 151.584 18.4698C151.502 18.5037 151.413 18.5206 151.324 18.5194H148.981C148.494 18.519 148.027 18.3232 147.683 17.9747C147.339 17.6262 147.144 17.1538 147.144 16.661V11.2567C147.144 9.8682 146.511 9.31283 145.793 9.31283C144.97 9.31283 144.104 9.8682 144.104 11.3208V17.8786C144.106 17.9687 144.089 18.0581 144.055 18.1416C144.022 18.225 143.972 18.3008 143.909 18.3646C143.846 18.4283 143.771 18.4786 143.689 18.5125C143.606 18.5464 143.518 18.5633 143.429 18.5621H141.191V18.5408Z" fill="#9A9DA3"/>
</g>
<defs>
<clipPath id="clip0_1463_1955">
<rect width="152" height="19" fill="white"/>
</clipPath>
</defs>
</svg>
