<svg width="96" height="24" viewBox="0 0 96 24" fill="none" xmlns="http://www.w3.org/2000/svg">
<g clip-path="url(#clip0_1463_1932)">
<path fill-rule="evenodd" clip-rule="evenodd" d="M19.9394 7.50901C20.9091 7.50901 21.697 8.29765 21.697 9.26827V12.9688C21.7273 13.9394 20.9545 14.7583 19.9849 14.7735C19.0151 14.8039 18.2121 14.0304 18.1818 13.0598C18.1818 13.0294 18.1818 12.984 18.1818 12.9536V9.26827C18.1818 8.29765 18.9697 7.50901 19.9394 7.50901ZM15.394 9.92041C16.3636 9.92041 17.1515 10.7091 17.1515 11.6797V17.9887C17.1212 18.9593 16.3182 19.7328 15.3333 19.7025C14.3939 19.6721 13.6515 18.929 13.6212 17.9887V11.6797C13.6364 10.7091 14.4242 9.92041 15.394 9.92041ZM10.8485 2.68627C11.8182 2.68627 12.6061 3.4749 12.6061 4.44552V20.2181C12.5455 21.1887 11.6969 21.9318 10.7273 21.856C9.84846 21.7953 9.13638 21.0977 9.0909 20.2181V4.44552C9.10608 3.4749 9.87876 2.68627 10.8485 2.68627ZM6.303 1.20001C7.27272 1.20001 8.06058 1.98864 8.07576 2.95926V11.6797C8.04546 12.6503 7.24242 13.4238 6.25758 13.3934C5.31818 13.3631 4.57576 12.6199 4.54546 11.6797V2.95926C4.54546 1.98864 5.33333 1.20001 6.303 1.20001ZM1.75757 7.32703C2.72727 7.32703 3.51515 8.11567 3.51515 9.08629V13.5299C3.54545 14.5005 2.77273 15.3195 1.80303 15.3346C0.833334 15.365 0.030303 14.6067 0 13.6361C0 13.6057 0 13.5603 0 13.5299V9.08629C0 8.11567 0.787878 7.32703 1.75757 7.32703C1.77272 7.32703 1.77272 7.32703 1.75757 7.32703Z" fill="#9A9DA3"/>
<path d="M27.0908 16.6239L32.0605 11.3007H27.3635V8.63144H36.6211V11.2552L31.6514 16.5784H36.6211V19.2476H27.0908V16.6239ZM41.8181 8.63144V19.2324H38.2726V8.63144H41.8181ZM54.3332 18.3831C54.3332 22.0078 51.8787 23.1756 48.7423 23.1756C46.0302 23.1756 43.8484 22.1746 43.1969 19.5964L46.7574 19.3537C47.0605 20.2485 47.6817 20.6884 48.7423 20.6884C49.9241 20.6884 50.7878 20.0817 50.7878 18.3376V17.3215H50.712C50.0605 18.2466 49.0605 18.7016 47.5605 18.7016C45.1059 18.7016 43.1817 16.7604 43.1817 13.53C43.1817 10.2997 45.0908 8.3888 47.6514 8.3888C48.909 8.3888 50.1363 8.73758 50.8484 9.96602H50.9241V8.63144H54.3332V18.3831ZM50.8029 13.5149C50.8029 11.9224 49.9696 10.9822 48.7272 10.9822C47.4848 10.9822 46.6362 11.9224 46.6362 13.5149C46.6362 15.1376 47.4545 16.0931 48.7272 16.0931C49.9999 16.0931 50.8029 15.1376 50.8029 13.5149ZM59.3635 10.0722C59.9847 9.20774 61.0152 8.37362 62.7726 8.37362C64.9242 8.37362 66.4698 9.60206 66.4698 12.3016V19.2324H62.9244V13.1206C62.9244 11.7101 62.3334 11.1793 61.3032 11.1793C60.303 11.1793 59.4241 11.8921 59.4241 13.5149V19.2324H55.8787V8.63144H59.2878V10.0722H59.3635ZM75.03 19.2324C74.8332 18.9898 74.7426 18.4287 74.7426 17.6855C74.2122 18.8078 72.894 19.4902 71.3028 19.4902C69.4998 19.4902 67.7574 18.3528 67.7574 16.3812C67.7574 14.1215 69.318 13.2571 72.03 12.8779C74.1966 12.5746 74.7426 12.3168 74.7426 11.7253C74.7426 11.058 74.1816 10.694 73.2726 10.694C72.4092 10.694 71.7576 11.1793 71.4846 12.0589L68.1666 11.7253C68.6364 9.60206 70.5906 8.37362 73.3332 8.37362C76.6362 8.37362 78.288 9.73856 78.288 12.0135V17.2609C78.288 18.277 78.303 18.8685 78.5604 19.2476L75.03 19.2324ZM74.8788 14.2428C74.5452 14.44 73.9242 14.5462 73.0452 14.713C72.1062 14.8798 71.5002 15.3348 71.5002 16.1082C71.5002 16.821 72 17.2609 72.7728 17.2609C73.6362 17.2609 74.8788 16.6846 74.8788 15.168V14.2428ZM83.3334 4.7793V19.2476H79.788V4.7793H83.3334ZM92.2878 19.2324C91.0452 22.7661 89.5452 23.1604 87.4998 23.1604C86.697 23.1604 85.8936 23.1301 85.3938 23.0694V20.2485C85.788 20.2789 86.2728 20.3244 86.9088 20.3244C87.7272 20.3244 88.1058 20.0969 88.3638 19.4599L88.4694 19.1869L84.2274 8.61626H88.0908L90.2724 15.1073H90.3486L92.2122 8.63144H96L92.2878 19.2324ZM41.8938 5.61343C41.8938 6.72056 41.1514 7.403 40.0454 7.403C38.9393 7.403 38.1817 6.72056 38.1817 5.61343C38.1817 4.50632 38.9241 3.82385 40.0302 3.82385C41.1363 3.82385 41.8938 4.52148 41.8938 5.61343Z" fill="#9A9DA3"/>
</g>
<defs>
<clipPath id="clip0_1463_1932">
<rect width="96" height="24" fill="white"/>
</clipPath>
</defs>
</svg>
